<?xml version="1.0" encoding="utf-8"?>
<!-- Generator: Adobe Illustrator 24.3.0, SVG Export Plug-In . SVG Version: 6.00 Build 0)  -->
<svg version="1.1" id="Layer_1" xmlns="http://www.w3.org/2000/svg" xmlns:xlink="http://www.w3.org/1999/xlink" x="0px" y="0px"
	 viewBox="0 0 4116.36 1059.35" style="enable-background:new 0 0 4116.36 1059.35;" xml:space="preserve">
<style type="text/css">
	.st0{fill:#00446D;}
	.st1{fill:#F39700;}
	.st2{fill:#FFFFFF;}
</style>
<g>
	<g>
		<path class="st0" d="M69.66,419.29l19.53-100.91h119.14L188.8,419.29h85.29l-18.23,93.1h-85.29l-24.74,129.56
			c-4.56,21.48,1.95,29.95,18.23,29.95c18.88,0,39.06-2.6,63.15-10.42l-16.28,84.64c-27.34,12.37-64.45,18.23-98.96,18.23
			c-77.47,0-100.91-42.32-87.24-112.63l26.69-139.32H0l18.23-93.1H69.66z"/>
		<path class="st0" d="M581.39,528.67c-35.16-16.28-71.62-22.79-121.1-22.79c-12.37,0-30.6,3.25-39.71,7.16L373.7,756.53H254.56
			L312.5,457.7c48.18-27.34,106.77-46.22,171.88-46.22c45.57,0,83.33,5.86,115.89,19.53L581.39,528.67z"/>
		<path class="st0" d="M875.67,756.53h-89.84l-7.81-28c-22.79,22.14-54.69,35.81-87.24,35.81c-97.01,0-133.46-47.53-110.68-162.76
			l5.21-28.65c22.79-115.24,86.59-161.46,198.57-161.46c53.39,0,110.03,16.28,149.09,47.53L875.67,756.53z M698.58,605.49
			c-8.46,41.67-7.16,65.76,30.6,65.76c18.88,0,35.16-8.46,47.53-20.83l27.34-139.32c-11.07-3.91-23.44-6.51-36.46-6.51
			c-39.71,0-54.04,24.09-62.5,65.76L698.58,605.49z"/>
		<path class="st0" d="M961.61,512.39l18.23-93.1h51.43l5.86-30.6c13.67-70.31,48.18-112.63,138.02-112.63
			c26.69,0,52.08,3.91,72.92,13.67l-16.28,84.64c-15.62-3.25-31.25-5.21-47.53-5.21c-18.23,0-25.39,7.81-28.65,22.79l-5.21,27.34
			h216.8l-65.11,337.24h-119.14l46.88-244.14h-97.66l-65.1,335.29H947.93l65.1-335.29H961.61z M1259.13,335.31l3.26-14.97
			c5.21-28,30.6-39.06,71.62-39.06c41.02,0,63.15,11.07,57.94,39.06l-3.26,14.97c-5.21,28-31.25,39.06-72.27,39.06
			C1275.41,374.37,1253.93,363.3,1259.13,335.31z"/>
		<path class="st0" d="M1548.2,529.97h2.6c21.48,0,38.41-8.46,54.04-31.9l50.78-78.78h120.44l-98.31,135.42
			c-5.86,7.81-11.72,14.32-17.58,20.83c3.25,6.51,5.86,13.67,9.11,21.48l57.29,159.51h-120.44l-31.9-102.87
			c-6.51-20.18-15.62-29.3-37.76-30.6h-6.51l-25.39,133.46h-119.14l91.8-475.26h119.14L1548.2,529.97z"/>
		<path class="st1" d="M1988.96,569.68c61.85,23.44,76.17,47.53,67.06,95.05c-13.02,65.1-71.62,99.61-161.46,99.61
			c-40.37,0-91.15-8.46-127.61-28l13.67-72.27c37.76,23.44,82.68,33.85,123.05,33.85c41.02,0,68.36-12.37,72.92-35.81
			c2.6-14.97-1.95-24.09-25.39-33.2l-79.43-29.95c-61.85-22.79-76.17-46.88-67.71-93.1c13.02-64.45,71.62-94.4,157.55-94.4
			c39.06,0,82.68,5.86,115.23,20.18l-13.67,72.27c-31.9-17.58-74.22-26.04-110.03-26.04c-42.32,0-65.1,8.46-69.01,30.6
			c-3.26,13.67,1.95,22.14,25.39,31.25L1988.96,569.68z"/>
		<path class="st1" d="M2190.78,622.42c-5.21,56.64,25.39,78.13,80.08,78.13c36.46,0,71.62-7.16,113.28-28l-13.67,69.01
			c-37.11,14.97-75.52,22.79-112.63,22.79c-118.49,0-164.06-58.59-144.53-160.16l6.51-32.55
			c19.53-101.56,88.54-160.16,194.01-160.16c102.21,0,133.46,56.64,121.09,118.49c-12.37,65.1-53.39,92.45-115.23,92.45H2190.78z
			 M2201.85,562.52h104.17c27.34,0,42.32-6.51,47.53-32.55c5.86-30.6-9.77-54.69-53.39-54.69
			C2251.33,475.28,2214.87,503.28,2201.85,562.52z"/>
		<path class="st1" d="M2507.84,455.1c48.18-28.65,99.61-43.62,154.3-43.62c113.93,0,150.39,53.39,129.56,160.81l-6.51,30.6
			c-20.83,107.42-75.52,161.46-174.48,161.46c-32.55,0-59.25-8.46-77.47-22.14l-29.95,152.34h-80.73L2507.84,455.1z M2711.62,570.99
			c11.72-59.25-1.3-93.1-64.45-93.1c-22.14,0-44.92,4.56-65.76,14.32l-35.81,184.25c14.97,13.67,37.11,21.48,65.11,21.48
			c57.29,0,82.68-33.85,94.4-93.1L2711.62,570.99z"/>
		<path class="st1" d="M2908.23,622.42c-5.21,56.64,25.39,78.13,80.08,78.13c36.46,0,71.62-7.16,113.28-28l-13.67,69.01
			c-37.11,14.97-75.52,22.79-112.63,22.79c-118.49,0-164.06-58.59-144.53-160.16l6.51-32.55
			c19.53-101.56,88.54-160.16,194.01-160.16c102.21,0,133.46,56.64,121.09,118.49c-12.37,65.1-53.39,92.45-115.24,92.45H2908.23z
			 M2919.3,562.52h104.17c27.34,0,42.32-6.51,47.53-32.55c5.86-30.6-9.77-54.69-53.39-54.69
			C2968.78,475.28,2932.32,503.28,2919.3,562.52z"/>
		<path class="st1" d="M3264.35,419.29l19.53-100.26h80.08l-19.53,100.26h95.7l-13.02,66.41h-95.7l-32.55,168.62
			c-5.86,31.25,1.3,44.27,29.3,44.27c20.18,0,39.71-3.25,59.9-11.07l-12.37,63.15c-20.83,8.46-52.08,13.67-79.43,13.67
			c-71.62,0-91.15-39.71-78.13-106.12l33.2-172.53h-57.94l13.02-66.41H3264.35z"/>
		<path class="st1" d="M3497.42,419.29h80.73l-65.1,337.24h-80.73L3497.42,419.29z M3510.44,326.84l1.95-11.72
			c4.56-24.09,23.44-33.85,52.08-33.85c28,0,43.62,9.77,39.06,33.85l-1.95,11.72c-4.56,23.44-24.09,33.2-52.08,33.2
			C3520.85,360.05,3505.88,350.28,3510.44,326.84z"/>
		<path class="st1" d="M3677.1,756.53h-80.73l57.94-301.43c40.36-24.09,95.05-43.62,147.14-43.62c42.32,0,72.27,9.11,91.15,27.34
			c33.2-18.23,68.36-27.34,106.77-27.34c97.01,0,130.86,46.22,111.98,142.58l-39.06,202.48h-80.73l38.41-197.92
			c11.07-56.64-4.56-80.73-51.43-80.73c-20.83,0-41.02,4.56-61.85,15.62c1.95,17.58,0.65,37.11-3.91,60.55l-39.06,202.48h-80.08
			l38.41-197.92c11.07-56.64-4.56-80.73-51.43-80.73c-17.58,0-37.11,5.21-52.08,13.67L3677.1,756.53z"/>
	</g>
	<g>
		<polygon class="st0" points="4039.51,1059.35 3183.82,1059.35 3224.57,782.12 4080.26,782.12 		"/>
	</g>
	<g>
		<path class="st2" d="M3221.85,1001.42l1.53-7.67c2.68-13.42,12.27-19.17,27.23-19.17c14.95,0,22.24,5.75,19.56,19.17l-1.53,7.67
			c-2.3,13.04-11.89,19.17-26.84,19.17C3226.84,1020.59,3219.55,1014.46,3221.85,1001.42z"/>
		<path class="st2" d="M3362.19,930.48c-8.82,45.63,14.19,60.97,47.17,60.97c22.24,0,41.41-4.99,61.74-18.02l-7.29,37.58
			c-18.41,9.2-39.5,14.19-62.89,14.19c-64.8,0-90.11-34.51-78.61-94.71l3.83-18.41c11.5-60.2,50.62-94.71,115.42-94.71
			c23.39,0,42.18,4.98,57.13,14.19l-7.29,37.58c-15.34-13.04-32.59-18.02-54.83-18.02c-32.59,0-61.74,14.95-70.56,60.97
			L3362.19,930.48z"/>
		<path class="st2" d="M3510.2,912.07c11.5-59.82,50.23-94.71,111.58-94.71c61.35,0,86.28,34.89,74.77,94.71l-3.83,18.41
			c-11.5,59.82-50.23,94.71-111.58,94.71s-86.28-34.89-74.77-94.71L3510.2,912.07z M3656.67,911.69
			c8.05-42.18-9.97-60.58-42.18-60.58c-31.83,0-56.37,18.79-64.42,60.58l-3.83,19.17c-8.05,42.18,9.59,60.59,41.8,60.59
			c31.83,0,56.75-18.79,64.8-60.59L3656.67,911.69z"/>
		<path class="st2" d="M3749.85,1020.59h-39.88l34.51-178.31c23.01-13.8,54.45-24.92,83.21-24.92c24.92,0,42.18,5.75,52.92,16.87
			c20.71-11.5,41.8-16.87,65.95-16.87c55.6,0,74.01,27.23,62.89,83.21l-23.01,120.02h-39.88l22.62-116.57
			c6.9-37.19-3.45-52.92-34.51-52.92c-14.19,0-27.22,3.45-41.41,11.12c1.15,11.12,0.77,23.77-2.3,38.34l-23.01,120.02h-39.88
			l22.62-116.57c6.9-37.19-3.45-52.92-34.51-52.92c-11.89,0-25.31,3.83-35.66,9.97L3749.85,1020.59z"/>
	</g>
	<g>
		<polygon class="st1" points="237.55,338.49 255.21,247.86 1008.49,286.22 1006.26,299.57 		"/>
	</g>
	<g>
		<path class="st0" d="M3066.01,334.02c0,0-131.26-68.84-702.71-108.35c0,0-197.62-27.08-294.54-78.29
			c-96.92-51.21-423.89-182.89-826.54-138.32S494.22,176.65,494.22,176.65l5.4,21.23l473.76,20.07l-70.31-75.2
			c0,0,649.37-237.73,1137.23,75.47c0,0,87.72,50.38,134.45,56.78s368.15,20.45,368.15,20.45s200.78-2.64,516.81,64.3
			L3066.01,334.02z"/>
	</g>
</g>
</svg>
