<?xml version="1.0" encoding="utf-8"?>
<!-- Generator: Adobe Illustrator 24.3.0, SVG Export Plug-In . SVG Version: 6.00 Build 0)  -->
<svg version="1.1" id="katman_1" xmlns:amcharts="http://amcharts.com/ammap"
	 xmlns="http://www.w3.org/2000/svg" xmlns:xlink="http://www.w3.org/1999/xlink" x="0px" y="0px" viewBox="0 0 266.8 112.6"
	 style="enable-background:new 0 0 266.8 112.6;" xml:space="preserve">
<style type="text/css">
	.st0{fill:#CCCCCC;stroke:#FFFFFF;stroke-width:0.3;}
</style>
<defs>
	
		<amcharts:ammap  bottomLatitude="35.805510" leftLongitude="25.663689" projection="mercator" rightLongitude="44.819611" topLatitude="42.099732">
		</amcharts:ammap>
</defs>
<g>
	<path id="TR-01" class="st0" d="M150.1,69.9l-1,3l-1,1.2l1.1,0.6l-0.9,1.3l0.8,1.8l-0.4,1.2l-1,1l0,0l-1.8,0.9l-0.7,1.1l-0.4,1.4
		l-0.2,1.5l0.8,3.6l-0.4,3.1l0,0l-0.8,0.9l0.1,0.9l0,0l-3,2.9l-1.7,0l-0.6,0.4l-0.3,0.6l0.3-0.1l0,0.4l0-0.5l0.3-0.2l0,0.5l0.6-0.1
		l-0.1-0.2l0.4,0.3l-1.1,0.8l-0.3,1.1l-1,0.7l-1.7-0.4l-1.3,0.9l-4.7-2.9l-1.4-0.2l0,0l0.7-0.4l0.1-0.3l0.9,0.1l0-0.4l0.2,0.2
		l0.4-0.6l1,0.2l0.3-0.5l-0.2-2.3l-0.5-2l-1-0.6l-0.6,0l-0.3-0.8l-0.7-0.4l0-0.5l0.7-0.6l0-0.4l-2-2.4l-0.2-1.2l0,0l0.9-0.7
		l-0.3-0.5l0.3-0.5L129,80l1.7,0.2l1.1-1.7l1.5-0.9l0,0l1.8,0.6l0.4-0.1l0.4,0.6l2.4,0.1l0.4-0.7l0.4-3.1l1.1-0.5l1.5-1.6l2.2-0.8
		l0.8-2.2l1.2-1.7l1.7-0.5L150.1,69.9z"/>
	<path id="TR-02" class="st0" d="M187.8,71.4L189,71l0.5,1l-0.6,1.5l-0.8,0.8l0,0l-1,0.2l-0.4,0.4l-0.4,1.2l-0.7,0.3l0.3,0.2l-0.2,1
		l-0.7,0l-0.4,0.4l0.8,0l0,0.9l-0.6,0.2l-0.1,0.5l-0.4,0.3l-0.9,0.2l0.5,0.7l-2.8,0.6l-2.3,2l-0.7,0.4l-2.3,0.2l-0.4,0.6l-0.7-0.1
		l-0.3,0.7l-1.3-0.7l0,0l-1.9-0.8l-2.6-0.1l-0.6-0.6l-1.5,0.5l-0.6-0.3l0,0l-0.5-1.2l-1.3-0.1l-0.2-0.7l0.5-0.7l0.1-1.1l0.9-0.9
		l-0.1-1.5l1.1-0.6l0.5-0.9l0,0l0.3,0.3l-0.1,0.6l1.1-0.2l0.4,0.8l0.7-0.4l1.5,0.3l1.6-0.3l1.3-1.3l-0.2-1.1l-0.5-0.6L173,73
		l2.4-0.9l0.6-0.8l0.5-0.2l1.4-0.1l2,1l0.2,0.4l0.7,0.1l2.3,1.6L186,73l0.2-0.5L187.8,71.4z"/>
	<path id="TR-03" class="st0" d="M66.9,52.6l1.1,0.2l0.7,1.7l1,0.5l1.1,1.1l0.6-1.4L74,55l0.3-0.7l-1-0.7l-0.1-0.4l0.8-0.1l1.1,0.5
		l0.2-0.5L76,53l0.4-1l0.5-0.3l1.3,0.9l1.2-0.3l1.5,1.4l0.2,1l1.2,0.3l0.6,0.9l0,0l0.4,0.8l1.8,0.3l0.2,0.3l-2,0.4l0.3,0.5l-0.2,1.9
		l-1.1,2.1l0.1,0.6l0.8,0.7L78.9,66l-0.4,1.3l0,0l-0.4,0.1l-0.6-1l-0.9-0.7L74.7,66l-1,1l-1.2,0.6l-1,1.8l-2,1.3l-1.8,0.5l-2.3,2.5
		l-1.4,0.6l-1.1,1.3l0.1,1.2l-0.7,1.5l0,0l0,0l0,0l-2.6-0.1l0,0L57,76.6l-0.5-1l0.1-1l1.8-1.6l0.7-1.1l1.5-0.1l0.6-1l0.9-0.8
		l-0.8-2.3l-0.9-0.4l-0.4-0.6l-0.6-0.1L59,66.2l-0.6,0l-0.7-0.5l0,0l1.6-2.1l0.5-0.3L59.5,62l1.3-1.1L61,60l0,0l0.7-0.2l0.9-1.2
		l1-0.4l0.8-1.3l-0.2-2.4l1.1-0.7l0.9,0L66.9,52.6z"/>
	<path id="TR-04" class="st0" d="M234.7,40.6l8-1.9l2.5,0.4l0,0l1,0.3l1,1.1l0.2,2.4l0.8-0.1l0.6-0.9l0.6-0.2l1.1,0.9l2.4,0.2
		l1.2,0.9h2.1l1.4,0.5l1.3-0.2l1.8,0.8l1.3-0.2l0,0l0.1,1.3l-0.8,0.8l0.2,1.1l-0.4,0.6l0.1,1l-1.8,0.7l-0.8-0.8l-1.2,0.3l-1-0.3
		l-0.5,0.6l0,0l-2.3,0.4l-1,1.6l-1.1,1l-1.1-0.1l-1.4-0.8l-1.8-1.9l-1.8-0.1l-1.6,0.5l-0.1,2.7l-1.4,1.1l-1.1,1.9l0,0l-0.8,0.2
		l-0.1,0.9l-1.8,0.8l-1.6-0.2l0,0l-0.1-2.2l0.3-1.3l-1.4-3.1l-0.2-1.1l-1.2,0l-0.5-1.4l-1.2-1.2l0,0l0.5-1l1.1-0.9l0.2-0.5l-1-1
		l-1.8-0.9l-0.6-1.5l0.4-0.4L234.7,40.6z"/>
	<path id="TR-68" class="st0" d="M114.5,56l0.4,0.3l0.7-0.3l0.3,0.4l0.8-0.1l0.5,1l0,0.8l1.5,1.5l0.8,0.3l0.9-0.2l0,0l0.4,0.3
		l-0.1,1.3l-0.5,0.9l0.1,0.9l1.5,0.8l1,1.5l0.1,1.3l0.5,0.5l0,0l-1,0.6l-0.3,2l-1.1,1.7l-0.7,0.5l-1.5,0.4l-1.1,1.1l0,0l-8.8,2.1
		l-1-1.1l-0.6-1.3l-1.4-1l-0.2-1.5l-0.7-1.2l1-3.2l1.1-1.2l0.4-1.3l1.8-0.6l0,0l1.3,0l2.3-0.9l0.9-1.9l-0.4-1.4l0.6-0.9l0.1-1.2
		L114.5,56z"/>
	<path id="TR-05" class="st0" d="M131.6,19.4l1.7,0.2l0.6,0.7l1.8-0.3l0.9,0.5l0.5-0.4l0.2,0.4l0.5-0.3l0.5,1.3l1,0.5l-0.1,0.6
		l0.3,0.4l1.5,0.1l0.5,0.5l1.7-0.4l2.3,1l0.6-1.7l0.4-0.1l0.3-0.7l1.9,0.7l0.1,0.4l-0.6,0.6l1.6,0.6l0,0l0.2,0.6l1.1,0.6l-1.1,1
		l0.1,0.8l-0.4,0.7l-1.9,0.1l0.1,0.4l0.9,0.1l-0.7,0.6l-0.3,0.7l-1.8,0.8l-0.4,0.5l-1.3-0.5l0-0.3l-0.6-0.3l-1.9,0.1l-0.4,1
		l-0.9,0.5l-0.1,0.6l-0.8,0.6l-1.6,0.4l-1.6,1l0,0l-0.9,0.2l0,0l0.8-1.3l-0.7-0.5l0.5-0.9l-0.2-0.6l0.6-0.3l0-0.6l0.5-0.4l0.2-0.7
		l-0.8-1.4l-1.5-0.4l0.1-1.2l-1.9-0.1l-1.3,0.4l-1.3-1l-0.1-1.1l1-1.9l-0.9-1.1l1-0.8L131.6,19.4z"/>
	<path id="TR-06" class="st0" d="M96.2,26.1l1.3-0.1l2.5,1.5l1.6,0.4l0.2,0.5l-0.3,1.2l1.3,0l1.8,0.7l1.5,2.5l0.8-0.4l0.5-0.8
		l0.9,0.2l0.4,0.5l1.2-0.1l2.2,0.4l0.3,0.4l0,0l-0.8,0.2l0,0.5l-0.7,0.7l0.2,0.2l-0.4,0.8l0.2,0.4l-0.3,1.5l0.4,0.6l-0.8,0.8
		l-2.3,0.8l-0.8,2.3l-0.4,0.1l0.1,1.2l-1.1,1.8l1.9,1.6l0.2,2.3l-0.2,0.8l0.5,0.2l0,0l0.7,1.1l-0.4,0.4l0.9,0.5l0.9,1.7l1,0.4
		l1.5,1.3l0.1,0.5l1.4,0.1l0.2,0.3l0,0l-0.4,0.9l-0.1,1.2l-0.6,0.9l0.4,1.4l-0.9,1.9l-2.3,0.9l-1.3,0l0,0l-1.5-2.3l-0.4-2.5l0.1-2
		l-2-1.2l-0.8-1l-0.3-1.7l1-0.5l-0.2-0.5l-1.1,0.3l-1.2,1.1l-0.4-0.3l0.1-1.3l-0.2-0.2l-2.1,0.6l-0.4,0.6l-0.3,1.5l-0.9,0.5
		l-0.1,1.3l-1.1,0.7l-1.4-0.6l-0.8,1.1L95,57l-0.9-0.1L93,56.1l-0.8,0.4L91.8,56l-1.1,1.5l-1.4-0.1l-0.6-0.6l-1.2-2.4l-0.4-0.2l0,0
		l0.1-0.8l2.1-2.3l0-0.4l-0.9-0.4l0.3-0.5l-0.4-0.5l0.2-1.4l-0.6-0.2l0.1-0.5l-0.6-0.7L87,44.7l-0.9-1.2l0.6-1.5l0.4-0.4l-0.7,0.1
		l0.3-0.4l-0.2-0.2l-0.7,0.1l-0.5-0.4l-0.4-0.6l0-0.6l-0.6-0.3l0.2-0.6l-0.7,0.2l0.1-0.8l-0.7,0.5L82,38.3l-0.5,0.3L81,38.2
		l-0.9,0.5l-0.2-0.3l0.6-0.2L80,37.8l-0.7,0.3l-1-0.3l-1,0.3l-1.1-0.5L75.9,38l-1,0.1l-0.1,0.3l-1.1,0l-1.2-0.6l-0.4-1.6l0,0
		l1.4-0.8l2.8-3.2l1.5,0.2l2.5-0.4l0.3,0.2l0.2,0.8l2.1,0.3l2.1-0.4l2.1,0.1l1-0.8l1-0.2l1.1,0.2l0.6,0.6l1-0.1l0.3-0.6l-0.8-1.2
		l0.4-1.3l0.7-0.5l2.6-0.8l0-0.4l-0.5-0.6l0.1-0.5l0.4-0.4L96.2,26.1z"/>
	<path id="TR-07" class="st0" d="M79.3,84.2l1.1,1.1l3,0.7l0.9-0.1l1.2-0.7l0.6,0l0.4,1l0.7,0.7l0.8,2.3l1.4,2l2.5,1.2l0.5,0.6
		l0.3,1.5l1.7,1.1l0,0L94,97.3l0.2,0.6l2,2.1l0,0l1.2,3.5l-0.8,2.1l0.3,0.8l-0.6,1.2l0,0l-1-0.2l-2.6-2.1l-1.9-3.2l-2-2.1l-0.5,0.2
		l-0.4-0.5L85.3,99l-0.5-0.6l-1.1-0.2l-1.6-1.1l-2.3-0.9l0-0.3l-0.8-0.5l-4.5-0.8l-3.4,0.2l-0.9-0.7l-0.9,0.5l-0.8,1l-0.3,3.1
		l0.5,0.5l-1.2,2.1l0,0.5l-0.4,0.1l-0.1,0.6l0.7,1.1l-0.9,0.4l0.3,0.6l-1.1,1.2l0.1-1l-0.6,0l-1.2-0.8l-1.3,0l-0.5,0.2l0,0.5
		l-0.2-0.1l-0.3,0.5l-0.8-0.5l-0.1,0.4l-0.9,0.6l-0.8-0.3L59,106h-0.6l-0.6,0.5l0.4-0.1l-0.7,0.5l-0.3-0.1l0.3-0.2l-0.8-0.1
		l-0.6,0.5l-0.7-0.6l0.3-0.1l-0.1-0.4l-0.9,0.2l0.7-0.3l-3-0.3l0.1-0.6l-0.4-0.1l-0.3,0l-0.2,0.6l-1.2-1.1l0,0l0.7-0.5l0-1.2
		l0.3-0.1l-0.2-0.8l1-0.6l1.7-0.1l0.8-0.7l0.7-1.3l1.3-0.8l0.4-1.1l0-2.1l0.8-1.4L57.8,93l-0.5-0.5l0,0l1.2-1.1l-0.2-1.3l0.3-0.6
		l1.5-1.3l1.1-0.4l2.2-1.7l1.9-0.1l2.4,1.4l4.2,0.1l0.5-0.3l1.1-2.2l-0.4-0.5l0,0l0.9,0l1.2,1l1.4-1L79.3,84.2z"/>
	<path id="TR-75" class="st0" d="M237.3,9.6l1.1,0.5l0.8-0.1l-0.5,1.6l0.7,0.5l0.2-0.5l0.5-0.1v0.4l0.9,0.5l0.7,1.4l1,0.3l0.6,0.7
		l1.1,0.3l0,0.3l-1.2,0.7l0.9,0l0.5,1.4l1.6-0.5l1.4,0.5l0.4,1l-0.4,0.5l0.3,0.5l0,0.7l0.7,0.3l0,0l-0.6,0.6l-1.5,0.1l-0.6,0.4
		l-2.2-0.1l-1,0.4l-0.7-0.3l-0.8,0.8l-1.2,0.6l-0.1,0.6l-1.5,1.6l-0.2,1.2l-1.2,0.1l-0.4,0.5l0,0l-0.6-0.1l-0.8-1.8l-2.4-0.6l-1-1.9
		l0,0l0.8-0.7l0.3-0.8l-0.6-0.6l-0.5-1l0.6-0.5l0.3-1.1l1.7-0.9l1.2-1.4l-0.5-1.3l-0.7-0.6l0.1-1l0,0V12l0.8-0.7l0.1-1l0.3-0.4
		L237.3,9.6z"/>
	<path id="TR-08" class="st0" d="M227.3,11.1l0.8,0.5l1.9-0.4l0.4,0.4l1.1,0l0.6,0.5l1,0l0.7,0.5l0.9,0l0,0l-0.1,1l0.7,0.6l0.5,1.3
		l-1.2,1.4l-1.7,0.9l-0.3,1.1l-0.6,0.5l0.5,1l0.6,0.6l-0.3,0.8l-0.8,0.7l0,0l-1.1-1.1l-3.1-0.1l-1.8,1.7l0.2,1.9l-0.9,0.9l-0.1,1
		l-0.6,0.5l-0.6,0l-0.1-1l-0.3-0.1l-2.5,1.1l-1.8,1.3l-0.5-0.1l-0.2-0.7l0-1.2l0.5-0.3l0-0.3l-0.8-0.8l-2.5-1.1l0,0l1.2-1.7l0.3-1
		l1.6-1.8l0.9-0.6l-1.9-2.6l-0.1-1l-0.4-0.8l0,0l1.9-0.8l2.1-2.6l1.2,0.6l1.1-0.2l0,0.4l1.1,0.2l0.5,0.5l0.8-0.5l0.6-0.9L227.3,11.1
		z"/>
	<path id="TR-09" class="st0" d="M41.6,73.3l0.9,0.4l0.5,0.6l1.5,0.3l-0.5,1l-1,0.1l0.2,1.9l0.5,0.7l1.5,1l-0.8,1l-0.3,1.1L42,83.2
		l-0.2,1.4l-0.2,0.2l0,0l-0.5,0.1l-1.8-1.3l-3.1-0.1L36,82.7l-1.8,1.4l-2.5-0.2L30,84.2l-1-0.9l-0.9,0.1l-1.4-0.6l-1,0.2l-0.9,0.7
		l-0.2,1.3l0,0L24.1,85l-0.3,0.6l-0.4-0.1l0,0.6l-0.5-0.2l-0.5,0.4l-0.8-0.3l0.5-0.9l0-1.2l-0.4-0.3l-0.1-1l-0.3,0l0.7-0.7l-1.3-0.8
		l-1.7-0.5l0.4-0.5l0.9,0.2l1.9-0.8l0.5-1.5l-0.5-0.5l0.4-1l0,0l1.1,0.5l0.3,0.8l0.9-0.7l0.2-1.4l1.2-0.8l0.9,0l1.8,0.9l4-1.2
		l3.4-0.3l0.7-0.5l0.2-0.6l1-0.3l1.2,0.6l0.4-0.7l0,0L41.6,73.3z"/>
	<path id="TR-10" class="st0" d="M13.7,49.9l0.6,0.1l-0.6,0.3l0.4,0.1l0.2,0.4l0.4-0.2L14.5,51l-0.9,0.1l-0.1-1L13.3,50L13.7,49.9z
		 M27.5,29.7l0.4,0.3l-0.2,0.4l0.4,0l0,0.4l-1.2-0.3l0.1-0.4l0.4,0l-0.1-0.5L27.5,29.7z M29.3,29.4l0.3,0l0.1,0.4l1-0.2l2.4,0.7
		L33,30.8l-1.7,1.1l0.8,0.6l2.6-0.7l0,0l0.7,1l0,0.7l-1.1,1.8L35,36l0,1.4l0.5,0.6l0.2,1l0.6,0.6l0,1.1l0.5,0.8l0.5,0.4l1.3,0.1
		l0.7,0.8l1.6,0.9l0.9-0.2l0.5-0.5l0.5,0.1l0.2,1.9l0.5,0l0.3,0.8l2.8,0.3l0,0l0.1,0.5l-1,1l0.3,2.2l-2.1,2.4l-2.4,0.4l0.5,1.4l0,0
		l-1.2-0.1l-2.4,1.3L37,54.9L36,55.7l-0.6,0.1L34,53.7l-1.5-1.2L32,51.3l-0.5-0.5l-1.4,1l-1.2-1.2l-2.1,0.4l-1.6-1.3l-0.8,0.5l0,0
		l0,0l0,0l-2.2,0.5l-1.1-0.3l-1.2,0.4L18.8,52l-2.3,0.8L15.6,54l0,0L15,52.3L13.4,52l0.6-0.8l0.1,0.3l-0.3,0.1l0.6,0.3l-0.1-0.4
		l0.5-0.6l1.4-1l-0.1-0.7l0.8-0.1l0-0.7l1-0.1l0.3-1.2l-0.4-0.5l-0.6-0.1l-0.6,0.5l-0.9-0.2L13.9,47l0,0l0.1-1l0.9-1.2l1.5-0.3
		l1.1-0.8l1.3,0.1l1.2,0.6l1-0.1l2.2,0.6l1.1-1.1l1.7-1l0.3-0.5l0.2-1.8L25.6,39l0-1.1l-1.1-1l0.9-1.5l1-0.7l0.2-0.6l-0.2-0.5l0,0
		l1.3-0.5l0.6,0.4l1.1,0l1.7-1.2l-0.8-0.5L29.9,32l-0.7-0.8l0-0.4l-0.9-0.4l0-0.5L29.3,29.4z M26.3,29.3l0.3,0.2l-0.4,0.4l0.2,0.2
		l-0.7,0.4l0.1-1l0.3-0.3L26.3,29.3z M27.8,26.8l1.4,0.6l-1.9,1.1l-1.1-0.4l0-0.9L27.8,26.8z"/>
	<path id="TR-74" class="st0" d="M98.6,5.1l0.2,0.7l0.5,0.4l-0.3,0.8l0.3,0.5l0.9,0L101,7l0.5,0.3l-1.1,2.8l0,0l-0.7,0.1l-0.4,0.7
		l-1.9,0.8l-0.1,0.4l0.6,1.6l-0.4,1l-0.7-0.5L96,14.7l-0.8-0.3l-1.3,0.9l-1.8-0.5l0,0l0.5-1.1v-0.8L92,12.1l0-1L91.1,11l-0.8-1.3
		l0,0l2.1-2.3l0.7,0l0.7-0.5l0.4,0.2l1.2-1.1l1-0.2l0.1-0.3l1.3-0.1L98.6,5.1z"/>
	<path id="TR-BM" class="st0" d="M220.5,64.7l1.8,1.1l-0.3,1.9l0.6,2l0.7,0.8l0,0l-1.1,2.2l-2.2,0.9l-1.7,1.7l-0.2,0.7l3.2,2.4
		l0.4,0.8l1.7,0.6l0.8-0.2l0.7,0.5l0,0l0,0l0,0l0,0l0,0l-0.7,0.6l-2,0.2l-1.4,1.3l-2.1,1l-3.8,0.3l-1.1-3.8l0,0l0.7-1l-1-0.4l0.3-1
		l1.5-2.2l0.8-2.2l0.9-0.9l-0.8-0.6l0.1-2.3l1.5-2.8l1.2-0.4l0,0l1.1-0.2L220.5,64.7z"/>
	<path id="TR-69" class="st0" d="M207.9,29.1l-0.5,1.9l0.3,1l-0.9,2.7l0.5,0.5l2.2,0l0,0.8l-0.6,0.9l-2.6,1.6l-1.8-0.1l0,0l-5.2-0.2
		l-1,0.5l-1.1,1.1l0,0l-1.3-1.3l1.5-1.9l1-2.4l-0.1-2.4l0.4-1.2l4.8-0.8l0,0l2.9-0.3l0,0L207.9,29.1z"/>
	<path id="TR-11" class="st0" d="M60,29.6l0.9,1.7l0.4,0.1l0.5-0.5l0.6,1l0.7,0.5l0.8,0.2l1.4-0.5l0.7,0.4l1.1-0.5l0.6,0.6l0.7,0
		l0,0l1.6,3.9l0,0l-1.1,0.4L67,38.6L66.2,39l-0.3,0.6l-0.8,0.6l-0.6,1.3l-2.2,0.4l-1.1,1.4l-0.4,1.3l0,0l-2-0.1l-0.5-0.3l-1.2-1
		l-0.6-1.9l0,0l1.2-1.2L57,39.3l-0.1-0.5l0.4-0.4l-0.2-2l0.8-0.5l-0.1-1.1l0.5-0.6l0.2-1.9l0.6-0.7L59,30.2L60,29.6z"/>
	<path id="TR-12" class="st0" d="M205.5,47.7l2.4-0.2l1,0.3l0,0l-0.3,0.7l0.5,0.5l0.9,0.2l4.5-0.5l1.7,1.6l0,0l-0.6,0.8l0,1l1.3,2.2
		l1.2,0.7l0.2,0.7l-0.2,0.5l-1.5,0.6l-0.9,1.1l-0.3,1.9l0.2,2.1l0,0l-2.5,0.8l-0.9,1.3l-0.9,0.5l-2-1l-0.2,0.9l-0.4,0.2l-1.3-0.9
		l-1.1-0.1l-0.9,0.9l0,1l-0.3,0.3l-1.4,0.3l0,0l-1.7-3.4l0.8-0.6l0.4-0.7l1.4-0.1l0.4-0.3l-0.2-0.6l-1.3-0.9l-0.4-1.1l0.1-0.7
		l-0.3-0.3l0.7-1.1l0-1l1-1.1l0-0.7l-0.4-0.3l-1.1,0.6l-1.6,0.3l-1.4,0.9l-1.3,0l0,0l0.7-2.4l0.9-0.8l-0.4-1.4l2.5,0.2L205.5,47.7z"
		/>
	<path id="TR-13" class="st0" d="M241.4,56.4l1.1,0.9l0.3,0.8l1.7,0.8l0.1,0.5l-0.7,1.1l-1.9,1.1l-1.4,1.3l-2.2,3.3l-0.1,2.1
		l-1.6,1.1l0,0.4l0.6,0.4l0.1,0.8l-0.6,3.4l0,0l-0.2,0.4l-0.8,0.3l0.1,0.3l-0.5,0.4l-0.2-0.4l-1-0.4l-3.4-3.9l-1.4,0l-1.2,0.7
		l-0.5,0l-0.3-0.1l0-0.4l-1.5,0.3l-0.6-0.2l-0.4-0.7l-1.5,0l0,0l-0.7-0.8l-0.6-2l0.3-1.9l-1.8-1.1l0,0l0.1-0.3l1-0.5l2.6,0.1
		l2.4,0.6l0.4-0.9l2-1.8l-0.1-1.2l0.7-0.4l0.3-1l0.5-0.6l3.4-1l3.4,0.3l0,0l1.6,0.2l1.8-0.8l0.1-0.9L241.4,56.4z"/>
	<path id="TR-14" class="st0" d="M91.4,19l1.7,0.2l0,0l0.7,2.3l0,1.2l1.6,0l1,1.6l-0.3,1.9l0,0l-1.1,0.2l-0.4,0.4l-0.1,0.5l0.5,0.6
		l0,0.4l-2.6,0.8l-0.7,0.5l-0.4,1.3l0.8,1.2l-0.3,0.6l-1,0.1l-0.6-0.6L89.1,32l-1,0.2l-1,0.8l-2.1-0.1l-2.1,0.4l-2.1-0.3l-0.2-0.8
		L80.3,32l-2.5,0.4l-1.5-0.2l-2.8,3.2l-1.4,0.8l0,0L71.5,36l-1.6,0.4l0,0l-1.6-3.9l0,0l0.3-0.6l-0.1-2l2.3,0.1l1.9-0.4l0.8-0.8
		l-0.6-1.2l0.5-0.8l0,0l2.2,0.3l1.5-0.2l1-1.5l0.4-1.3l2.1-0.9l0.3-2.5l0,0l1.6-0.6l2.6,0l1.1,0.5L91.4,19z"/>
	<path id="TR-15" class="st0" d="M62.2,78.2l1.7,0.2l2.5-0.9l0.4,0.6L66.5,79l0.2,0.5l1.2,0.2l1.2-0.2l1.8,1l0.3,1.7l1.1,1.1
		l0.2,1.1l0.5,0.1l0,0l0.4,0.5l-1.1,2.2l-0.5,0.3l-4.2-0.1L65.3,86l-1.9,0.1l-2.2,1.7L60,88.2l-1.5,1.3l-0.3,0.6l0.2,1.3l-1.2,1.1
		l0,0l-1.2-0.4l-1.5,0.6l-1,2.5l-0.4-0.1l-0.2,0.5l-0.9-0.3l0.4-0.9l-0.8,0L51.4,94l0,0l0.6-1.5l-0.5-0.8l0.1-0.5l1.4-0.9l0.2-1.8
		l0.5-1.1l2.1-2.1l-0.3-0.6l-1.5-0.9L54,83.5l0.5-0.7l-0.5-1.2l0.2-0.4l1-0.3l1.4,0.3l-0.3-0.9l0.2-0.3l2-0.7l0.9-1.2l0,0L62.2,78.2
		z"/>
	<path id="TR-16" class="st0" d="M40.5,28.7l-0.4,1l-0.1-1L40.5,28.7z M52.8,28.9l1.5,0.3l3.5-1.1l2.4,0.6l0,0L60,29.6l0,0L59,30.2
		l0.1,1.4l-0.6,0.7l-0.2,1.9l-0.5,0.6l0.1,1.1l-0.8,0.5l0.2,2l-0.4,0.4l0.1,0.5l0.8,0.9l-1.2,1.2l0,0l-1.7,0.1l-0.6-0.5L53,40.5
		l-0.5,2.1L51,43.9l-0.3,0.9l-1,0.7l-0.3,0.6L46.6,46l0,0l-2.8-0.3l-0.3-0.8l-0.5,0L42.8,43l-0.5-0.1l-0.5,0.5l-0.9,0.2l-1.6-0.9
		l-0.7-0.8l-1.3-0.1l-0.5-0.4l-0.5-0.8l0-1.1L35.6,39l-0.2-1L35,37.4l0-1.4l-0.6-0.6l1.1-1.8l0-0.7l-0.7-1l0,0l5.2-0.1l2.1,0.6
		l1.8-0.6l2.6,0.7l1.1-0.1l0.5-1l0.8-0.1l-1-1l-0.8,0l-0.8,0.4l0,0l0.2-1.8l3,0.6l1.7-0.6L52.8,28.9z"/>
	<path id="TR-17" class="st0" d="M5.8,41.8l0.3,0.7l-0.4,0.2l-1.3-0.7l0-0.3L5.8,41.8z M4.2,34.7L4.6,35l-0.1,1.2L5.1,36l-0.2,0.5
		l-3.5,0.7l-1-0.6l0.1-0.5l1.6-1L4.2,34.7z M23.1,30.8l0.4,0.7l-0.4,0.2l0.3,0.5l1.6,0.9l1.4,0.4l0,0l0.2,0.5l-0.2,0.6l-1,0.7
		l-0.9,1.5l1.1,1l0,1.1l0.9,1.4l-0.2,1.8l-0.3,0.5l-1.7,1L23,45l-2.2-0.6l-1,0.1l-1.2-0.6l-1.3-0.1l-1.1,0.8l-1.5,0.3L14,46l-0.1,1
		l0,0l-2.3,0.5L10.2,48l-0.1,0.3l-1.1-0.1l-0.7,0.4L8,48.5l-1.2,0.4l-0.9-0.3l0.5-2.1l0.5-0.4l0.3-0.9l-0.3-1.8l0.3-1.1l-0.4-0.4
		l0.6-2.7l0.2-0.3l1,0.1l0.7-0.3l0.6-1.5l0.6-0.3l-0.1-1.4l1.7-0.5l0.6-1l0.5-0.1l2.1-2.2l2.2-0.1l0.7,0.4l1.1-0.2l0.7-0.9l0.9-0.2
		l0.7,0.3l1.1-0.7L23.1,30.8z M15.9,25.2l2-0.1l1,0.4l-1.1,2.6l0,1l0,0l-3.2,1.6l0,0.6l-0.8,0.3l-0.1,0.7l-0.6,0.8l-1,0.6L10.8,35
		l-0.9,0.3l0.3,1.1L9,37.4l-1.7,0.7l1.4-2.7l0.1-0.9l-0.7-0.8l0.3-0.3L8,33.2l1.6-0.8l1.7-1.4l2.1-1.1l1.2-0.1l0.7-0.9l0.3,0.2
		l0.9-0.7l-0.4-1.3l-1.3,0.2l0,0L15.9,25.2z"/>
	<path id="TR-18" class="st0" d="M101.6,17.7l1,0.2l0.9,1.5l1.5-0.1l2.1,1l2-1.1l0.8,0.8l0.6,0.1l2.2-0.5l1.7-0.8l0,0.6l-0.9,1.7
		l0,0.5l1.3,1.6l2.5,0.7l0,0l-0.3,1.8l1.3,1.1l-0.4,0.9l0.2,0.9l-0.3,0.6l0.5,0.6l0.1,1.2l-1.1,1.9l-0.7,0.7l-1,0.4l0,0l-1.5-0.1
		l-0.7-0.7l-1.2-0.2l0,0l-0.3-0.4l-2.2-0.4l-1.2,0.1l-0.4-0.5l-0.9-0.2l-0.5,0.8l-0.8,0.4l-1.5-2.5l-1.8-0.7l-1.3,0l0.3-1.2
		l-0.2-0.5l-1.6-0.4l-2.5-1.5l-1.3,0.1l0,0l0.3-1.9l-1-1.6l-1.6,0l0-1.2l-0.7-2.3l0,0l3.2,0.7l0.5,0.8l0.9-0.9l1.6,0.6l0.3-1.4
		l-0.3-0.9l1.5,0l0.5-0.4L101.6,17.7z"/>
	<path id="TR-19" class="st0" d="M129.5,14.8l0,0.8l0.9,2l-0.7,1.2l0.6,0.5l1.3,0.1l0,0l0,0.7l-1,0.8l0.9,1.1l-1,1.9l0.1,1.1l1.3,1
		l1.3-0.4l1.9,0.1l-0.1,1.2l1.5,0.4l0.8,1.4l-0.2,0.7l-0.5,0.4l0,0.6l-0.6,0.3l0.2,0.6l-0.5,0.9l0.7,0.5l-0.8,1.3l0,0l-1.2,0.4
		l-0.7,0.9l-0.8-0.6l-0.4,0.1l0.7,1.2l-0.7,0.6l0.7,1.2l-0.3,0.5l-3.6,0.3l-0.1-0.8l-0.3-0.2l-1.2,1.3l-1.8,0.1l-0.9,0.4l-0.9-0.2
		l-0.6-0.6l-0.6-0.1l-1.3,0.9l-0.4,0.6l-1.7-0.2l-1.2,0.4l-0.1-0.6l0,0l0.1-0.3l-0.9-1.5l0.2-0.8l-0.3-0.9l0.2-0.8l-1.3-0.5l-0.5-1
		l0,0l1-0.4l0.7-0.7l1.1-1.9l-0.1-1.2l-0.5-0.6l0.3-0.6l-0.2-0.9l0.4-0.9l-1.3-1.1l0.3-1.8l0,0l2.2-0.6l1.1-2.6l0.8-0.4l-0.5-1.2
		l-0.7-0.3l-0.9,0.1l-0.1-1.9l1.5-1.2l0.1-0.8l0.9,0.2l0.1,0.5l0.8-0.7l0,0l0.7-0.3l1.1,0.7l0.4,0.9l0.8,0.5l0.9,0l0.9-0.7l1,0
		L129.5,14.8z"/>
	<path id="TR-20" class="st0" d="M57.8,65.7l0.7,0.5l0.6,0l0.5,0.5l0.6,0.1l0.4,0.6l0.9,0.4l0.8,2.3l-0.9,0.8l-0.6,1l-1.5,0.1
		L58.4,73l-1.8,1.6l-0.1,1l0.5,1l2.6,1.5l0,0l-0.9,1.2l-2,0.7l-0.2,0.3l0.3,0.9l-1.4-0.3l-1,0.3l-0.2,0.4l0.5,1.2L54,83.5l0.1,0.4
		l1.5,0.9l0.3,0.6l-2.1,2.1l-0.5,1.1l-0.2,1.8l-1.4,0.9l-0.1,0.5l0.5,0.8L51.4,94l0,0l-0.8,0.5l-1.3,0.2l-1-0.4l-0.4-1.1l0-1.3
		l-1-1.4L47,89.4l-1.4,0.2l-0.9-0.3l-0.6-1.2L43,87.4l0-0.9l-0.5-0.7l-0.7-0.1l-0.2-0.9l0,0l0.2-0.2l0.2-1.4l2.1-1.8l0.3-1.1l0.8-1
		l-1.5-1l-0.5-0.7l-0.2-1.9l1-0.1l0.5-1L43,74.3l-0.5-0.6l-0.9-0.4l0,0l1.5-0.9l0.5-1.2l0.8-0.7l0,0l4.7,0l0.5,1.1l0.2-0.8l0.4-0.1
		L50,70.3l1.2-1.3l3.9,0.9l0.4-0.6l-0.1-2L57.8,65.7z"/>
	<path id="TR-21" class="st0" d="M215.5,61.8l0.8,0.6l0.9-0.4l-0.1,1l0.4,1.5L218,65l0.6-0.1l0.1,1l0,0l-1.2,0.4l-1.5,2.8l-0.1,2.3
		l0.8,0.6l-0.9,0.9l-0.8,2.2l-1.5,2.2l-0.3,1l1,0.4l-0.7,1l0,0l-0.3,0.8l-1.3,0.3l-2.8-0.8l-0.2,0.8l0.3,1.1l-0.3,0.5l-3-0.8
		l-0.2,0.6l-2.3,0.9L203,83l-1.6-1l-1.9,0.9l-0.8,0l0,0l-1-1.2l-0.2-3.4l-0.6-1.5l-1.2,0.3l-0.8,0.9L194,77l-1.9-0.3l-1.1-1.3
		l-2.8-1.1l0,0l0.8-0.8l0.6-1.5l-0.5-1l-1.1,0.4l0,0l-0.5-0.3l0.4-0.5l0.2-1.2l0,0l2.2-0.7l0.6,0.4l0.7-0.2l0.9,0.9L193,70l0.5-1.4
		l1.8,0.1l1.8-0.9l1,0.5l0.6-1.5l0.6-0.4l3,0l1.2-0.3l0,0l1.4-0.3l0.3-0.3l0-1l0.9-0.9l1.1,0.1l1.3,0.9l0.4-0.2l0.2-0.9l2,1l0.9-0.5
		l0.9-1.3L215.5,61.8z"/>
	<path id="TR-81" class="st0" d="M78.8,18.5l0.6,2l0.8,0.2l0.8-0.2l0,0L80.6,23l-2.1,0.9l-0.4,1.3l-1,1.5L75.6,27l-2.2-0.3l0,0
		l0.5-0.9l-1.3-0.7l-0.1-0.4l0.2-0.7l0.7-0.6l-0.5-0.7l-0.8,0.1l-0.2-0.3l0.5-0.7l0.9-0.2l1-0.8l0.7-1l-0.5-0.5l0,0L78.8,18.5z"/>
	<path id="TR-22" class="st0" d="M18.4,2.2l-0.1,3.2l0.5,1.1l-0.5,1.1l0.1,0.9l-0.8,1.1l0.3,0.3l0.6-0.6l0.4,0.4l-0.7,1l0.1,0.5
		l-0.8,1.3l0.4,1.5l-0.4,0.8l0.5,0.4l0,0l0.3,1.6l-0.8,1.4L16,19.5l-1.5,0.2l-0.3,0.4l0.7,0.6l-0.4,2.8l1.3,1.7l0,0l-1,2l0,0
		l-1.5,0.1l-1.1,0.8l-1.1-0.4l-0.6,0.3l-0.5-0.2l-1,0.3l-2.2,0l-1.1-0.6l-0.5-1.9l1.3-0.3l0.3-0.9l1-0.9l-0.1-0.4l0.2,0v-0.4
		l0.4,0.2l0.2-0.6L9,22.7L8.9,22l1-0.2L9.4,21l0.6-0.6L9.5,20l-0.2-0.6l0.3-0.7l-0.4-0.1l0.5-0.6l-0.4-0.6l0.2-0.2v-1.3l1.1,0
		l1.6-1.6l0.9,0.3l0.6-0.5l-0.5-4.8l-0.9-0.2l-0.6-0.6l0.1-0.3l-1.7-0.5L9.5,7.1L10,5.6l2.4-0.1L13,4.6l-0.3-1l0.9-1L15.4,3l0.5-0.6
		l0.8,0.4L17,2.4L18.4,2.2z"/>
	<path id="TR-23" class="st0" d="M198.4,55.1l1.3,0l1.4-0.9l1.6-0.3l1.1-0.6l0.4,0.3l0,0.7l-1,1.1l0,1l-0.7,1.1l0.3,0.3l-0.1,0.7
		l0.4,1.1l1.3,0.9l0.2,0.6l-0.4,0.3l-1.4,0.1l-0.4,0.7l-0.8,0.6l1.7,3.4l0,0l-1.2,0.3l-3,0l-0.6,0.4l-0.6,1.5l-1-0.5l-1.8,0.9
		l-1.8-0.1L193,70l-0.6-0.2l-0.9-0.9l-0.7,0.2l-0.6-0.4l-2.2,0.7l0,0l-0.6-0.9l-2,0.4l-1-0.7l-1-1.4l-1.9,0.4l-3.2-1l-1-1l-0.1-1.6
		l0.8-1.1l0.7-0.4l0.1-0.9l0.5,0.1l0.4-0.3l1.2,0.4l0.3-0.2l-0.8-2.7l0.3-0.4l-0.1-0.7l1.1-1.2l0,0l0.5,0.3l0.4-0.3l0,0l0.5,0.5
		l0.1,0.6l-0.6,1.1l0.2,0.5l1.4,0.5l1.5-0.8l4.1,0.7l0.6,0.7l0.9,0.3l0.2,0.6l0.6-0.3l0.7,0.4l0.3-0.1l0.3-0.8l2,0l1.2-0.3l0.6,0.2
		l0.2-1l0.7-0.7l0.4-1.7l-0.6-0.8L198.4,55.1z"/>
	<path id="TR-24" class="st0" d="M182.4,37.6l3.2,0.3l0,0l1,0.8l2.3,0.6l0,0.8l1,0.1l2.2,1.1L195,41l2.1-1.3l0,0l1.1-1.1l1-0.5
		l5.2,0.2l0,0l-1.1,0.9l-0.1,1.1l2.1-0.1l0.3,0.4l1.9,0.7l0.3,0.9l-0.5,0.8l0,0.5l2.1,1.1l0.2,0.4l-0.4,1.1l0.9,1l-0.2,0.4l-0.9,0.3
		l0,0l-1-0.3l-2.4,0.2l0,0l-1-1l-2-0.4l-1.7,0.6l-0.6-0.4l-2.6-0.7l-0.6,0.2l-0.5,1.8l-0.6,0.4l-3-0.4l-2,0.6l-2.5-0.4l-2.8,1.3
		l-1.6,1.3l-0.1,0.6l0.3,1l-0.7,0.5l-1.1,0.2l-0.3,0.4l0.4,0.4l-0.4,0.8l0.3,1.8l0,0l-0.4,0.3l-0.5-0.3l0,0l-1.3-1.3l-1.1,0
		l-0.9-0.6l-1,0.6l-0.8-0.7l0,0l1-2l-1-1.8l0.9-0.2l0.2-0.6l-1-0.6L176,48l0.6-1.3l-0.3-1.7l0.6-1.8l1.5-1.1l-1.4-1.2l0-0.8l0.9-0.7
		l1.6,0.2l1.1-0.9l1.4-0.2L182.4,37.6z"/>
	<path id="TR-25" class="st0" d="M215.7,23.9l2.5,1.1l0.8,0.8l0,0.3l-0.5,0.3l0,1.2l0.2,0.7l0.5,0.1l1.8-1.3l2.5-1.1l0.3,0.1l0.1,1
		l0.6,0l0.6-0.5l0.1-1l0.9-0.9l-0.2-1.9l1.8-1.7l3.1,0.1l1.1,1.1l0,0l1,1.9l2.4,0.6l0.8,1.8l0.6,0.1l0,0l0.1,0.5l-1.4,1.1l-0.8,1.1
		l-0.4,1.3l0.4,0.7l-0.3,0.5l-0.6,0.3l-1.3-0.1l-2.5,0.6l-0.7,0.8l0.1,0.5l1.7,1.3l0.2,0.5l1,0.1l1,0.8l0.4,1.2l1.6,0.7l0.2,0.8
		l-0.7,1.1l0,0l-2.9,1l-0.4,0.4l0.6,1.5l1.8,0.9l1,1l-0.2,0.5l-1.1,0.9l-0.5,1l0,0l-2.2,1.7l-0.3,1.6l-1.7,0.4l0,0.7l-1.4,0.9
		l-2.5,0.7l-2.4,0.1l-0.3-1.6l-2.3-1.6l-2.7-0.1l-0.8-0.3l0,0l-1.7-1.6l-4.5,0.5l-0.9-0.2l-0.5-0.5l0.3-0.7l0,0l0.9-0.3l0.2-0.4
		l-0.9-1l0.4-1.1l-0.2-0.4l-2.1-1.1l0-0.5l0.5-0.8l-0.3-0.9l-1.9-0.7l-0.3-0.4l-2.1,0.1l0.1-1.1l1.1-0.9l0,0l1.8,0.1l2.6-1.6
		l0.6-0.9l0-0.8l-2.2,0l-0.5-0.5l0.9-2.7l-0.3-1l0.5-1.9l0,0l3.6-1.7l2.6-2.4L215.7,23.9z"/>
	<path id="TR-26" class="st0" d="M72.2,36.2l0.4,1.6l1.2,0.6l1.1,0l0.1-0.3l1-0.1l0.2-0.4l1.1,0.5l1-0.3l1,0.3l0.7-0.3l0.5,0.3
		l-0.6,0.2l0.2,0.3l0.9-0.5l0.6,0.4l0.5-0.3l1.2,0.3l0.7-0.5l-0.1,0.8l0.7-0.2l-0.2,0.6l0.6,0.3l0,0.6l0.4,0.6l0.5,0.4l0.7-0.1
		l0.2,0.2l-0.3,0.4l0.7-0.1l-0.4,0.4l-0.6,1.5l0.9,1.2l0.5,1.9l0.6,0.7l-0.1,0.5l0.6,0.2l-0.2,1.4l0.4,0.5l-0.3,0.5l0.9,0.4l0,0.4
		l-2.1,2.3l-0.1,0.8l0,0l-0.3,0.3L86,54.5l-0.6,0.9l-2.6,0.3l0,0l-0.6-0.9l-1.2-0.3l-0.2-1l-1.5-1.4l-1.2,0.3l-1.3-0.9l-0.5,0.3
		L76,53l-0.7,0.1l-0.2,0.5l-1.1-0.5l-0.8,0.1l0.1,0.4l1,0.7L74,55l-2.7-0.3L70.7,56l-1.1-1.1l-1-0.5L68,52.8l-1.1-0.2l0,0l-0.8-0.1
		l-0.1-1l-0.7-0.6l0.3-0.7L65.3,49l0.4-0.6l-0.3-1.5l-1.5-0.8l-1-0.9l0.4-0.5l-0.2-0.3l-1.5,0.3l-0.8-0.2l0,0l0.4-1.3l1.1-1.4
		l2.2-0.4l0.6-1.3l0.8-0.6l0.3-0.6l0.7-0.4l1.8-1.9l1.1-0.4l0,0l1.6-0.4L72.2,36.2z"/>
	<path id="TR-27" class="st0" d="M166,82.9l0.6,0.3l1.5-0.5l0.6,0.6l2.6,0.1l1.9,0.8l0,0l-0.3,0.4l-0.4-0.2l-0.9,0.1l-1.4,1.6
		l0.2,0.3l-0.4,0.2l-0.3,0.9l0.6,0.8l-0.6-0.1l-0.1,0.3l0.6,1.2l-0.2,1.2l0.7,0.5l0.9-0.2l-0.2,1.2l0.5,0.4l0,0.6l0.6,0.8l-0.3,0.8
		l0,0l-1.2,0.2l-2.2,1.2l-1.7,0l-1.4,0.8l0,0l-0.5-1.1l-0.7-0.3l-1.3,0.1l-0.5-0.2l-0.3-1.3l-0.4-0.4l-2.5-0.6l-0.4-1.4l-0.6-0.1
		l-0.5,0.1l-0.9,1.1l-1.4,0.6l-0.8,1.7l0,0l-1.8-0.6l0,0l-0.8-1.2l-1.5-0.5l-0.5-1.1l0,0l3.1-3.7l0,0l0.8-0.1l0.2-0.6l0.8-0.3
		l1.2-1.3l0.9,0.4l1,1.2l1,0.1l1.6-2l3.3-0.4l-0.1-0.8l0.8-0.1L166,82.9z"/>
	<path id="TR-28" class="st0" d="M188.3,19.4l0,5.8l0,0l-1.7,0.7l-1.1-0.1l-1.4,0.8l-1.7,2.7l3.2,1.4l0.6,0.7l-0.2,2.2l-0.6,0.9
		l-0.5-0.2l-0.4,0.3l0.2,1.3l1,1.3l0,0.6l0,0l-3.2-0.3l0,0l-2-0.1l-0.9-0.4l-0.4-1.3l-0.9,0.6l-0.3-0.3l-0.6,0.3l-1.1-0.7l-1.4-0.3
		l-0.8-1.3l-0.1-2.2l0.3-1.3l-1.5-0.6l0,0l0.1-1.2l-0.5-0.8l0.3-0.6l-0.8-0.5l-0.5-1.3l0.7-0.6l-0.2-0.8l1-1.5l0.3-1.1l0,0l1.3,0.4
		l1.3-0.1l1,0.7l0.5-0.3l0.5,0.2l1.4-0.1l1.3-1l0.8,0.5l0.4-0.1l1.4-1.1l0.8,0l0.9-0.6l1.2,0.2L188.3,19.4z"/>
	<path id="TR-29" class="st0" d="M188.3,25.2l0.9,0.5l2,0.4L192,27l0.5,0.1l0.2,0.7l0.9-0.1l0.9,0.8l1.5-0.1l0.7-0.8l0.1-1.3
		l0.8-0.1l0.2,0.5l-0.3,1.1l1.5,0.6l0.3,0.6l1.1-0.5l-0.2-0.4l-1-0.4l0-0.5l1-0.1l0.7,0.5l-0.2,0.7l0.7,0.5l0.8-0.2l1.2,1l0,0
		l-4.8,0.8l-0.4,1.2l0.1,2.4l-1,2.4l-1.5,1.9l1.3,1.3l0,0L195,41l-2.9,0.3l-2.2-1.1l-1-0.1l0-0.8l-2.3-0.6l-1-0.8l0,0l0-0.6l-1-1.3
		l-0.2-1.3l0.4-0.3l0.5,0.2l0.6-0.9l0.2-2.2l-0.6-0.7l-3.2-1.4l1.7-2.7l1.4-0.8l1.1,0.1L188.3,25.2z"/>
	<path id="TR-30" class="st0" d="M248.1,78.6l1.6,0.4l2.6-0.7l1.9,0.2l1.7-0.4l0.9,0.5l0.4,0.9l1.9,0.2l0.7-0.5l1.3,0.1l0.6-0.3l0,0
		l1.4-0.2l0.9,0.9l0.1,0.5l-0.8,1l0.6,0.7l-0.5,2.7l0.8,0.3l0.3,0.7l0.9,0.2l0.2,0.6l0.9,0.6l0.2,0.6l-0.8,0.8l0.4,1.5l-0.4-0.4
		l-1.2,0l-0.5-0.4l-2.3,2l-1.7,0.5l0.3,0.3l-0.5,0.4l-0.1,0.6l-0.9-0.5l-0.3-1l-0.6-0.7l0.6-1.1l0.7-0.1l-0.1-1.4l-0.5-0.6l-1.4-0.7
		l-1.4,0.1l-0.1-0.2l-0.4,0.5l-0.5,0.1l-0.6,1.2l-0.9,0l-0.3,0.5l-0.4-0.6l-1.6-0.1l-0.7,0.3l-1.1-0.7l-0.8,0.3l-2.3-1.5l0,0
		l-0.1-2.6l-0.6-1.3l2-2.2L248.1,78.6z"/>
	<path id="TR-31" class="st0" d="M144.9,91.5l1.3-0.3l2.3,1l1-0.2l1,0.2l0,0l0.5,1.1l1.5,0.5l0.8,1.2l0,0l0.1,0.5l-0.8,1l0.2,0.7
		l-0.7,0.9l0.2,1.2l-0.7,1.7l0.3,1.1l0.3,0.5l0.3,0l0,1.2l0.1-0.2l0.6,0l0,0.7l0.5,0.1l-0.2,0.4l0.2,0.5l-0.4,0.3l-0.6-0.2l-0.1,0.4
		l-1.6-0.4l-0.5,0.7l-1.2-0.3l0.2,0.4l-0.4,0.4l0.3,1.5l-0.2,1.3l-0.5,0.3l-0.6-0.4l0,1l-0.5-0.2l-0.8,0.3l-0.6,2.4l-0.5-0.9
		l-1.6-0.3l0.1-1l-1.2,0.2l0.9-1.5l-1.2-2.5l-1.6-2.4l0-0.4l1-0.8l0.7-1.3l1-0.5l0.9-1.1l2.1-1.1l0.3-0.8l-0.3-1.8l0.2-0.7l-1.2-1.7
		l-1.5-0.8l0,0l-0.1-0.9L144.9,91.5z"/>
	<path id="TR-33" class="st0" d="M127.5,84l0.2,1.2l2,2.4l0,0.4l-0.7,0.6l0,0.5l0.7,0.4l0.3,0.8l0.6,0l1,0.6l0.5,2l0.2,2.3l-0.3,0.5
		l-1-0.2l-0.4,0.6l-0.2-0.2l0,0.4l-0.9-0.1l-0.1,0.3l-0.7,0.4l0,0l-0.5-0.8l-1.5-0.7l-1.5,0l-1.3,0.7l-1.8,1.8l-2.2,1.5l-1.4,1.9
		l-1.2,1l-0.1,1.6l-0.4,0.4l-0.5,0l-0.7,1.1l-0.4-0.9l-1-0.5l-0.4,0.7l-0.4,0l-0.3,0.7l-1.4,1l-0.2,0.7l-0.5-1l-0.8,0.3l-0.4,0.8
		l-1.3-0.5l-0.9,0.5l-0.7-0.4l-0.8,0.4l-2.1-0.1l-1,1.2l-0.4-0.4l-1.4-0.2l-1,0.5l-1,1l-1.9-0.5l-1.4-1l0,0l0.6-1.2l-0.3-0.8
		l0.8-2.1l-1.2-3.5l0,0l1.6,0l3,1.1l1.8,0.3l1.9-0.6l1.3-1.2l-0.9-1.1l-1-0.6l-0.7-1.2l0.2-1.5l-0.5-1.1l1-0.4l0.6,0.6l1.1-1
		l2.2-0.5l1.1,0.1l0.9-0.4l1.1,0.6l2.4-1.4l0,0l2.7-0.4l2.7-0.9L119,90l-0.1-1l2.3-0.7l2.6-1.4l-0.5-0.9l0.4-0.7l0,0l1.1,0L127.5,84
		z"/>
	<path id="TR-76" class="st0" d="M250.6,36.7l0.9,0.8l0.8-0.1l1.9,1.1l3.9-0.1l1.2-0.3l2,0.9l1.8,1.7l0,0.3l0.6,0.5l0,0.6l1.4,0.6
		l-0.1,0.4l0.8,0.5l0,0.5l0.8,0.6l-0.1,0.5l0.3,0.1l-0.2,0.4l-1.3-1.5l-0.7-0.1l-0.7-1.2l-2,1.8l0,0l-1.3,0.2l-1.8-0.8l-1.3,0.2
		l-1.4-0.5h-2.1l-1.2-0.9l-2.4-0.2l-1.1-0.9l-0.6,0.2l-0.6,0.9l-0.8,0.1l-0.2-2.4l-1-1.1l-1-0.3l0,0l1.4-2.3l1.5,0.3L250.6,36.7
		L250.6,36.7L250.6,36.7z"/>
	<path id="TR-32" class="st0" d="M62.2,78.2l0.7-1.5l-0.1-1.2l1.1-1.3l1.4-0.6l2.3-2.5l1.8-0.5l2-1.3l1-1.8l1.2-0.6l1-1l1.9-0.3
		l0.9,0.7l0.6,1l0.4-0.1l0,0l0.3,1l0.9,1.1l1.7,1.5l1,0.4l0.3,0.9l-0.1,1.4l-1,0.7l-0.2,0.9L80.4,76l-0.1,1.1l0.6,1.5l0,0.6
		l-0.1,0.3l-1.1,0.4l-0.4,0.6l0.4,1.9l-0.4,1.8l0,0l-2.8,0.4l-1.4,1l-1.2-1l-0.9,0l0,0l-0.5-0.1l-0.2-1.1l-1.1-1.1L71,80.5l-1.8-1
		L68,79.7l-1.2-0.2L66.5,79l0.3-0.9l-0.4-0.6l-2.5,0.9L62.2,78.2z"/>
	<path id="TR-34" class="st0" d="M50.5,16.5l4.4,1.1l0.3-0.2l3.2,0.8l1.3,0l0,0l0,0.9l-0.8,1.3l-0.5,0.2L57,20.2l-0.8,1.3l-1.3-0.3
		l-1.1,0.2l-2.4,2.9l0,0L51.1,24l-0.9,0.2l0.4-0.8l-2-0.9l-0.5-0.7L47,21.1l-0.2-0.8l0.6-0.5l0.2-1l0.4-0.3l-0.3-0.5l0.2-0.7
		l1.1-0.8L50.5,16.5z M35.2,10.2l1.3,1.4l4.9,2.6l0.9,0.2L46,16l1.8,0.1l0.5,0.3l0,0.5l-1,1l0.5,0.6l-1.2,2.2l-1.9,0.6l-0.2,0.3
		l-1-0.4l-2,0.4l-0.3-0.2L41,20.4l-0.3,0L40.3,21L38.6,20L36,19.3l-2.2,0.4l-1,0.6l0,0l-0.3-0.7l0.1-1l0.6-1.2l0-0.8l0.8-1.4
		l1.1-5.3l0,0L35.2,10.2z"/>
	<path id="TR-35" class="st0" d="M14.7,65.1l0.4,0.2l0.2,1.2l-0.7-0.4L14.7,65.1z M24.4,50.2l0.3,1.6l0.8,0.8l-0.2,1.4l1,2.7
		L26,57.7l-0.5,0.5l-1.5,0.6l-0.7-0.2l-1.8,0.9l0.1,0.4l-0.7,1.1l1.3,1.8l0.1,1.7l0.7,0.5l1.5-0.1l0.6,0.3l0.4,0.8l1-0.1l0.5,0.8
		l0.6-0.1l0.5,0.5l0.9,0.1l0.7,1.4l0.9,0l0.3,0.5l0.4-0.5l-0.2-1l0.6-0.1l0.5,0.4l1.4-0.3l1.4,0.6l0.4,0.5l1.2,0.2l1,0.9l1.8,0.6
		l-0.1,1.2l0.8,1l0,0l-0.4,0.7l-1.2-0.6l-1,0.3l-0.2,0.6l-0.7,0.5L33,74.5l-4,1.2l-1.8-0.9l-0.9,0l-1.2,0.8L24.9,77L24,77.8L23.7,77
		l-1.1-0.5l0,0l0.1-0.8L22.2,75l-1.5-0.1l-2.1-1.5l-1.1,0.2L17,74.1l-0.6-2.2l-0.8-0.3l0.3-0.4l-0.4-0.4l-1.7,0.4l-0.1,1.1l-0.2,0
		l0.1,0.5l-0.3,0.1l-0.3-0.7l-0.1,0.5l-0.4-0.2l-0.2-1l-1.7-0.7l0-0.6L10,70.6l-0.4,0L8.9,70l-0.8-0.1l0-0.4l0.5,0.1l0.1-0.6L9.1,69
		l-0.3-0.9l1.2,1.1l0.2-0.8l0.2,0.5l1.1-0.9l-0.4-0.9l0.5,0.5l0.4-0.5L11,66.2l-0.6,0.5l0.3-0.8l-0.7-1.4l-0.1-1.2L9.9,63l0.8-0.4
		l1.5,0.5l0.7,1.6l0.8,0.5l0.2,1.1l-0.7,0l0.2,0.3L13,67.1l0.5,0.2l0.8,1.9l0.4-0.1l-0.4-1.3l0.4-0.7h0.4l0.4,1.1l0.5,0.2l3.1-1
		l0.9,0.3l0.8-0.8l0.4,0l-0.2-0.5l-0.7,0.3l-0.5-0.3l-1.8,0.5l-0.9-1.2l0-0.5l-0.7-0.4l0.2-0.3l-1.3-0.7l0.1-0.4l-0.4-0.1l0.3-0.4
		l-0.3-0.5l0.1-0.8l1.2-0.4l0.1,0.3l0.3-0.2l0.5,0.3l0.2-0.6l0.4,0L17.3,60l0.3,0.1l0.4-0.3l0.1,0.6l0.3,0l-0.1-0.7l1.3-0.4
		l-0.4-0.5l0.3-0.3L19.5,58L19,58.5L18.2,58L17,58.4l-0.9-0.6l0-1.4l1.2-0.8l-0.7-1.2l-1-0.4l0,0l0.9-1.2l2.3-0.8l1.1-1.2l1.2-0.4
		l1.1,0.3L24.4,50.2z"/>
	<path id="TR-46" class="st0" d="M155.1,64.9l3.2-0.7l2.3,0.4l1.5-0.1l0.4,0.3l0,0l-0.7,1.1l0,0.6l1.9,1.1l1.1-0.1l1.5,1.1l1.2,0.2
		l-0.2,1.5l1.1,0.2l0,0.8l-0.7,1.1l-1.6,1.4l0.2,1.1l0.5,0.3l0,0l-0.5,0.9l-1.1,0.6l0.1,1.5l-0.9,0.9l-0.1,1.1l-0.5,0.7l0.2,0.7
		l1.3,0.1l0.5,1.2l0,0l-0.8,1.9l-0.8,0.1l0.1,0.8l-3.3,0.4l-1.6,2l-1-0.1l-1-1.2l-0.9-0.4l-1.2,1.3l-0.8,0.3l-0.2,0.6l-0.8,0.1l0,0
		l0.1-0.9l-0.6-1.1l0.4-0.9l-0.1-0.3l-2.3,0l-1.8,0.6l-0.3-0.3l-1.2,0l-0.6-5l0.4-0.8l0,0l1-1l0.4-1.2l-0.8-1.8l0.9-1.3l-1.1-0.6
		l1-1.2l1-3l0,0l3.9-1.6l0.5-2.3L155.1,64.9z"/>
	<path id="TR-78" class="st0" d="M100.5,10l0,0.4l0.4,0.3l0.9-0.4l0.4,0.3l0.4-0.2l0.5,0.2l-0.1,1l0.6,0.4l0.2,0.7l-0.1,1l-0.4,0.7
		l-0.9,0.1l-0.8,0.8l-0.4,1l0.2,1.4l0,0l-0.3-0.1l-0.5,0.4l-1.5,0l0.3,0.9l-0.3,1.4l-1.6-0.6l-0.9,0.9l-0.5-0.8l-3.2-0.7l0,0
		L91.4,19l0,0l-0.6-1.6l0.6-2l0.7-0.6l0,0l1.8,0.5l1.3-0.9l0.8,0.3l0.8-0.4l0.7,0.5l0.4-1l-0.6-1.6l0.1-0.4l1.9-0.8l0.4-0.7
		L100.5,10z"/>
	<path id="TR-70" class="st0" d="M94.3,95.5l3.1-0.5l1.4-0.6l0.9-0.9l0.4-1.6l-0.3-0.5l-1.4-0.8l-0.3-1.9l0.5-0.6l1,0l0.7-2.1
		l1.4-1.2l0.8-1.2l1.5-0.8l1.3-0.1l1.5,1.1l3.1-1.1l0.2,3.5l2.3,3.2l0.8,2.2l0,0l-2.4,1.4l-1.1-0.6l-0.9,0.4l-1.1-0.1l-2.2,0.5
		l-1.1,1l-0.6-0.6l-1,0.4l0.5,1.1l-0.2,1.5l0.7,1.2l1,0.6l0.9,1.1l-1.3,1.2l-1.9,0.6l-1.8-0.3l-3-1.1l-1.6,0l0,0l-2-2.1L94,97.3
		L94.3,95.5z"/>
	<path id="TR-36" class="st0" d="M249.4,20.9l1.5,1.1l0.1,1.6l0.9,2.1l0,1.2l-0.4,0.2l-0.7,1.7l-0.4,0.1l0.1,0.5l-0.3-0.1l0.1,0.3
		l-1.1,0.5l-0.1,0.3l1,1l-0.4,1.4l0.7,1.3l0.6,0.2l0,0.6l-0.4,0l0.9,1.1l-0.8,0.2l-0.1,0.5l0,0l-2.5,0.4l-1.5-0.3l-1.4,2.3l0,0
		l-2.5-0.4l-8,1.9l0,0l0.7-1.1l-0.2-0.8l-1.6-0.7l-0.4-1.2l-1-0.8l-1-0.1l-0.2-0.5l-1.7-1.3l-0.1-0.5l0.7-0.8l2.5-0.6l1.3,0.1
		l0.6-0.3l0.3-0.5l-0.4-0.7l0.4-1.3l0.8-1.1l1.4-1.1l-0.1-0.5l0,0l0.4-0.5l1.2-0.1l0.2-1.2l1.5-1.6l0.1-0.6l1.2-0.6l0.8-0.8l0.7,0.3
		l1-0.4l2.2,0.1l0.6-0.4l1.5-0.1l0.6-0.6l0,0L249.4,20.9z"/>
	<path id="TR-37" class="st0" d="M107.7,1.9l5.6,0.8l3.8-0.1l2.6,0.6l0,0l0,0.6l0.6,0.5l0.2,0.9l-0.4,1l1.7,0.1l0.5,1.2l1.6,0.3
		l0.8,0.6l-0.5,1.9l-1.2,1l0.3,1l-1,2l0.3,0.9l0,0l-0.8,0.7l-0.1-0.5l-0.9-0.2l-0.1,0.8l-1.5,1.2l0.1,1.9l0.9-0.1l0.7,0.3l0.5,1.2
		l-0.8,0.4l-1.1,2.6l-2.2,0.6l0,0l-2.5-0.7l-1.3-1.6l0-0.5l0.9-1.7l0-0.6l-1.7,0.8l-2.2,0.5l-0.6-0.1l-0.8-0.8l-2,1.1l-2.1-1
		l-1.5,0.1l-0.9-1.5l-1-0.2l0,0l-0.2-1.4l0.4-1l0.8-0.8l0.9-0.1l0.4-0.7l0.1-1l-0.2-0.7l-0.6-0.4l0.1-1l-0.5-0.2l-0.4,0.2l-0.4-0.3
		l-0.9,0.4l-0.4-0.3l0-0.4l0,0l1.1-2.8L101,7l-0.8,0.4l-0.9,0l-0.3-0.5l0.3-0.8l-0.5-0.4l-0.2-0.7l0,0l2.1-0.4l5.7-2.6L107.7,1.9z"
		/>
	<path id="TR-38" class="st0" d="M141.5,51.8l2.4,1l0.3,0.9l0.6,0.4l0.6,0.9l1.4,0l2.2-0.6l3.1,0.2l2-0.3l1.4,0.6l0.9,0.8l0.7,1.8
		l-1,1l-0.7,1.3l-0.2,1.7l-1.2,1.1l1.1,2.4l0,0l-0.6,1l-0.5,2.3l-3.9,1.6l0,0l-2.2-2.2l-1.7,0.5l-1.2,1.7l-0.8,2.2l-2.2,0.8
		l-1.5,1.6l-1.1,0.5l-0.4,3.1l-0.4,0.7l-2.4-0.1l-0.4-0.6l-0.4,0.1l-1.8-0.6l0,0l0.6-2l-0.1-3.3l-0.8-0.6l-1.9-0.2l-0.4-1.6
		l-1.1-0.8l-0.7-1l0,0l0.3-0.9l1.7-0.8l1.6-2.3l-1.3-3.1l-1.1-0.6l1-2.3l0.2-1.5l0,0l1.4-0.6l0.1,1.2l0.3,0.2l1.8-0.7l1.9-1.4
		l-0.5-1.2l0.4-0.6l3.5-0.5l0.7-0.4L141.5,51.8z"/>
	<path id="TR-79" class="st0" d="M155.1,95.6l0.8-1.7l1.4-0.6l0.9-1.1l0.5-0.1l0.6,0.1l0.4,1.4l2.5,0.6l0.4,0.4l0.3,1.3l0.5,0.2
		l1.3-0.1l0.7,0.3l0.5,1.1l0,0l-0.9,0.5l-0.3,0.7l-2.7-0.7l-0.9-0.1l-0.8,0.4l-0.3-0.4l-0.5,0.1l-0.3,0.6l-0.9-0.6l-0.1-0.3l0.5-0.6
		l-0.1-0.3l-0.6-0.1l-0.1-0.4l-0.9-0.4L155.1,95.6z"/>
	<path id="TR-71" class="st0" d="M108.2,49.8l-0.5-0.2l0.2-0.8l-0.2-2.3l-1.9-1.6l1.1-1.8l-0.1-1.2l0.4-0.1l0.8-2.3l2.3-0.8l0.8-0.8
		l-0.4-0.6l0.3-1.5l-0.2-0.4l0.4-0.8l-0.2-0.2l0.7-0.7l0-0.5l0.8-0.2l0,0l1.2,0.2l0.7,0.7l1.5,0.1l0,0l0.5,1l1.3,0.5l-0.2,0.8
		l0.3,0.9l-0.2,0.8l0.9,1.5l-0.1,0.3l0,0l-1.1,0.4l0.6,0.7l0.2,1.5l0,0l-0.4,0.4l-1,0l-0.7,1.6l-2.9,2.7l-1.1,0.4l-2.1,1.7
		L108.2,49.8z"/>
	<path id="TR-39" class="st0" d="M22.3,0.4l0.6,0l0.6,0.7l0.4,0l0.4,1L25.4,3L26,3l0.7,1l0.2-0.6l0.6-0.1L27.5,3l0.7,0.1l0.4-0.4
		l1.9,0.6l-0.2-0.7l0.4-0.3l0.1,0.2l0.1-0.3l0.7,0.6l0.9-0.3l0.7,0.2l0.4,1.8l-0.8-0.1l-0.2,1.1l0.9,1.9l0.8,1L34,8.6l0.2,0.5
		l0.6,0.7l0,0l-0.6,0l-0.1,0.4l-2.8,1.7L30.1,12l-2.1,0.8l-0.7,0.6l-0.6,2.2l-1,1L24.6,17L23,15.7l-0.4-1L22,14.3l-2.3,0.3l-1-0.2
		l-0.8,0.7l0,0l-0.5-0.4l0.4-0.8l-0.4-1.5l0.8-1.3l-0.1-0.5l0.7-1l-0.4-0.4l-0.6,0.6l-0.3-0.3l0.8-1.1l-0.1-0.9l0.5-1.1l-0.5-1.1
		l0.1-3.2l0,0l0.2-0.7l0.6-0.3l0-0.5l0.6-0.2l1.9,0.6l0-0.4L22.3,0.4z"/>
	<path id="TR-40" class="st0" d="M118,42.4h1l0.6,1.3l2.5,1.3l0.6,1.1l1.7,0.3l0.2,0.3l-0.8,0.9l1.4,0.7l0.5,0.9l0,0l-1.6,1.8
		l0.4,0.8l1.7,0.2l-2,2.5l0,0.9l0.6,0.6l-1.2,0l-1.1,1l-1,2.5l-0.5,0l-0.9-0.9l0.1,0.9l0,0l-0.9,0.2l-0.8-0.3l-1.5-1.5l0-0.8l-0.5-1
		l-0.8,0.1l-0.3-0.4l-0.7,0.3l-0.4-0.3l0,0l-0.2-0.3l-1.4-0.1l-0.1-0.5l-1.5-1.3l-1-0.4l-0.9-1.7l-0.9-0.5l0.4-0.4l-0.7-1.1l0,0
		l1.6-0.6l2.1-1.7l1.1-0.4l2.9-2.7l0.7-1.6l1,0L118,42.4z"/>
	<path id="TR-41" class="st0" d="M64.7,17l1.1,0.4l0,0l-0.5,0.4l-0.9,1.6l0.2,0.5l-0.2,0.5l1,2.1l-0.5,0.9l-1,0.4l0.3,1.8L63,26.1
		l-0.7,1.8l-2,0.8l0,0l-2.4-0.6l-3.5,1.1l-1.5-0.3l0,0l0.3-0.6l0-2l0,0l0.8-0.8l0.7,1l3.4-0.8l1.5,0.3l0.3-0.5l-0.4-0.4l-1.8,0.4
		l-0.7-0.6l-1.6-0.2L54.6,25l-1.1-0.2l-1.4,0.5l-0.5-0.2l-0.1-0.8l0,0l2.4-2.9l1.1-0.2l1.3,0.3l0.8-1.3l1.4,0.3l0.5-0.2l0.8-1.3
		l0-0.9l0,0l3.3-0.1l0.6-0.3l0.1-0.5l0.5-0.4L64.7,17z"/>
	<path id="TR-42" class="st0" d="M87.2,54.2l0.4,0.2l1.2,2.4l0.6,0.6l1.4,0.1l1.1-1.5l0.4,0.4l0.8-0.4l1.2,0.9L95,57l0.4-0.2
		l0.8-1.1l1.4,0.6l1.1-0.7l0.1-1.3l0.9-0.5l0.3-1.5l0.4-0.6l2.1-0.6l0.2,0.2l-0.1,1.3l0.4,0.3l1.2-1.1l1.1-0.3l0.2,0.5l-1,0.5
		l0.3,1.7l0.8,1l2,1.2l-0.1,2l0.4,2.5l1.5,2.3l0,0l-1.8,0.6l-0.4,1.3l-1.1,1.2l-1,3.2l0.7,1.2l0.2,1.5l1.4,1l0.6,1.3l1,1.1l8.8-2.1
		l0,0l1.1,1.9l1.3,0.7l1.8,2.6l0.4,1.2l-0.1,0.7l-1.4,1.7l1,0.5l-0.3,1.1l1.3,0.3l0.8,1.2l0,0l-0.4,0.7l0.5,0.9l-2.6,1.4l-2.3,0.7
		l0.1,1l-0.5,0.5l-2.7,0.9l-2.7,0.4l0,0l-0.8-2.2l-2.3-3.2l-0.2-3.5l-3.1,1.1l-1.5-1.1l-1.3,0.1l-1.5,0.8l-0.8,1.2l-1.4,1.2
		l-0.7,2.1l-1,0l-0.5,0.6l0.3,1.9l1.4,0.8l0.3,0.5l-0.4,1.6l-0.9,0.9L97.4,95l-3.1,0.5l0,0l-1.7-1.1l-0.3-1.5l-0.5-0.6l-2.5-1.2
		l-1.4-2l-0.8-2.3l-0.7-0.7l-0.4-1l-0.6,0l-1.2,0.7L83.4,86l-3-0.7l-1.1-1.1l0,0l0.4-1.8l-0.4-1.9l0.4-0.6l1.1-0.4l0.1-0.3l0-0.6
		l-0.6-1.5l0.1-1.1l1.1-0.8l0.2-0.9l1-0.7l0.1-1.4l-0.3-0.9l-1-0.4l-1.7-1.5l-0.9-1.1l-0.3-1l0,0l0.4-1.3l4.1-2.7l-0.8-0.7l-0.1-0.6
		l1.1-2.1l0.2-1.9l-0.3-0.5l2-0.4L85,56.9l-1.8-0.3l-0.4-0.8l0,0l2.6-0.3l0.6-0.9l0.9-0.1L87.2,54.2z"/>
	<path id="TR-43" class="st0" d="M46.6,46l2.8,0.1l0.3-0.6l1-0.7l0.3-0.9l1.5-1.3l0.5-2.1l1.2,0.4l0.6,0.5l1.7-0.1l0,0l0.6,1.9
		l1.2,1l0.5,0.3l2,0.1l0,0l0.8,0.2l1.5-0.3l0.2,0.3l-0.4,0.5l1,0.9l1.5,0.8l0.3,1.5L65.3,49l0.2,1.2l-0.3,0.7l0.7,0.6l0.1,1l0.8,0.1
		l0,0l-0.6,1.1l-0.9,0l-1.1,0.7l0.2,2.4l-0.8,1.3l-1,0.4l-0.9,1.2L61,60l0,0l-0.8-0.3l-0.6-1.3L56.4,58L55,58.2l-2.9,1l-1.2,1.2
		l-1.4-0.5L47.9,60l0,0l-1.6-1.2l-0.5-1.3l0.4-0.6l0-0.8l-2.9-0.5l-0.7-0.6L42,53.9l0,0l-0.5-1.4l2.4-0.5l2.1-2.4l-0.3-2.2l1-1
		L46.6,46z"/>
	<path id="TR-44" class="st0" d="M176.4,54.4l0.8,0.7l1-0.6l0.9,0.6l1.1,0l1.3,1.3l0,0l-1.1,1.2l0.1,0.7l-0.3,0.4l0.8,2.7l-0.3,0.2
		l-1.2-0.4l-0.4,0.3l-0.5-0.1l-0.1,0.9l-0.7,0.4l-0.8,1.1l0.1,1.6l1,1l3.2,1l1.9-0.4l1,1.4l1,0.7l2-0.4l0.6,0.9l0,0l-0.2,1.2
		l-0.4,0.5l0.5,0.3l0,0l-1.7,1.2L186,73l-2.8,1.1l-2.3-1.6l-0.7-0.1l-0.2-0.4l-2-1l-1.4,0.1l-0.5,0.2l-0.6,0.8L173,73l-0.1,0.4
		l0.5,0.6l0.2,1.1l-1.3,1.3l-1.6,0.3l-1.5-0.3l-0.7,0.4l-0.4-0.8l-1.1,0.2l0.1-0.6l-0.3-0.3l0,0l-0.5-0.3l-0.2-1.1l1.6-1.4l0.7-1.1
		l0-0.8l-1.1-0.2l0.2-1.5l-1.2-0.2l-1.5-1.1l-1.1,0.1l-1.9-1.1l0-0.6l0.7-1.1l0,0l0.8-0.7l0.5-1.7l2.1-1.1l-1.3-1.7l0.8-1.4
		l-0.8-1.4l0.1-0.3l4,0.6l0.4-0.5l-0.5-1l0.4-0.5l1.9,0.4l3.2,0l1.3-0.9L176.4,54.4z"/>
	<path id="TR-45" class="st0" d="M24.4,50.2l0.8-0.5l1.6,1.2l2.1-0.3l1.2,1.2l1.4-1l0.5,0.5l0.4,1.2l1.5,1.2l1.4,2.1l0.6-0.1
		l0.9-0.8l1.4,0.3l2.4-1.3l1.2,0.1l0,0l0.5,1.1l0.7,0.6l2.9,0.5l0,0.8l-0.4,0.6l0.5,1.3l1.6,1.2l0,0L47,61.9l-1.2,0.7l-0.9,0.1
		l-0.4,0.5l-0.6,4L43,68.6l1.4,1.9l0,0l-0.8,0.7l-0.5,1.2l-1.5,0.9l0,0l-1.7-0.7l0,0l-0.8-1l0.1-1.2l-1.8-0.6l-1-0.9l-1.3-0.2
		l-0.4-0.5l-1.4-0.6l-1.4,0.3l-0.5-0.4L31,67.6l0.1,1l-0.4,0.5l-0.3-0.4l-0.9,0l-0.7-1.4L28,67.2l-0.5-0.5l-0.6,0.1L26.4,66l-1,0.1
		L25,65.3L24.4,65l-1.5,0.1l-0.7-0.5l-0.1-1.7l-1.3-1.8l0.7-1.1l-0.1-0.4l1.8-0.9l0.7,0.2l1.5-0.6l0.5-0.5l0.2-1.1l-1-2.7l0.2-1.4
		l-0.8-0.8L24.4,50.2z"/>
	<path id="TR-47" class="st0" d="M213.7,79.6l1.1,3.8l3.8-0.3l2.1-1l1.4-1.3l2-0.2l0.7-0.6l0,0l0.2,1.1l0.9,1l-0.6,0.5l-0.2,0.6
		l-1,0.4l-2,0.1l-0.3,0.5l-0.4,3.6l0.2,0.4l0.6-0.2l0.4,1.2l-0.1,0.9l0,0l-2,0.6l-3.3,0l-0.7,0.3l-0.7-0.6l-3.5-0.6l-1,0.4l-0.9-0.3
		l-3.2,1.7l-1.7,0.3l-0.7,0.9l-1.8,1l0,0l-0.2-0.8l-0.7-0.5l-0.2-1.5l-0.7-1.2l-0.1-0.6l-0.5,0.1l-0.6-0.6l-0.1-1.1l-0.9-2.1
		l-0.1-0.9l0.4-0.6l-0.6-0.9l0,0l0.8,0l1.9-0.9l1.6,1l0.7,0.1l2.3-0.9l0.2-0.6l3,0.8l0.3-0.5l-0.3-1.1l0.2-0.8l2.8,0.8l1.3-0.3
		L213.7,79.6z"/>
	<path id="TR-48" class="st0" d="M24.6,84.9l0.2-1.3l0.9-0.7l1-0.2l1.4,0.6l0.9-0.1l1,0.9l1.7-0.3l2.5,0.2l1.8-1.4l0.2,0.7l3.1,0.1
		l1.8,1.3l0.5-0.1l0,0l0.2,0.9l0.7,0.1l0.5,0.7l0,0.9l1.1,0.7l0.6,1.2l0.9,0.3l1.4-0.2l0.1,1.2l1,1.4l0,1.3l0.4,1.1l1,0.4l1.3-0.2
		l0.8-0.5l0,0l0.3,0.4l0.8,0l-0.4,0.9l0.9,0.3l0.2-0.5l0.4,0.1l1-2.5l1.5-0.6l1.2,0.4l0,0l0.5,0.5l0.2,0.8l-0.8,1.4l0,2.1l-0.4,1.1
		l-1.3,0.8l-0.7,1.3l-0.8,0.7l-1.7,0.1l-1,0.6l0.2,0.8l-0.3,0.1l0,1.2l-0.7,0.5l0,0l-0.6-0.6l-0.8-0.2l-0.4-0.3l0.1-0.3l-0.7-0.2
		l0.4-0.5l-0.1-0.8l-0.3-0.2l0.3-0.4l0-0.7L48,99.9l-0.1-0.3l-0.5,0.2v0.3l-0.6-0.1l0.5-0.3l-0.1-1l0.5,0.1l0-0.5l0.3,0.2l-0.2,0.2
		l0.4-0.1l0.1-0.4L48,97.7l-0.6-0.1L46.9,97l-0.3,0.1l-0.9-0.8l-0.4,1l-0.5,0.1l0.1,0.4L44.6,98l0.2,0.4l0.2-0.2l0.4,0.1l-0.8,0.9
		l-0.3-0.7l0.4-0.2L44.1,98l-0.3,0.1l0.2-0.3l-0.3-0.3l-0.9-0.3l-0.8,0.2l-0.3-0.5l-0.4,0.3l0.1-0.4l-0.2-0.1l0.4-0.4l-0.3-0.2
		l0.2-0.2l-0.6-0.7l-0.5-0.2l-0.2,0.8L40,95.6l-0.3,0.1l0-0.5l-0.5,0.1l-0.1-1.1L38,94.7l0.1,0.3l0.5,0l-0.3,0.8l-1.2-0.5v0.4
		l-0.5,0l-0.1-0.4l0.7-0.1l-0.6-0.4L36,95.5l1,1.3l-0.7,0l-0.4,0.7L35,97.5l-0.8,1.6l-0.4-0.1l-0.7,0.6l-0.2-0.3l-0.4,0.5l-0.3-0.9
		l1.3,0.1l0.5-0.7L33.9,98l-0.4,0.1l0.2-0.4l-0.4-0.3l-0.2,0.4l-0.8-0.2l1.2-0.7l0.6-0.1l0.1,0.4l0.4-0.3l-0.6-0.5l0.6-0.8l-0.7,0
		l-0.3,0.5l-1.5,0.2l-0.3,0.3L29,96.2l-0.6,0.6L28.2,98l-1.4-0.4l-1.3,0.5l-1.6-0.6l0-0.4l0.8-0.1l0.1-0.6l2.5-0.2l0.5-0.8l0.9,0.4
		l1.6-0.5l3.2,0.2l0.2-0.7l-0.7,0l0.3-0.1l-0.3-0.2l0.8-0.4l-0.1-0.4L33,93.7l0.4-0.1l-0.3-0.3l1-0.3l0.9,0.3l0,0.3L35,93l0.6-0.1
		l0.1-0.8l0.5,0.2l0-0.3l1.2-0.5l-0.1-0.4l-3.1,0.3l0.2,0.3l-0.2,0.1L34,91.6l-1.6-0.1L32,91.8l-0.8-0.2l-1.8,0.7l-1-0.2l-0.7,0.4
		l-0.9-0.2l-0.1,0.3l-0.6-0.3l-0.5,0.1l-0.8-0.9l-0.1,0.3l-0.2-0.2l-0.3,0.5l0.1-0.5l-0.7,0.2l-0.4,1l-0.6-0.1L22,91.1l0.9-0.9
		l-0.5,0l0-0.3l0.3-0.2l0.5,0.4l0.2-0.8l0.3,0.5l0.3-0.4l0.4,0.2l0,0.4l0.6-0.1l0.6,0.8l0.9-0.8l0.6-0.1l-0.5-0.3l-0.1-0.7l0.5-0.3
		l0.3,0.2L26.9,89l0.2-0.1l-0.2-0.6l0.5-1.1l-0.8,0l-0.5,0.9L25.8,88l0.4-0.4l-0.2-0.4l-0.7,0.5l0.6-1.2l-0.3-0.4L25,86.8l-0.8-0.4
		l-0.1-0.6l0.7-0.4L24.6,84.9z"/>
	<path id="TR-49" class="st0" d="M232.9,47.8l1.2,1.2l0.5,1.4l1.2,0l0.2,1.1l1.4,3.1l-0.3,1.3l0.1,2.2l0,0l-3.4-0.3l-3.4,1l-0.5,0.6
		l-0.3,1l-0.7,0.4l0.1,1.2l-2,1.8l-0.4,0.9l-2.4-0.6l-2.6-0.1l-1,0.5l-0.1,0.3l0,0l-0.7,1l-1.1,0.2l0,0l-0.1-1L218,65l-0.7-0.5
		L217,63l0.1-1l-0.9,0.4l-0.8-0.6l0,0l-0.2-2.1l0.3-1.9l0.9-1.1l1.5-0.6l0.2-0.5l-0.2-0.7l-1.2-0.7l-1.3-2.2l0-1l0.6-0.8l0,0
		l0.8,0.3l2.7,0.1l2.3,1.6l0.3,1.6l2.4-0.1l2.5-0.7l1.4-0.9l0-0.7l1.7-0.4l0.3-1.6L232.9,47.8z"/>
	<path id="TR-50" class="st0" d="M125.8,49.3l0.2,0.6l1.1,0.5l1.8,0.3l1.3,1l0.2,0.8l-0.2,0.7l0.6,1.2l0,1.1l0.7,1.2l0,0l-0.2,1.5
		l-1,2.3l1.1,0.6l1.3,3.1l-1.6,2.3l-1.7,0.8l-0.3,0.9l0,0l-1.8-0.1l-1.2,0.9l-0.6,0l-1.3-0.6l-0.6-1.2l0,0l-0.5-0.5l-0.1-1.3l-1-1.5
		l-1.5-0.8l-0.1-0.9l0.5-0.9l0.1-1.3l-0.4-0.3l0,0l-0.1-0.9l0.9,0.9l0.5,0l1-2.5l1.1-1l1.2,0l-0.6-0.6l0-0.9l2-2.5l-1.7-0.2
		l-0.4-0.8L125.8,49.3z"/>
	<path id="TR-51" class="st0" d="M123.4,67.2l0.6,1.2l1.3,0.6l0.6,0l1.2-0.9l1.8,0.1l0,0l0.7,1l1.1,0.8l0.4,1.6l1.9,0.2l0.8,0.6
		l0.1,3.3l-0.6,2l0,0l-1.5,0.9l-1.1,1.7L129,80l-0.5,2.4l-0.3,0.5l0.3,0.5l-0.9,0.7l0,0l-2.8,1.2l-1.1,0l0,0l-0.8-1.2l-1.3-0.3
		l0.3-1.1l-1-0.5l1.4-1.7l0.1-0.7l-0.4-1.2l-1.8-2.6l-1.3-0.7l-1.1-1.9l0,0l1.1-1.1l1.5-0.4l0.7-0.5l1.1-1.7l0.3-2L123.4,67.2z"/>
	<path id="TR-52" class="st0" d="M160.8,18.1l1.3,0l0.1,0.4l1.4,0.4l2,1.5l1-0.5l1-1.6l0.3,0.4l1.2,0l-0.1,1l0.4,0.6l0.9,0.3
		l0.1,0.5l3,0.4l0,0l-0.3,1.1l-1,1.5l0.2,0.8l-0.7,0.6l0.5,1.3l0.8,0.5l-0.3,0.6l0.5,0.8l-0.1,1.2l0,0l-0.7,0.5l-1,0.1l-0.2,0.7
		l-1.2,1.2l-0.7-0.5l-0.6,0.5l-1.4-0.3l0,0l0.3-0.7l-0.9-0.5l0.6-1l-0.1-0.3l-1.6-0.5l-2.1,0l-2.3-2.1l-0.6-0.2l-0.1-0.4l-0.8-0.4
		l-1.4,0.4l-0.8-0.6l-0.8,0l-0.3-0.4l0-0.9l-1.6-0.5l-0.1-0.5l-0.6-0.4l0,0l0.1-0.5l1.6-0.9l0.4-0.6l1.3-0.1l0.4-0.3l0.6-0.7
		l-0.2-0.8l0.6-0.6l1.1,0l0.6-0.9l0,0L160.8,18.1z"/>
	<path id="TR-80" class="st0" d="M147.6,80l-0.4,0.8l0.6,5l1.2,0l0.3,0.3l1.8-0.6l2.3,0l0.1,0.3l-0.4,0.9l0.6,1.1l-0.1,0.9l0,0
		l-3.1,3.7l0,0l-1-0.2l-1,0.2l-2.3-1l-1.3,0.3l0,0l0.4-3.1l-0.8-3.6l0.2-1.5l0.4-1.4l0.7-1.1L147.6,80z"/>
	<path id="TR-53" class="st0" d="M217.3,14.5l0.4,0.8l0.1,1l1.9,2.6l-0.9,0.6l-1.6,1.8l-0.3,1l-1.2,1.7l0,0l-1.6,1l-2.6,2.4
		l-3.6,1.7l0,0l-1.4,0.4l0,0L206,28l0.9-1.6l-1.1-1.7l0.3-1.5l-0.7-0.7l-0.1-1l-1.2-0.4l0,0l0.9-0.9l1.6-0.3l0.6,0.3l2.4-1.1
		l1.3-1.4l1-0.4l0.8,0.1l1.7-0.7L217.3,14.5z"/>
	<path id="TR-54" class="st0" d="M69.3,18.4l1.8,0.8l3.1,0.2l0,0l0.5,0.5l-0.7,1l-1,0.8l-0.9,0.2l-0.5,0.7l0.2,0.3l0.8-0.1l0.5,0.7
		l-0.7,0.6l-0.2,0.7l0.1,0.4l1.3,0.7l-0.5,0.9l0,0l-0.5,0.8l0.6,1.2l-0.8,0.8l-1.9,0.4l-2.3-0.1l0.1,2l-0.3,0.6l0,0l-0.7,0l-0.6-0.6
		L66,32.4L65.3,32l-1.4,0.5l-0.8-0.2l-0.7-0.5l-0.6-1l-0.5,0.5L61,31.3L60,29.6l0,0l0.2-0.9l0,0l2-0.8l0.7-1.8l1.1-0.5l-0.3-1.8
		l1-0.4l0.5-0.9l-1-2.1l0.2-0.5l-0.2-0.5l0.9-1.6l0.5-0.4l0,0L69.3,18.4z"/>
	<path id="TR-55" class="st0" d="M143.7,7.2l1.4,1.1l0.6,1l0.3,3.1l1.4,1.9l1.4,0.8l0.1,0.6l0.6,0.6l0.9,0.2l1.2-0.6l1.5-2.1
		l0.3,0.4l2.6,0.5l1.8,1l0.4,0.5l0.1,1.3l1.9,0.8l0,0l-0.6,0.9l-1.1,0l-0.6,0.6l0.2,0.8l-0.6,0.7l-0.4,0.3l-1.3,0.1l-0.4,0.6
		l-1.6,0.9l-0.1,0.5l0,0l-0.7-0.5l-0.9,0l-1.2,0.5l-0.5-0.1l-0.9,0.6l0,0l-1.6-0.6l0.6-0.6l-0.1-0.4l-1.9-0.7l-0.3,0.7l-0.4,0.2
		l-0.6,1.7l-2.3-1l-1.7,0.4l-0.5-0.5l-1.5-0.1l-0.3-0.4l0.1-0.6l-1-0.5l-0.5-1.3l-0.5,0.3l-0.2-0.4l-0.5,0.4l-0.9-0.5l-1.8,0.3
		l-0.6-0.7l-1.7-0.2l0,0l-1.3-0.1l-0.6-0.5l0.7-1.2l-0.9-2l0-0.8l0,0l2.3-1.3l0.3,1.2l0.7,0.5l0.1,0.7l1.6,0.6l0.7-0.2l0.4-0.6
		l-0.2-1.3l0.6-0.1l1.1,0.5l-0.2-2.3l-1.5-0.7l-0.5-1.4l0.6-1.3l0.6-0.5l0,0l1.2,0.6l1.5,0L143.7,7.2z"/>
	<path id="TR-63" class="st0" d="M188.1,74.3l2.8,1.1l1.1,1.3L194,77l0.9,1.1l0.8-0.9l1.2-0.3l0.6,1.5l0.2,3.4l1,1.2l0,0l0.6,0.9
		l-0.4,0.6l0.1,0.9l0.9,2.1l0.1,1.1l0.6,0.6l0.5-0.1l0.1,0.6l0.7,1.2l0.2,1.5l0.7,0.5l0.2,0.8l0,0l-0.7,0.6l-1.6,0.4l-0.5,0.5
		l-2.9,1.2l-8.5,1.5l-2.6-0.7l-4,0l-2.6-2.4l-2.3-1l-2-0.4l-2.9,1.1l-0.2,0.5l0,0l0.3-0.8l-0.6-0.8l0-0.6l-0.5-0.4l0.2-1.2l-0.9,0.2
		l-0.7-0.5l0.2-1.2l-0.6-1.2l0.1-0.3l0.6,0.1l-0.6-0.8l0.3-0.9l0.4-0.2l-0.2-0.3l1.4-1.6l0.9-0.1l0.4,0.2l0.3-0.4l0,0l1.3,0.7
		l0.3-0.7l0.7,0.1l0.4-0.6l2.3-0.2l0.7-0.4l2.3-2l2.8-0.6l-0.5-0.7l0.9-0.2l0.4-0.3l0.1-0.5l0.6-0.2l0-0.9l-0.8,0l0.4-0.4l0.7,0
		l0.2-1l-0.3-0.2l0.7-0.3l0.4-1.2l0.4-0.4L188.1,74.3z"/>
	<path id="TR-56" class="st0" d="M223.3,70.5l1.5,0l0.4,0.7l0.6,0.2l1.5-0.3l0,0.4l0.3,0.1l0.5,0l1.2-0.7l1.4,0l3.4,3.9l1,0.4
		l0.2,0.4l0.5-0.4l-0.1-0.3l0.8-0.3l0.2-0.4l0,0l1,1.3l0.6,0.3l0.7,1.7l0.6,0.4l0,0l0.1,2.6l-1.8-0.7l-1.6-0.1l-1.5-0.8l-0.6,0.2
		l-2.3,2.1l-0.8,0.4l-1.1,0l-0.6-0.5l-1,0.4l-1-0.4l-1.1,0.1l-1.2-1.2l0,0l-0.7-0.5l-0.8,0.2l-1.7-0.6l-0.4-0.8l-3.2-2.4l0.2-0.7
		l1.7-1.7l2.2-0.9L223.3,70.5z"/>
	<path id="TR-57" class="st0" d="M129.6,0.5l0.8,0l0.5,0.6l-0.1,0.3l0.5,0.3l1.5-0.3l0.2,0.5l-0.9-0.2l-0.7,1l-0.1,0.9l0.5,1.2l1,1
		l0,0.6l1,1l2.2,0.9l0,0l-0.6,0.5l-0.6,1.3l0.4,1.4l1.5,0.7l0.2,2.3l-1.1-0.5l-0.6,0.1l0.2,1.3l-0.4,0.6l-0.7,0.2l-1.6-0.6l-0.1-0.7
		l-0.7-0.5l-0.3-1.2l-2.3,1.3l0,0l-1.1,1.5l-1,0l-0.9,0.7l-0.9,0l-0.8-0.5l-0.4-0.9l-1.1-0.7l-0.7,0.3l0,0l-0.3-0.9l1-2l-0.3-1
		l1.2-1l0.5-1.9l-0.8-0.6l-1.6-0.3l-0.5-1.2L120,6.1l0.4-1l-0.2-0.9l-0.6-0.5l0-0.6l0,0l1.6,0.1l1.9-0.6l0.7,0.5l3.3,0l1.7-1.3
		l0.6-1l-0.1-0.4L129.6,0.5z"/>
	<path id="TR-73" class="st0" d="M239.6,77.9l1.6,0.5l1.1,0.9l3.2,0.5l0.8-0.2l1-1.1l0.9,0.1l0,0l-0.4,1.8l-2,2.2l0.6,1.3l0.1,2.6
		l0,0l-0.3,0l-0.3,0.4l-1-0.7l-1.7-0.5l-1.3,0.4l-0.9,0.7l-1.7-0.6l-0.1-0.5l-0.5-0.2l-0.9,1.2l-0.5,0.1l0.1,0.4l-1.1,1.2l-0.5,1.2
		l-1.5,0.1l-1.6,0.6l-0.5-1.4l0.3-0.9l-0.8-0.9l-1.1,0l0.3-0.6l-0.2-0.1l-2.4,2.4l-3.4,0.9l-2.1,0.2l0,0l0.1-0.9l-0.4-1.2l-0.6,0.2
		l-0.2-0.4l0.4-3.6l0.3-0.5l2-0.1l1-0.4l0.2-0.6l0.6-0.5l-0.9-1l-0.2-1.1l0,0l0,0l0,0l1.2,1.2l1.1-0.1l1,0.4l1-0.4l0.6,0.5l1.1,0
		l0.8-0.4l2.3-2.1l0.6-0.2l1.5,0.8l1.6,0.1l1.8,0.7L239.6,77.9z"/>
	<path id="TR-58" class="st0" d="M172.8,29.8l1.5,0.6l-0.3,1.3l0.1,2.2l0.8,1.3l1.4,0.3l1.1,0.7l0.6-0.3l0.3,0.3l0.9-0.6l0.4,1.3
		l0.9,0.4l2,0.1l0,0l-0.4,0.9l-1.4,0.2l-1.1,0.9l-1.6-0.2l-0.9,0.7l0,0.8l1.4,1.2l-1.5,1.1l-0.6,1.8l0.3,1.7L176,48l0.4,1.2l1,0.6
		l-0.2,0.6l-0.9,0.2l1,1.8l-1,2l0,0l-0.8,0.2l-1.3,0.9l-3.2,0l-1.9-0.4l-0.4,0.5l0.5,1l-0.4,0.5l-4-0.6l-0.1,0.3l0.8,1.4l-0.8,1.4
		l1.3,1.7l-2.1,1.1l-0.5,1.7l-0.8,0.7l0,0l-0.4-0.3l-1.5,0.1l-2.3-0.4l-3.2,0.7l0,0l-1.1-2.4l1.2-1.1l0.2-1.7l0.7-1.3l1-1l-0.7-1.8
		l-0.9-0.8l-1.4-0.6l-2,0.3l-3.1-0.2l-2.2,0.6l-1.4,0l-0.6-0.9l-0.6-0.4l-0.3-0.9l-2.4-1l0,0l1.2-1.7l0.3-2.3l1.1-0.4l0.8,0.4
		l0.7-0.1l1.4-1.5l-0.3-1.8l-1.2-1.4l0.2-1.6l-1.2-0.5l-0.1-1.1l0,0l0.9,0.7l0.5,0.1l0.3-0.9l0.6-0.3l4.4,0.1l1.5-0.5l0.5-0.7
		l0.3-1.9l0.5-0.2l0.5-1.1l0.6-0.3l3.2-0.1l0.6,0.4l2-0.2l0.6,0.4l0.8,0l0.4,0.4l0.6,0l0.1-0.8l1.8-0.8l-0.2-0.4l0.9-0.7l0.6-1l0,0
		l1.4,0.3l0.6-0.5l0.7,0.5l1.2-1.2l0.2-0.7l1-0.1L172.8,29.8z"/>
	<path id="TR-59" class="st0" d="M17.9,15.1l0.8-0.7l1,0.2l2.3-0.3l0.6,0.4l0.4,1l1.6,1.3l1.1-0.4l1-1l0.6-2.2l0.7-0.6l2.1-0.8
		l1.2-0.1l2.8-1.7l0.1-0.4l0.6,0l0,0l0.2,0.2l0,0l-1.1,5.3l-0.8,1.4l0,0.8l-0.6,1.2l-0.1,1l0.3,0.7l0,0l-0.5,1.1l-1.1,0l-1.7-0.9
		L26,21.2l-0.6,1.2l-0.2,1.2L23.7,25L23,26.3l-1.7,1.2l-1.9,0.5l-0.7,0.8l-0.9,0.2l0,0l0-1l1.1-2.6l-1-0.4l-2,0.1l0,0l-1.3-1.7
		l0.4-2.8l-0.7-0.6l0.3-0.4l1.5-0.2l1.4-1.4l0.8-1.4L17.9,15.1z"/>
	<path id="TR-60" class="st0" d="M149.8,23.9l0.9-0.6l0.5,0.1l1.2-0.5l0.8,0l0.7,0.5l0,0l0.6,0.4l0.1,0.5l1.6,0.5l0,0.9l0.3,0.4
		l0.8,0l0.8,0.6l1.4-0.4l0.8,0.4l0.1,0.4l0.6,0.2l2.3,2.1l2.1,0l1.6,0.5l0.1,0.3l-0.6,1l0.9,0.5l-0.3,0.7l0,0l-0.6,1l-0.9,0.7
		l0.2,0.4l-1.8,0.8l-0.1,0.8l-0.6,0l-0.4-0.4l-0.8,0l-0.6-0.4l-2,0.2l-0.6-0.4l-3.2,0.1l-0.6,0.3l-0.5,1.1l-0.5,0.2l-0.3,1.9
		l-0.5,0.7l-1.5,0.5l-4.4-0.1l-0.6,0.3l-0.3,0.9l-0.5-0.1l-0.9-0.7l0,0l-0.5-0.5l-0.3-2.1l-2.6-0.1l-1.5,0.3l-0.5-0.3l-1.5-0.2l0-1
		l-0.9-0.8l-0.2-1.1l0,0l1.6-1l1.6-0.4l0.8-0.6l0.1-0.6l0.9-0.5l0.4-1l1.9-0.1l0.6,0.3l0,0.3l1.3,0.5l0.4-0.5l1.8-0.8l0.3-0.7
		l0.7-0.6l-0.9-0.1l-0.1-0.4l1.9-0.1l0.4-0.7L150,26l1.1-1l-1.1-0.6L149.8,23.9z"/>
	<path id="TR-61" class="st0" d="M191.9,18.9l0.8,0.2l1.1,1.2l1.1,0.5l1-0.3l1.5,0.5l0.6,0.6l2.3-0.1l1.1,0.8l1.5-0.3l1.2-0.9l0,0
		l1.2,0.4l0.1,1l0.7,0.7l-0.3,1.5l1.1,1.7L206,28l0.5,1.4l0,0l-2.9,0.3l0,0l-1.2-1l-0.8,0.2l-0.7-0.5l0.2-0.7l-0.7-0.5l-1,0.1l0,0.5
		l1,0.4l0.2,0.4l-1.1,0.5l-0.3-0.6l-1.5-0.6l0.3-1.1l-0.2-0.5l-0.8,0.1l-0.1,1.3l-0.7,0.8l-1.5,0.1l-0.9-0.8l-0.9,0.1l-0.2-0.7
		L192,27l-0.8-0.9l-2-0.4l-0.9-0.5l0,0l0-5.8l0,0l1.4,0.5l1.9-1.1L191.9,18.9z"/>
	<path id="TR-62" class="st0" d="M182.4,56.4l-0.3-1.8l0.4-0.8l-0.4-0.4l0.3-0.4l1.1-0.2l0.7-0.5l-0.3-1l0.1-0.6l1.6-1.3l2.8-1.3
		l2.5,0.4l2-0.6l3,0.4l0.6-0.4l0.5-1.8l0.6-0.2l2.6,0.7l0.6,0.4l1.7-0.6l2,0.4l1,1l0,0l-3.4,2.9l-2.5-0.2l0.4,1.4l-0.9,0.8l-0.7,2.4
		l0,0l-0.6,0.8l0.6,0.8l-0.4,1.7l-0.7,0.7l-0.2,1l-0.6-0.2l-1.2,0.3l-2,0l-0.3,0.8l-0.3,0.1l-0.7-0.4l-0.6,0.3l-0.2-0.6l-0.9-0.3
		l-0.6-0.7l-4.1-0.7l-1.5,0.8l-1.4-0.5l-0.2-0.5l0.6-1.1l-0.1-0.6L182.4,56.4z"/>
	<path id="TR-64" class="st0" d="M47.9,60l1.7-0.2l1.4,0.5l1.2-1.2l2.9-1l1.4-0.1l3.2,0.4l0.6,1.3L61,60l0,0l-0.2,0.9L59.5,62
		l0.3,1.4l-0.5,0.3l-1.6,2.1l0,0l-2.3,1.6l0.1,2l-0.4,0.6L51.2,69L50,70.3l0.1,0.5l-0.4,0.1l-0.2,0.8l-0.5-1.1l-4.7,0l0,0L43,68.6
		l0.9-1.5l0.6-4l0.4-0.5l0.9-0.1l1.2-0.7L47.9,60z"/>
	<path id="TR-65" class="st0" d="M255.9,50.4l0.6,0.6l0.1,0.6l0.3,0.1l-0.3,0.6l0.2,0.9l1,0.5l0.7,0.8l0.2,0.7l-0.4,0.4l0.3,0.9
		l-0.6,0.5l0.4,0.8l-0.1,0.3l0.4,0.3l-0.1,0.5l0.5,0.7l0.8,0.2l0.2,0.6l-0.8,1.7l0.3,0.7l-0.2,0.5l0.7,0.6l-0.2,1.5l0.2,0.8
		l-0.3,0.7l0.2,0.6l-0.2,0.3l0.2,0.4l0.5-0.1l0.3,0.3l0.9-0.5l0.2,0.5l0.7,0.3l-0.2,0.7l-1.3,0.9l-0.1,1.8l-0.6,0.2l0.2,0.5
		l-0.5,0.1l-0.3,1l-0.9,1.4l0.1,0.4l-0.4,1l0.6,0.4l0.7-0.2l1,0.2l0.1,0.7l0.4,0.4l0.3-0.2l0,0.7l0,0l-0.6,0.3l-1.3-0.1l-0.7,0.5
		l-1.9-0.2l-0.4-0.9l-0.9-0.5l-1.7,0.4l-1.9-0.2l-2.6,0.7l-1.6-0.4l0,0l-0.9-0.1l-1,1.1l-0.8,0.2l-3.2-0.5l-1.1-0.9l-1.6-0.5l0,0
		l-0.6-0.4l-0.7-1.7l-0.6-0.3l-1-1.3l0,0l0.6-3.4l-0.1-0.8l-0.6-0.4l0-0.4l1.6-1.1l0.1-2.1l2.2-3.3l1.4-1.3l1.9-1.1l0.7-1.1
		l-0.1-0.5l-1.7-0.8l-0.3-0.8l-1.1-0.9l0,0l1.1-1.9l1.4-1.1l0.1-2.7l1.6-0.5l1.8,0.1l1.8,1.9l1.4,0.8l1.1,0.1l1.1-1l1-1.6l2.3-0.4
		l0,0L255.9,50.4z"/>
	<path id="TR-77" class="st0" d="M52.6,26.4l0.4-0.1l0,0l0,2l-0.3,0.6l0,0l-1.6,0l-1.7,0.6l-3-0.6l-0.2,1.8l0,0l-2.7-1.1l0-0.3
		l2.9-2l3.9-0.3l1-0.3l0.5-0.5L52.6,26.4z"/>
	<path id="TR-66" class="st0" d="M136.6,34.1l0.2,1.1l0.9,0.8l0,1l1.5,0.2l0.5,0.3l1.5-0.3l2.6,0.1l0.3,2.1l0.5,0.5l0,0l0.1,1.1
		l1.2,0.5l-0.2,1.6l1.2,1.4l0.3,1.8l-1.4,1.5l-0.7,0.1l-0.8-0.4l-1.1,0.4l-0.3,2.3l-1.2,1.7l0,0l-0.7,1l-0.7,0.4l-3.5,0.5l-0.4,0.6
		l0.5,1.2l-1.9,1.4l-1.8,0.7l-0.3-0.2l-0.1-1.2l-1.4,0.6l0,0l-0.7-1.2l0-1.1l-0.6-1.2l0.2-0.7l-0.2-0.8l-1.3-1l-1.8-0.3l-1.1-0.5
		l-0.2-0.6l0,0l-0.5-0.9l-1.4-0.7l0.8-0.9l-0.2-0.3l-1.7-0.3l-0.6-1.1l-2.5-1.3l-0.6-1.3h-1l0,0l-0.2-1.5l-0.6-0.7l1.1-0.4l0,0
		l0.1,0.6l1.2-0.4l1.7,0.2l0.4-0.6l1.3-0.9l0.6,0.1l0.6,0.6l0.9,0.2l0.9-0.4l1.8-0.1l1.2-1.3l0.3,0.2l0.1,0.8l3.6-0.3l0.3-0.5
		l-0.7-1.2l0.7-0.6l-0.7-1.2l0.4-0.1l0.8,0.6l0.7-0.9l1.2-0.4l0,0L136.6,34.1z"/>
	<path id="TR-67" class="st0" d="M90.3,9.7l0.8,1.3l0.9,0.1l0,1l0.6,0.8v0.8l-0.5,1.1l0,0l-0.7,0.6l-0.6,2l0.6,1.6l0,0l-5.2,1.3
		l-1.1-0.5l-2.6,0L81,20.4l0,0l-0.8,0.2l-0.8-0.2l-0.6-2l0,0l1.4-1.7l0.2-1.2L80,15.3l0.1-0.4l3-1.2l3.6-2.4l1.9-0.8l0.6-0.6
		L90.3,9.7z"/>
</g>
</svg>
