<svg id="katman_1" data-name="katman 1" xmlns="http://www.w3.org/2000/svg" viewBox="0 0 369.25 155.92"><defs><style>.cls-1{fill:#ccc;stroke:#fff;stroke-width:0.3px;}</style></defs><path id="TR-01" class="cls-1" d="M207.57,96.63l-1.44,4.12-1.37,1.63,1.51.78L205,105l1.16,2.51-.54,1.68-1.35,1.35h0l-2.55,1.31-1,1.5-.6,1.92-.22,2,1.09,4.93-.58,4.23h0l-1,1.24.12,1.2h0l-4.18,4-2.33,0-.76.49-.39.81.42-.19v.55l0-.7.47-.25,0,.7.84-.1-.09-.34.5.35-1.49,1-.36,1.47-1.38,1-2.39-.59-1.78,1.24-6.45-4.07-1.92-.29h0l1-.49.07-.45,1.28.11v-.51l.32.31.6-.8,1.32.34.38-.72-.32-3.14-.63-2.8-1.4-.83h-.79l-.43-1.08-1-.59v-.72l1-.88,0-.58-2.84-3.31-.32-1.71h0l1.22-1-.35-.68.46-.63.73-3.29,2.35.28,1.53-2.33,2.12-1.25h0l2.53.88.62-.16.59.79,3.32.2.57-1,.6-4.36,1.53-.66,2-2.19,3.07-1.15,1.17-3,1.7-2.33,2.38-.69Z" transform="translate(-0.1 -0.21)"/><path id="TR-02" class="cls-1" d="M259.86,98.62l1.54-.51.76,1.35-.82,2-1.09,1.16h0l-1.42.28-.59.53-.62,1.7-1,.44.35.32-.26,1.43h-1l-.57.56,1.16,0,0,1.21-.79.25-.1.66-.58.4-1.25.24.66.95-3.85.78-3.13,2.73-1,.51-3.2.24-.5.8-.92-.16-.4,1-1.78-1h0l-2.62-1.12-3.53-.12-.79-.86-2,.63-.83-.39h0L229,113l-1.83-.2-.32-.91.63-.92.12-1.46,1.2-1.24-.07-2.13,1.52-.87L231,104h0l.4.43-.2.85,1.47-.33.49,1.16,1-.53,2,.44,2.18-.42,1.87-1.74-.33-1.54-.63-.85.18-.51,3.35-1.28.77-1.06.66-.25,1.9-.13,2.75,1.35.33.52.95.18,3.23,2.22,3.94-1.58.21-.65Z" transform="translate(-0.1 -0.21)"/><path id="TR-03" class="cls-1" d="M92.46,72.69,94,73l1,2.3,1.33.63,1.5,1.52.8-1.87,3.78.41.45-.94-1.4-.94-.11-.54,1.15-.08,1.5.63.26-.75.91-.15.55-1.45.66-.43,1.79,1.24,1.67-.47,2.09,2,.28,1.33,1.63.46.83,1.26h0l.54,1.05,2.47.43.26.42-2.78.57.37.69-.23,2.57-1.58,2.94.21.82,1,.94-5.72,3.73L108.59,93h0l-.6.1-.87-1.38-1.18-.93-2.6.41-1.45,1.41-1.72.78-1.44,2.48L96,97.6l-2.54.63-3.18,3.52-1.87.86-1.46,1.86.09,1.64-1,2h0L82.38,108h0l-3.58-2-.63-1.42.15-1.32,2.44-2.28.94-1.52,2-.1.88-1.45,1.29-1-1.14-3.13-1.23-.52L83,92.32l-.82-.09-.64-.73h-.77l-1-.65h0L82,88l.73-.42-.47-1.87,1.83-1.57.28-1.21h0l1-.27L86.57,81l1.33-.55,1.15-1.82-.23-3.33,1.56-1,1.28-.06Z" transform="translate(-0.1 -0.21)"/><path id="TR-04" class="cls-1" d="M324.71,56.09l11-2.7,3.46.55h0l1.44.39L342,55.92l.25,3.27,1.12-.1.76-1.21.8-.2,1.57,1.22,3.33.31,1.68,1.26h2.95l2,.63,1.76-.22L360.7,62l1.79-.22h0l.12,1.8-1.08,1.11.35,1.55-.5.79.19,1.4-2.55,1-1.13-1.08-1.7.47-1.44-.35-.65.82h0l-3.18.5-1.4,2.27L348,73.39l-1.51-.19-2-1-2.43-2.62-2.52-.17-2.18.65-.08,3.71-1.89,1.53-1.47,2.6h0l-1,.35-.12,1.31-2.45,1.09-2.21-.32h0l-.1-3,.38-1.86-1.93-4.26-.26-1.59-1.6,0-.72-1.89L322.25,66h0l.71-1.32,1.57-1.25.32-.69-1.37-1.43L321,60.05l-.89-2,.55-.57Z" transform="translate(-0.1 -0.21)"/><path id="TR-68" class="cls-1" d="M158.36,77.34l.52.45,1-.44.36.51,1.15-.16.73,1.41V80.2l2,2,1.05.39,1.23-.24h0l.5.45-.1,1.81-.7,1.31.17,1.21,2.11,1.13,1.37,2.09.2,1.74.75.72h0l-1.45.84-.36,2.71-1.57,2.32-1,.74-2,.51-1.57,1.55h0l-12.14,2.88-1.34-1.5-.81-1.79-1.88-1.36-.21-2-1-1.65,1.39-4.45,1.45-1.6.61-1.84,2.47-.8h0l1.85,0,3.15-1.25,1.23-2.63-.6-2,.79-1.22.09-1.6Z" transform="translate(-0.1 -0.21)"/><path id="TR-05" class="cls-1" d="M182.05,26.75l2.38.29.77,1,2.52-.42,1.28.67.67-.49.26.58.64-.48.74,1.78,1.42.71-.16.79.37.49,2,.08.7.67,2.36-.57,3.22,1.32.77-2.31.59-.21.45-1,2.58.95.13.51L205,32l2.2.89h0l.23.82,1.57.84-1.51,1.36.11,1.14-.51.93-2.62.21.13.59,1.25.2-1,.79-.41,1-2.53,1.16-.54.76L199.62,42l0-.43-.77-.41-2.6.14-.5,1.43-1.18.76-.08.8-1.15.77-2.23.51L188.93,47h0l-1.26.23h0l1.1-1.87-1-.71.63-1.31-.3-.89.89-.37v-.8l.74-.52.28-1-1.13-2-2.13-.51.08-1.72-2.67-.19-1.85.53-1.8-1.37L180.4,33l1.38-2.59-1.19-1.52L182,27.78Z" transform="translate(-0.1 -0.21)"/><path id="TR-06" class="cls-1" d="M133,36l1.83-.13,3.42,2,2.27.55.31.73-.44,1.66,1.75,0,2.5,1,2.14,3.52,1.08-.54.74-1.16,1.21.23.55.69,1.6-.19L155,45l.37.49h0l-1.15.23,0,.67-1,1,.26.31L153,48.7l.32.61-.4,2,.52.77-1.12,1.06-3.11,1.1-1.15,3.14-.6.19.19,1.66-1.48,2.48L148.81,64l.34,3.22-.23,1.15.73.35h0l1,1.49-.51.52,1.2.74,1.31,2.32,1.38.55,2,1.78.11.63,1.89.12.33.46h0l-.55,1.31-.09,1.6-.79,1.22.6,2-1.23,2.63-3.15,1.25-1.85,0h0l-2.08-3.22-.6-3.39.15-2.78-2.72-1.7L145,74.94l-.39-2.31,1.37-.74-.32-.71-1.46.47-1.66,1.55-.56-.39.16-1.82-.32-.32-2.89.81-.57.86L138,74.4l-1.29.64-.16,1.85-1.58,1L133.1,77,132,78.57l-.61.24-1.2-.15-1.63-1.22-1.17.52-.49-.58-1.47,2-1.91-.2-.88-.87L121,75.09l-.5-.22h0l.16-1.17,2.89-3.16-.06-.5-1.29-.54.35-.7-.49-.7.31-1.9-.78-.28.18-.64-.88-.91-.65-2.6L119,60.05l.76-2.15.58-.5-.94.15.41-.55-.26-.28-1,.15-.66-.56-.6-.88-.06-.89-.8-.37.3-.88-.94.21.19-1.06-.92.74-1.62-.36-.66.45-.81-.59-1.18.67-.26-.48.76-.24-.69-.44-1,.42-1.38-.42-1.42.41L105.24,52l-.33.49-1.4.18-.19.46-1.48-.05-1.6-.84L99.75,50h0l1.91-1.17,3.92-4.38,2,.31,3.41-.59.46.31.3,1.17,2.93.36,2.92-.6,2.85.11,1.38-1.11,1.33-.24,1.58.23.84.88,1.36-.17.42-.88-1.12-1.62.57-1.78,1-.68L131.43,39l0-.61-.7-.85.08-.73.6-.5Z" transform="translate(-0.1 -0.21)"/><path id="TR-07" class="cls-1" d="M109.65,116.38l1.52,1.49,4.16,1,1.31-.19,1.61-1,.8,0,.5,1.35,1,1,1.07,3.22,2,2.77,3.48,1.6.67.81.4,2.05,2.3,1.55h0l-.4,2.51.23.86,2.8,2.89h0l1.62,4.88-1.08,2.93.35,1.06-.86,1.6h0l-1.43-.21-3.6-2.91-2.61-4.41-2.77-2.93-.62.25-.54-.68-3.6-1.1-.66-.79-1.45-.3-2.18-1.55L110.46,133v-.42l-1.1-.67-6.23-1.16-4.71.25-1.19-.91-1.27.67-1.09,1.41-.38,4.22.69.72-1.64,3,0,.63-.57.17-.07.83,1,1.54-1.22.5.41.83-1.54,1.6.08-1.41-.85,0-1.64-1.06h-1.8l-.71.31v.67l-.24-.14-.47.76-1.12-.69-.12.52-1.24.89-1.07-.41-.87.91h-.88l-.77.76.58-.11-1,.74-.35-.18.43-.32-1.07-.13-.86.64-1-.8.38-.11-.09-.52-1.19.22.93-.44-4.22-.46.09-.82-.54-.13-.4,0-.28.78-1.69-1.52h0l.93-.64L70.51,142l.41-.18-.21-1.1,1.44-.78,2.39-.14,1.07-.94,1-1.75,1.8-1.14.6-1.5v-2.87l1.11-2-.25-1-.74-.63h0l1.68-1.53-.34-1.75.46-.85L83,122l1.51-.54,3.07-2.33,2.67-.17,3.29,2,5.83.2.72-.46,1.47-3-.52-.73h0l1.23,0,1.67,1.39,1.91-1.45Z" transform="translate(-0.1 -0.21)"/><path id="TR-75" class="cls-1" d="M328.35,13.17l1.5.62,1.16-.18-.65,2.27.9.63.33-.66.63-.08v.56l1.32.72,1,1.93,1.44.45.79,1,1.46.36v.39l-1.61.91,1.28,0,.75,2,2.25-.69,1.89.69.51,1.33-.53.63.46.76,0,.95,1,.42h0l-.77.8-2,.19-.87.5-3-.18-1.42.59-1-.48-1.07,1.17-1.71.89-.19.9-2,2.2-.25,1.6-1.72.09-.62.63h0l-.81-.18-1.18-2.45-3.29-.76L321,31.05h0l1.17-1,.39-1.13-.9-.79L321,26.65l.9-.68.37-1.49,2.37-1.21,1.72-2-.74-1.74-1-.8.12-1.43h0v-.85l1.14-.93.08-1.45.48-.51Z" transform="translate(-0.1 -0.21)"/><path id="TR-08" class="cls-1" d="M314.54,15.22l1.17.71,2.64-.52.53.6,1.49-.05.88.66,1.36,0,.93.72,1.24,0h0l-.12,1.43,1,.8.74,1.74-1.72,2-2.37,1.21L321.9,26l-.9.68.63,1.45.9.79L322.14,30l-1.17,1h0l-1.57-1.48-4.28-.14-2.48,2.35.24,2.57-1.22,1.2-.2,1.42-.77.69-.78,0-.19-1.43-.39-.16-3.49,1.49-2.48,1.81-.73-.14-.29-1,0-1.72.75-.43,0-.38L302,34.53,298.48,33h0l1.7-2.31.38-1.44,2.21-2.52,1.26-.82-2.67-3.59L301.27,21l-.61-1.06h0l2.67-1.09,2.85-3.55,1.66.82,1.51-.21,0,.57,1.46.32.7.72,1.17-.73.87-1.19Z" transform="translate(-0.1 -0.21)"/><path id="TR-09" class="cls-1" d="M57.42,101.35l1.3.57.74.83,2.12.38-.69,1.32-1.4.16.22,2.6.65,1,2.06,1.32-1.12,1.42-.36,1.58L58,115l-.21,1.93-.34.22h0l-.62.11-2.55-1.83L50,115.22l-.32-1-2.48,2L43.79,116l-2.33.4-1.38-1.23-1.22.07-2-.84-1.4.22-1.21.92-.31,1.77h0l-.72.26-.43.85-.5-.17,0,.83-.74-.32-.76.48-1.05-.44.69-1.2,0-1.64-.51-.36-.14-1.4h-.47l1-1-1.85-1.06-2.31-.68.51-.74,1.29.21,2.61-1,.69-2-.63-.76.61-1.35h0l1.54.68.37,1.1,1.31-1,.33-2,1.62-1.06,1.27,0,2.47,1.28,5.5-1.69,4.74-.44.91-.68.32-.81,1.42-.45,1.6.81.56-1h0Z" transform="translate(-0.1 -0.21)"/><path id="TR-10" class="cls-1" d="M18.83,68.92l.77.11-.9.47.57.17.24.6.62-.23-.11.37-1.29.17-.14-1.32-.35-.15ZM37.94,41l.6.38L38.2,42l.58.06,0,.5-1.72-.42.1-.49h.5L37.54,41Zm2.57-.45.47,0,.14.51,1.43-.25,3.34,1-.29.78L43.29,44l1.07.88L47.94,44h0l.92,1.44v1l-1.45,2.52.89.78,0,1.94.65.86.22,1.32.88.81,0,1.52.76,1.11.75.52,1.76.12,1,1.17,2.16,1.24L57.72,60l.72-.76.66.16L59.4,62l.66,0,.42,1.06,3.87.43h0l.09.74L63.1,65.66l.42,3.08L60.66,72l-3.38.62L58,74.52h0l-1.63-.17-3.32,1.81-2-.37-1.3,1.12-.85.13-2-2.91-2.11-1.61-.62-1.72-.62-.63-2,1.34-1.64-1.67-3,.49-2.18-1.74-1.16.72h0l-3.05.75-1.48-.44-1.67.51L26,71.81l-3.23,1-1.23,1.7h0l-.9-2.25-2.13-.49.83-1.13.08.48-.48.14.78.44-.17-.57.76-.84,2-1.38-.13-1,1.06-.18,0-.9,1.38-.2.44-1.7-.51-.74-.9-.08-.81.69-1.2-.34-2.54.41h0l.13-1.4,1.2-1.66,2-.46L24,60.27l1.77.2,1.65.88,1.35-.11,3,.83,1.59-1.57,2.32-1.38.46-.68.31-2.55-1.18-2,.06-1.56-1.56-1.44,1.3-2,1.43-1,.25-.88-.33-.73h0l1.75-.69.88.51,1.56.05,2.34-1.69-1.11-.68-.5.42-1-1.17.06-.52-1.18-.57-.07-.74Zm-4.23-.09.36.21-.54.5.22.34-.91.5.16-1.33.38-.44Zm2-3.46,2,.83-2.58,1.49-1.51-.56.06-1.3Z" transform="translate(-0.1 -0.21)"/><path id="TR-74" class="cls-1" d="M136.4,6.86l.28,1,.72.51L137,9.43l.47.68,1.19,0,1.08-.54.7.36-1.5,3.82h0l-.95.18-.51.9-2.65,1.13-.17.6.82,2.28-.61,1.45-1-.71-1.09.62-1.13-.47-1.8,1.3-2.46-.66h0l.72-1.54V17.7l-.88-1V15.32l-1.32-.2-1.12-1.82h0l2.93-3.12,1,0,.94-.75.56.27,1.63-1.59,1.4-.26.13-.39,1.8-.08Z" transform="translate(-0.1 -0.21)"/><path id="TR-BM" class="cls-1" d="M305.08,89.39l2.53,1.54-.4,2.58.79,2.76.95,1.16h0l-1.51,3-3.06,1.26L302,104l-.23.94,4.42,3.37.59,1,2.35.78,1.08-.22,1,.68h0l-1,.87-2.81.26-2,1.75-2.95,1.44-5.32.47-1.54-5.29h0l1-1.44-1.36-.6.37-1.32,2.09-3,1.07-3,1.21-1.23-1.14-.86.13-3.17,2-3.88,1.69-.55h0l1.46-.26Z" transform="translate(-0.1 -0.21)"/><path id="TR-69" class="cls-1" d="M287.69,40.07,287,42.73l.38,1.32-1.26,3.75.71.72,3,0,.06,1.13L289,50.89l-3.61,2.16-2.53-.13h0l-7.15-.25-1.43.75-1.5,1.47h0L271,53.08l2.07-2.66,1.37-3.31-.1-3.29.57-1.65,6.7-1.14h0l4.06-.43h0Z" transform="translate(-0.1 -0.21)"/><path id="TR-11" class="cls-1" d="M83,40.82l1.27,2.35.49.14.69-.73.78,1.36,1,.66,1.12.22,1.94-.68.91.53L92.74,44l.82.84.91-.06h0l2.18,5.46h0l-1.55.56-2.54,2.58-1,.51-.4.82L90,55.48l-.85,1.79-3,.55-1.57,1.94-.54,1.79h0l-2.83-.11-.72-.36-1.62-1.39-.79-2.63h0l1.73-1.61-1.09-1.18-.1-.62.57-.57-.32-2.79L80,49.56,79.81,48l.71-.77.31-2.6.84-.9-.16-2Z" transform="translate(-0.1 -0.21)"/><path id="TR-12" class="cls-1" d="M284.31,65.88l3.33-.26,1.35.46h0l-.41,1,.7.63,1.25.24,6.21-.73,2.33,2.21h0l-.8,1-.06,1.37,1.78,3.1,1.63.93.26.91-.31.72-2.13.9-1.24,1.48-.36,2.6.27,2.87h0l-3.45,1.17-1.21,1.84-1.22.63-2.81-1.38-.35,1.29-.55.33L286.75,88l-1.59-.14-1.23,1.31-.06,1.37-.43.45-1.95.41h0l-2.34-4.64,1.1-.83.55-1,1.9-.1.48-.37-.26-.88-1.75-1.25-.56-1.57.13-1-.41-.37.91-1.58,0-1.34,1.32-1.58,0-.93-.58-.34-1.54.79-2.17.36-1.88,1.29-1.83,0h0l.93-3.37,1.22-1.06-.55-2,3.52.24Z" transform="translate(-0.1 -0.21)"/><path id="TR-13" class="cls-1" d="M333.93,77.85,335.39,79l.48,1.11,2.37,1.07.09.68-1,1.48L334.66,85l-1.88,1.74-3,4.51-.16,2.86-2.17,1.5v.56l.77.59.19,1.12-.87,4.72h0l-.31.54-1.05.42.16.44-.64.59-.32-.61-1.42-.48-4.75-5.39-2,0-1.6,1-.73,0-.42-.17-.07-.58-2.07.37-.8-.28-.58-.91h-2L308,96.27l-.79-2.76.4-2.58-2.53-1.54h0l.12-.41,1.41-.68,3.66.19,3.3.77L314.1,88l2.71-2.46-.15-1.6,1-.49.38-1.36.68-.77,4.66-1.41,4.7.4h0l2.21.32,2.45-1.09.12-1.31Z" transform="translate(-0.1 -0.21)"/><path id="TR-14" class="cls-1" d="M126.45,26.11l2.34.33h0l1,3.21,0,1.59,2.21,0,1.44,2.19L133,36h0l-1.52.27-.6.5-.08.73.7.85,0,.61-3.65,1.15-1,.68-.57,1.78,1.12,1.62-.42.88-1.36.17-.84-.88-1.58-.23-1.33.24-1.38,1.11-2.85-.11-2.92.6-2.93-.36-.3-1.17-.46-.31-3.41.59-2-.31-3.92,4.38L99.75,50h0l-.93-.37-2.17.56h0l-2.18-5.46h0l.37-.85-.13-2.81,3.13.12,2.64-.56,1.08-1.05L100.7,38l.68-1.14h0l3.08.41,2.14-.32L108,34.79l.59-1.85,2.93-1.3.45-3.52h0l2.19-.84,3.56,0,1.51.72Z" transform="translate(-0.1 -0.21)"/><path id="TR-15" class="cls-1" d="M86,108.13l2.3.24,3.48-1.27.59.78-.4,1.27.32.63,1.68.31,1.68-.24,2.55,1.38.35,2.41,1.51,1.56.24,1.54.71.18h0l.53.74-1.48,3-.71.45L93.53,121l-3.29-2-2.67.18-3.07,2.33L83,122l-2,1.85-.45.85.33,1.75L79.13,128h0l-1.6-.59-2.08.87-1.4,3.39-.49-.13-.24.64-1.26-.38.54-1.22H71.53L71.1,130h0l.87-2-.65-1.07.16-.65,2-1.27.27-2.51.69-1.58,2.86-3-.38-.79-2.11-1.22-.11-.52.73-1-.65-1.71.34-.48,1.45-.43,1.89.45-.36-1.28.24-.36,2.78-.93L82.38,108h0Z" transform="translate(-0.1 -0.21)"/><path id="TR-16" class="cls-1" d="M55.93,39.57l-.58,1.37-.11-1.39Zm17,.24,2.08.41,4.84-1.53,3.37.88h0L83,40.82h0l-1.48.89.16,2-.84.9-.31,2.6-.71.77L80,49.56l-1.14.74.33,2.78-.57.57.09.62,1.09,1.19-1.73,1.6h0l-2.38.14-.81-.73-1.71-.59-.71,2.89-2,1.81-.36,1.18-1.35,1-.47.85-3.92-.1h0l-3.87-.43L60.06,62l-.66,0-.3-2.69-.66-.16-.72.76-1.26.35L54.3,59.06l-1-1.17-1.76-.13-.75-.52-.76-1.1,0-1.53-.88-.8L49,52.49l-.65-.86,0-2-.89-.77,1.45-2.52v-1L47.94,44h0l7.15-.16,2.93.9,2.5-.82,3.54,1,1.51-.2.74-1.38,1.15-.12-1.37-1.35-1.06,0-1.06.5h0l.29-2.53,4.12.85,2.3-.82Z" transform="translate(-0.1 -0.21)"/><path id="TR-17" class="cls-1" d="M7.88,57.74l.4,1-.49.32L6,58.16v-.37ZM5.71,47.86l.53.5L6.06,50l.88-.33-.35.75-4.88,1L.27,50.63l.12-.7,2.19-1.42Zm26.21-5.38.51,1-.56.31.43.71,2.17,1.24,1.94.52h0l.33.74-.25.88-1.43,1-1.3,2,1.57,1.43-.06,1.57,1.18,2-.32,2.55-.46.7-2.32,1.37-1.58,1.57-3-.82-1.36.1-1.65-.87L24,60.29,22.47,61.4l-2,.46-1.19,1.66-.13,1.39h0l-3.22.73L14,66.36l-.17.4-1.56-.15-.9.6L11,66.93l-1.69.51L8.1,67l.65-2.85.63-.52.44-1.23L9.4,59.82l.45-1.55-.53-.53.84-3.81.35-.36,1.36.19,1-.41.87-2,.85-.47-.1-2,2.42-.68.78-1.37.65-.07,2.91-3.08,3-.09.94.6,1.54-.23,1-1.27L29,42.44l1,.43,1.55-1Zm-10-7.72,2.77-.13,1.45.49-1.55,3.63,0,1.37h0l-4.4,2.25,0,.86L19,43.69l-.17,1L18,45.72l-1.45.77-1.72,1.74-1.27.44L14,50.19l-1.68,1.49-2.31,1,1.9-3.79.19-1.23-1-1.15.36-.38-.56-.37,2.16-1.13,2.39-1.92,2.92-1.57,1.68-.1,1-1.28.44.31,1.28-.94-.56-1.79-1.75.25h0Z" transform="translate(-0.1 -0.21)"/><path id="TR-18" class="cls-1" d="M140.46,24.34l1.36.34,1.3,2.08,2-.17,2.9,1.37,2.83-1.53L152,27.56l.82.15,3.08-.75,2.29-1.07.06.89L157,29.12l0,.75,1.86,2.2,3.53,1h0L162,35.51l1.79,1.56-.57,1.26.3,1.24-.38.88.69.76L164,42.9l-1.56,2.64-.95.92-1.37.53h0l-2.11-.2-1-1-1.7-.32h0L155,45l-3.06-.53-1.6.19-.55-.69-1.21-.23-.74,1.16-1.08.54-2.14-3.52-2.5-1-1.75,0,.44-1.66-.31-.73-2.27-.55-3.42-2L133,36h0l.45-2.66L132,31.19l-2.21,0,0-1.59-1-3.21h0l4.43.9.65,1.05,1.28-1.19,2.2.86.48-2-.48-1.19,2,0,.65-.58Z" transform="translate(-0.1 -0.21)"/><path id="TR-19" class="cls-1" d="M179.16,20.3l-.07,1.15,1.29,2.74-1,1.73.88.62,1.77.21h0v1l-1.45,1.13,1.19,1.52L180.4,33l.17,1.58,1.8,1.37,1.85-.53,2.67.19-.08,1.72,2.13.51,1.13,2-.28,1-.74.52v.8l-.89.37.3.89-.63,1.31,1,.71-1.1,1.87h0l-1.65.49L185,49l-1.13-.89-.55.2,1,1.62-1,.82.94,1.65-.41.68-5,.37-.14-1.09-.4-.25-1.68,1.78-2.43.14-1.28.56-1.23-.27-.81-.83-.79-.18-1.8,1.27-.53.88-2.31-.28-1.68.5-.18-.84h0l.13-.42-1.27-2,.26-1.17L162.35,50l.31-1.07-1.84-.64L160.13,47h0l1.37-.53.95-.92L164,42.9l-.14-1.69-.69-.76.38-.88-.3-1.24.57-1.26L162,35.51l.39-2.47h0l3-.76L167,28.75l1.12-.56-.66-1.64-1-.47-1.28.17-.18-2.62L167,22l.13-1.06,1.2.24.11.74,1.15-1h0l.95-.48,1.55.93.57,1.31,1.11.73,1.2.06,1.24-1,1.35,0Z" transform="translate(-0.1 -0.21)"/><path id="TR-20" class="cls-1" d="M79.83,90.84l1,.65h.77l.64.73.82.09.53.83,1.23.52,1.14,3.13-1.29,1-.88,1.45-2,.1-.94,1.52-2.44,2.28-.15,1.32.63,1.42,3.58,2h0l-1.31,1.67-2.78.93-.24.36.36,1.28-1.89-.45-1.45.43-.34.48.65,1.71-.73,1,.11.52,2.11,1.22.38.79-2.86,3-.69,1.58L73.43,125l-2,1.27-.16.65L72,128l-.87,2h0l-1.06.7-1.75.27-1.35-.55-.54-1.49,0-1.76-1.36-2-.18-1.68-1.9.29-1.2-.41L61,121.75l-1.53-.92.06-1.3-.75-1-1-.15-.33-1.27h0l.33-.22L58,115l2.95-2.47.35-1.59,1.13-1.41-2.06-1.32-.65-1-.22-2.6,1.4-.16.69-1.32-2.12-.38-.74-.83-1.3-.57h0l2.14-1.26.67-1.62,1.14-.94h0l6.49,0,.64,1.58L68.75,98l.56-.16-.15-.64,1.61-1.84,5.4,1.18.6-.78L76.6,93Z" transform="translate(-0.1 -0.21)"/><path id="TR-21" class="cls-1" d="M298.11,85.35l1.05.8,1.27-.58-.2,1.43.49,2,.94.74.87-.17.12,1.39h0l-1.69.55-2,3.88-.13,3.17,1.14.86-1.21,1.23-1.07,3-2.09,3L295.2,108l1.36.6-1,1.44h0l-.48,1.06-1.73.45-3.92-1.13-.29,1.15.42,1.54-.35.65-4.11-1-.26.89-3.12,1.22-.92-.08-2.21-1.33L276,114.7l-1.11,0h0L273.5,113l-.23-4.73-.81-2-1.63.4-1.18,1.28-1.29-1.46-2.67-.47-1.54-1.79-3.9-1.55h0l1.09-1.16.82-2-.76-1.35-1.54.51h0l-.71-.41.61-.63.25-1.7h0l3.08-1,.86.53,1-.25,1.23,1.3.87.23.64-1.88,2.43.18,2.48-1.19,1.44.66.77-2.11.77-.55h4.21l1.68-.38h0l1.95-.41.43-.45.06-1.37,1.23-1.31,1.59.14,1.77,1.19.55-.33.35-1.29L292.23,89l1.22-.63,1.21-1.84Z" transform="translate(-0.1 -0.21)"/><path id="TR-81" class="cls-1" d="M108.94,25.48l.78,2.73,1.17.23,1-.32h0l-.45,3.52-2.93,1.3L108,34.79,106.6,36.9l-2.14.32-3.08-.41h0l.65-1.3-1.79-.9-.16-.52.22-.92.9-.83-.67-1-1.17.08L99.12,31l.67-1,1.23-.22,1.35-1.09,1-1.33-.74-.64h0Z" transform="translate(-0.1 -0.21)"/><path id="TR-22" class="cls-1" d="M25.33,2.86l-.14,4.39.69,1.48-.72,1.58.18,1.3L24.2,13.15l.46.43.79-.87.53.51-1,1.32.17.68L24.09,17l.53,2L24,20.18l.63.54h0L25,23l-1.11,2L22,26.83l-2,.3-.4.49,1,.89L20,32.36l1.85,2.4h0l-1.4,2.84h0l-2.06.18L17,38.9l-1.5-.61-.83.42-.72-.23-1.4.44-3,0L8,38.06l-.63-2.64,1.77-.37.36-1.29,1.4-1.19-.2-.6.34,0v-.59l.48.21.24-.84.59.51-.1-.93L13.6,30l-.64-1,.8-.89L13,27.49l-.28-.8.43-.92-.59-.08.65-.8-.58-.8.32-.26V22.09l1.48.05,2.28-2.21,1.28.39.88-.67L18.14,13l-1.23-.35-.79-.81.16-.38L14,10.7l-1-1,.71-2.08,3.35-.16.78-1.25-.36-1.39,1.21-1.37L21.21,4l.7-.81,1,.52.53-.54Z" transform="translate(-0.1 -0.21)"/><path id="TR-23" class="cls-1" d="M274.54,76.09l1.83,0,1.88-1.29,2.17-.36,1.54-.79.58.34,0,.93-1.32,1.58,0,1.34-.91,1.58.41.37-.13,1,.56,1.57,1.75,1.25.26.88-.48.37-1.9.1-.55,1-1.1.83,2.34,4.64h0l-1.68.38H275.6l-.77.55-.77,2.11-1.44-.66L270.14,95l-2.43-.18-.64,1.88-.87-.23L265,95.18l-1,.25-.86-.53-3.08,1h0l-.84-1.2-2.83.61-1.42-1-1.37-2-2.62.5-4.46-1.42-1.42-1.32-.2-2.19,1.07-1.48.92-.48.08-1.18.72.09.51-.44,1.72.52.4-.33L249.16,81l.48-.48-.1-1,1.53-1.67h0l.71.41.57-.36h0l.65.63.14.82-.9,1.54.26.64,1.87.62,2-1.05,5.74,1,.89,1,1.3.45.35.81.78-.38,1,.54.43-.14.41-1.15,2.79,0,1.64-.45.8.33.33-1.4.91-.94.62-2.32-.77-1.15Z" transform="translate(-0.1 -0.21)"/><path id="TR-24" class="cls-1" d="M252.4,51.9l4.39.44h0l1.45,1.16,3.24.84-.05,1.09,1.36.12L265.85,57l4-.38,2.93-1.75h0l1.5-1.47,1.43-.75,7.15.25h0l-1.48,1.27-.18,1.54,2.88-.11.46.54,2.58,1,.36,1.26-.71,1.16.06.68,2.87,1.45.21.53-.5,1.56,1.2,1.32-.32.57-1.28.39h0l-1.35-.46-3.33.26h0l-1.43-1.42-2.76-.53-2.31.86-.82-.55-3.61-.9-.84.34-.76,2.5-.78.54-4.1-.59-2.8.84-3.49-.53-3.9,1.85-2.2,1.77-.15.77.47,1.39-1,.72-1.47.31-.36.5.56.5-.61,1.15.42,2.5h0l-.57.36-.71-.41h0L249.26,76l-1.5.05-1.22-.76-1.42.8L244,75.15h0l1.41-2.77-1.43-2.45,1.3-.32.26-.84-1.35-.8-.61-1.63.87-1.8L244,62.16l.8-2.49,2.12-1.56L245,56.5l-.06-1,1.18-1,2.2.22,1.49-1.31,2-.22Z" transform="translate(-0.1 -0.21)"/><path id="TR-25" class="cls-1" d="M298.48,33,302,34.53,303,35.7l0,.38-.75.43,0,1.72.29,1,.73.14,2.48-1.81,3.49-1.49.39.16.19,1.43.78,0,.77-.69.2-1.42,1.22-1.2-.24-2.57,2.48-2.35,4.28.14L321,31.05h0l1.33,2.63,3.29.76,1.18,2.45.81.18h0l.07.65-2,1.58-1.06,1.57-.52,1.85.5,1-.42.7-.81.41-1.8-.18-3.41.8-1,1.15.15.69,2.35,1.83.25.63,1.32.13,1.34,1,.53,1.62,2.23,1,.32,1-.92,1.48h0l-4.06,1.36-.55.57.89,2,2.49,1.29,1.37,1.43-.32.69L323,64.71,322.25,66h0l-3.11,2.35-.46,2.19-2.3.55,0,1-1.91,1.31-3.52.94-3.29.09-.45-2.27L304,70l-3.72-.12-1.16-.44h0l-2.33-2.21-6.21.73-1.25-.24-.7-.63.41-1h0l1.28-.39.32-.57-1.2-1.32.5-1.56-.21-.53-2.87-1.45-.06-.68.71-1.16-.36-1.26-2.58-1-.46-.54-2.88.11.18-1.54,1.48-1.27h0l2.53.13L289,50.89l.86-1.22-.06-1.13-3,0-.71-.72,1.26-3.75L287,42.73l.74-2.66h0l5-2.34,3.57-3.37Z" transform="translate(-0.1 -0.21)"/><path id="TR-26" class="cls-1" d="M99.75,50l.49,2.21,1.6.84,1.48.05.19-.46,1.4-.18.33-.49,1.54.63,1.42-.41,1.38.42,1-.42.69.44-.76.24.26.48,1.18-.67.81.59.66-.45,1.62.36.92-.74-.19,1.06.94-.21-.3.88.8.37.06.89.6.88.66.56,1-.15.26.28-.41.55.94-.15-.58.5L119,60.05l1.23,1.72.65,2.6.88.91-.18.64.78.28-.31,1.9.49.7-.35.7,1.29.54.06.5-2.89,3.16-.16,1.17h0l-.36.41-1.18.07-.83,1.24-3.55.48h0l-.83-1.26-1.63-.46L111.85,74l-2.09-2-1.67.47L106.3,71.3l-.66.43-.55,1.45-.91.15-.26.75-1.5-.63-1.15.08.11.54,1.4.94-.45.94-3.78-.41-.8,1.87-1.5-1.52-1.33-.63L94,73l-1.5-.27h0l-1.15-.18-.11-1.36-1-.79.42-1-.34-1.69.53-.87-.42-2-2.13-1.14L87,62.44l.59-.72-.3-.37-2.08.48-1.12-.28h0l.54-1.79,1.57-1.94,3-.55L90,55.48l1.13-.82.4-.82,1-.51,2.54-2.58,1.55-.56h0l2.17-.56Z" transform="translate(-0.1 -0.21)"/><path id="TR-27" class="cls-1" d="M229.7,114.66l.83.39,2-.63.79.86,3.53.12,2.62,1.12h0l-.4.49-.51-.34-1.24.16-1.91,2.23.24.44-.5.23-.4,1.28.8,1-.77-.13-.13.48.85,1.6-.3,1.71,1,.66,1.19-.28-.22,1.62.76.57-.05.9.81,1.07-.35,1.14h0l-1.65.32-3,1.66h-2.4l-1.9,1.14h0l-.71-1.48-.91-.4-1.81.2-.69-.3-.41-1.78-.51-.53-3.45-.86-.58-2-.89-.2-.72.2-1.21,1.51-1.9.88-1,2.39h0l-2.46-.81h0l-1.07-1.6-2.1-.64-.75-1.47h0l4.3-5.1h0l1.18-.18.3-.77,1.11-.41,1.69-1.77L218,120l1.44,1.62,1.36.13L223,119l4.62-.51-.11-1.06,1.13-.1Z" transform="translate(-0.1 -0.21)"/><path id="TR-28" class="cls-1" d="M260.53,26.65l0,8.09h0l-2.37,1-1.57-.15-2,1.16-2.3,3.75,4.37,2,.77.95-.3,3.06-.86,1.23-.63-.22-.51.37.23,1.85,1.41,1.8,0,.88h0l-4.39-.44h0l-2.7-.15-1.28-.61-.62-1.76-1.19.84-.44-.46-.78.4-1.51-1-2-.38-1.06-1.85-.09-3,.41-1.83-2.12-.9h0l.13-1.71-.68-1.11.44-.83-1.11-.65L237.09,35l1-.82-.28-1.11L239.24,31l.47-1.53h0l1.8.62,1.76-.16,1.43.91.66-.38.72.34,2-.17,1.8-1.42,1.18.67.56-.1,1.88-1.49,1.13-.06,1.18-.82,1.67.29Z" transform="translate(-0.1 -0.21)"/><path id="TR-29" class="cls-1" d="M260.5,34.74l1.2.67,2.79.62,1.08,1.21.74.15.24.9,1.26-.08L269,39.28l2-.09,1-1.1.21-1.84,1.05-.09.27.75-.38,1.51,2.11.84.44.88,1.5-.67-.26-.51-1.32-.6v-.67l1.41-.2,1,.73-.22.91,1,.76,1.14-.28L281.62,41h0l-6.7,1.14-.57,1.65.1,3.29-1.37,3.31L271,53.08l1.75,1.81h0l-2.93,1.75-4,.38-3.06-1.47-1.36-.12.05-1.09-3.24-.84-1.45-1.16h0l0-.88-1.41-1.8-.23-1.85.51-.37.63.22.86-1.23.3-3.06-.77-.95-4.37-2,2.3-3.75,2-1.16,1.57.15Z" transform="translate(-0.1 -0.21)"/><path id="TR-30" class="cls-1" d="M343.22,108.62l2.19.48,3.55-1,2.69.26,2.4-.6,1.29.64.59,1.19,2.59.24.92-.7,1.75.13.89-.47h0l2-.22,1.28,1.24.17.65-1.14,1.42.89,1-.65,3.72,1.06.44.41,1,1.23.24.32.87,1.23.79.24.86-1.07,1,.5,2-.51-.61h-1.62l-.72-.54-3.21,2.83-2.37.75.35.48-.69.56-.2.79-1.31-.73-.47-1.42L357,125l.77-1.52,1-.17-.13-1.92-.76-.88-2-1-1.93.16-.12-.31-.49.74-.71.15-.78,1.63-1.28.06-.36.69-.49-.84-2.19-.16-.95.38-1.46-1-1.11.38-3.12-2h0l-.11-3.55-.9-1.75,2.77-3.1Z" transform="translate(-0.1 -0.21)"/><path id="TR-31" class="cls-1" d="M200.37,126.49l1.81-.36,3.12,1.44,1.44-.22,1.43.33h0l.75,1.47,2.1.64,1.07,1.6h0l.17.74-1.16,1.34.29.9-1,1.21.3,1.71-.9,2.4.42,1.5.41.69.35,0,0,1.62.13-.32.88,0,0,.93.75.09-.3.51.31.63-.62.41-.76-.23-.09.55-2.24-.61-.7,1-1.65-.45.32.59-.61.61.47,2-.29,1.74-.74.47-.87-.52,0,1.39-.73-.23-1.06.36-.84,3.28-.74-1.27-2.21-.46.11-1.34-1.73.25,1.22-2-1.59-3.4-2.23-3.39,0-.54,1.42-1.16,1-1.75,1.33-.67,1.2-1.49L203,137l.41-1.13-.42-2.45.25-1-1.69-2.35-2.09-1.16h0l-.12-1.2Z" transform="translate(-0.1 -0.21)"/><path id="TR-33" class="cls-1" d="M176.38,116.15l.33,1.71,2.83,3.31,0,.58-.94.88v.71l1,.6.43,1.08h.79l1.4.83.63,2.8.31,3.14-.37.72-1.33-.34-.6.8-.32-.31v.51l-1.27-.11-.08.45-1,.49h0l-.74-1.17-2-.92-2.1,0-1.75,1-2.55,2.48L166,137.47l-1.94,2.63-1.69,1.34-.12,2.17-.55.6H161l-.91,1.5-.52-1.29-1.33-.71-.52.95-.49.05-.36,1L155,147.12l-.27.94-.69-1.43-1.07.44-.59,1.17-1.81-.76-1.3.72-.91-.62-1.07.54-2.84-.17-1.32,1.62-.58-.58-2-.23-1.44.71-1.36,1.34-2.63-.65-2-1.34h0l.85-1.6-.35-1.06,1.08-2.94-1.62-4.87h0l2.18.05,4.11,1.54,2.51.41,2.62-.89,1.84-1.69-1.24-1.5-1.45-.88-1-1.61.26-2.08-.71-1.53,1.35-.56.89.78,1.48-1.42,3-.66,1.53.11,1.28-.59,1.58.88,3.27-1.91h0l3.67-.51,3.68-1.3.69-.62-.1-1.4,3.13-1,3.53-1.89-.72-1.29.5-1h0l1.56,0Z" transform="translate(-0.1 -0.21)"/><path id="TR-76" class="cls-1" d="M346.71,50.62l1.19,1.12,1-.07,2.66,1.51,5.45-.18,1.64-.44,2.77,1.21L364,56.16v.46l.81.71,0,.85,1.93.8-.15.5,1.11.73.07.66,1.05.82-.07.62.37.16-.22.62-1.8-2.1-.92-.11-1-1.66-2.74,2.53h0L360.7,62l-2.5-1.09-1.76.22-2-.63h-2.95l-1.68-1.26-3.33-.31-1.57-1.22-.8.2-.76,1.21-1.12.1L342,55.92l-1.35-1.59-1.44-.39h0l2-3.22,2.11.39,3.4-.52h0Z" transform="translate(-0.1 -0.21)"/><path id="TR-32" class="cls-1" d="M86,108.13l1-2-.09-1.64,1.46-1.86,1.87-.86,3.18-3.52L96,97.6l2.76-1.75,1.44-2.48,1.72-.78,1.45-1.41,2.6-.41,1.18.93.87,1.38.6-.1h0l.42,1.43L110.22,96l2.41,2,1.39.5.47,1.31-.14,1.91-1.4,1-.24,1.25-1.5,1.13-.18,1.47.88,2.11,0,.9-.12.36-1.55.55-.49.78.52,2.68-.6,2.43h0l-3.82.51-1.91,1.45-1.67-1.4-1.23,0h0l-.71-.18-.24-1.54-1.51-1.56-.35-2.41-2.55-1.38-1.68.24-1.68-.31-.32-.63.4-1.27-.59-.78-3.48,1.27Z" transform="translate(-0.1 -0.21)"/><path id="TR-34" class="cls-1" d="M69.74,22.69l6.14,1.5.45-.26,4.38,1,1.83,0h0l0,1.21L81.47,28l-.75.25-2-.43-1.1,1.78-1.81-.46-1.46.27-3.26,4.08h0l-.48-.34-1.19.28L70,32.25l-2.75-1.2-.67-1-1.7-.95L64.62,28l.87-.69.3-1.39.54-.37-.45-.65.33-.91,1.51-1.16ZM48.63,14l1.85,1.92,6.74,3.58,1.22.22L63.58,22l2.47.09.64.37v.68l-1.41,1.41.64.82-1.69,3-2.61.81-.34.45-1.35-.61-2.72.51-.48-.31-.15-1.13-.43,0-.46.84L53.3,27.49l-3.58-.92-3.06.54-1.45.82h0L44.79,27l.08-1.33L45.68,24V22.91L46.78,21l1.47-7.28h0Z" transform="translate(-0.1 -0.21)"/><path id="TR-35" class="cls-1" d="M20.25,89.9l.53.32L21,91.91l-.9-.51ZM33.63,69.31,34,71.49l1,1.05-.28,1.92,1.41,3.78-.27,1.49-.73.73L33,81.35l-1-.27-2.45,1.28.16.62-1,1.48L30.62,87l.11,2.35.9.63,2.06-.16.86.46.51,1.11,1.36-.17.68,1.1.77-.12.72.7,1.3.16.94,1.87,1.25,0,.38.62.52-.73-.21-1.42.89-.19.66.56,1.89-.45,1.88.86.51.73,1.72.3,1.37,1.23,2.46.83L54,99l1.15,1.38h0l-.56,1-1.6-.81-1.42.45-.32.81-.91.68-4.74.44-5.5,1.69-2.47-1.28-1.27,0-1.62,1.06-.33,2-1.31,1-.37-1.1-1.54-.68h0l.12-1.08-.62-1-2.12-.19-2.9-2.14-1.46.24-.8.8-.8-3-1.12-.44.45-.6-.62-.54-2.38.52-.17,1.5-.34,0,.16.7-.42.18-.44-1-.2.63-.55-.29-.29-1.32-2.41-1,0-.88-.51.8-.56,0-.93-.92-1.13-.16L11.2,96l.76.1.17-.78.42.07-.38-1.19,1.69,1.47.24-1.09.34.7L16,93.93l-.61-1.26.75.67.51-.68-1.57-1.21-.83.73.38-1.11-1-1.89-.14-1.7.15-.46,1.08-.5,2,.72.93,2.21,1.06.69.29,1.56-1,0,.33.45-.4.64.64.21,1.12,2.61.56-.2-.54-1.82.55-.9h.59l.57,1.53.69.28L26.42,93l1.22.41,1.09-1.08h.52L29,91.75l-.9.44-.65-.44-2.42.73-1.31-1.64v-.76l-1-.54.33-.45-1.74-1,.17-.6-.61-.16.39-.58-.47-.71L21,85l1.72-.5.14.47.38-.25.74.46.23-.79.62,0L23.9,83l.4.18.57-.45.12.77.48-.06-.08-1,1.79-.55-.49-.63.39-.45-.26-.64-.63.7-1.11-.68-1.67.51-1.28-.84,0-2,1.69-1.07-1-1.6-1.36-.61h0l1.23-1.7,3.24-1,1.47-1.68,1.68-.51,1.48.44Z" transform="translate(-0.1 -0.21)"/><path id="TR-46" class="cls-1" d="M214.6,89.73l4.41-1,3.2.6,2-.17.5.4h0l-.93,1.46,0,.9,2.68,1.48,1.57-.16,2,1.58,1.73.32-.29,2.14,1.56.22,0,1.08-.95,1.5L230,102.05l.29,1.51.68.43h0l-.68,1.23-1.52.87.07,2.13-1.2,1.24-.12,1.46-.63.92.32.91,1.83.2.66,1.71h0l-1.06,2.64-1.13.1.11,1.06L223,119l-2.18,2.82-1.36-.13L218,120l-1.27-.59-1.69,1.77-1.11.41-.3.77-1.18.18h0l.2-1.21-.77-1.53.56-1.22-.17-.45-3.18,0-2.56.81-.39-.36-1.68,0-.78-7,.54-1.1h0l1.34-1.35.55-1.67L205,105l1.3-1.85-1.51-.78,1.37-1.63,1.44-4.12h0l5.4-2.28.74-3.21Z" transform="translate(-0.1 -0.21)"/><path id="TR-78" class="cls-1" d="M138.94,13.73v.58l.59.43,1.25-.62.54.46.61-.31.72.23-.1,1.37.88.51.21,1-.08,1.36-.55,1-1.29.2-1.11,1.14-.48,1.36.34,1.91h0l-.45-.08-.65.58-2,0,.48,1.19-.48,2-2.2-.86-1.28,1.19-.65-1.05-4.43-.9h0l-2.34-.33h0l-.79-2.23.79-2.7,1-.83h0l2.46.66,1.8-1.3,1.13.47,1.09-.62,1,.71.61-1.45-.82-2.28.17-.6,2.65-1.13.51-.9Z" transform="translate(-0.1 -0.21)"/><path id="TR-70" class="cls-1" d="M130.45,132.06l4.25-.76,2-.88,1.23-1.25.6-2.22-.38-.68-1.88-1.06-.47-2.56.64-.85,1.38,0,1-2.93,1.9-1.65,1.1-1.61,2-1.06,1.81-.18,2.13,1.57,4.27-1.47.32,4.81,3.19,4.41,1.11,3h0l-3.28,1.91-1.57-.87-1.29.58-1.53-.11-3,.66-1.47,1.42-.89-.78-1.36.56.72,1.53-.26,2.08,1,1.61,1.44.89,1.25,1.49-1.84,1.69-2.62.89-2.52-.41-4.1-1.54-2.18-.06h0l-2.8-2.88-.23-.86Z" transform="translate(-0.1 -0.21)"/><path id="TR-36" class="cls-1" d="M345,28.72l2.13,1.48.07,2.19,1.3,2.87,0,1.63-.51.34-1,2.29-.49.14.13.75-.44-.13.13.46-1.48.63-.2.45,1.4,1.37-.55,1.93,1,1.85.78.34,0,.79-.58,0,1.2,1.57-1.05.22-.18.66h0l-3.4.52-2.11-.39-2,3.22h0l-3.46-.55-11,2.7h0l.92-1.48-.32-1-2.23-1-.53-1.62-1.34-1-1.32-.13-.25-.63-2.35-1.83-.15-.69,1-1.15,3.41-.8,1.8.18.81-.41.42-.7-.5-1,.52-1.85,1.06-1.57,2-1.58-.07-.65h0l.62-.63,1.72-.09.25-1.6,2-2.2.19-.9,1.71-.89,1.07-1.17,1,.48,1.42-.59,3,.18.87-.5,2-.19.77-.8h0Z" transform="translate(-0.1 -0.21)"/><path id="TR-37" class="cls-1" d="M148.93,2.54l7.73,1.08,5.2-.18,3.56.78h0V5l.84.76L166.55,7,166,8.36l2.29.11.73,1.6,2.27.48,1.13.88-.67,2.6-1.67,1.42.43,1.36-1.37,2.78.48,1.26h0l-1.15,1-.11-.74-1.2-.24L167,22l-2.1,1.67.18,2.62,1.28-.17,1,.47.66,1.64-1.12.56-1.51,3.53-3,.76h0l-3.53-1L157,29.87l0-.75,1.28-2.34-.06-.89L155.92,27l-3.08.75-.82-.15-1.12-1.13L148.07,28l-2.9-1.37-2,.17-1.3-2.08-1.36-.34h0l-.34-1.91.48-1.36,1.11-1.14,1.29-.2.55-1,.08-1.36-.21-1-.88-.51.1-1.37-.72-.23-.61.31-.54-.46-1.25.62-.59-.43v-.58h0l1.5-3.82-.7-.36-1.08.54-1.19,0L137,9.43l.4-1.07-.72-.51-.28-1h0l3-.49,7.93-3.66Z" transform="translate(-0.1 -0.21)"/><path id="TR-38" class="cls-1" d="M195.78,71.52,199.12,73l.47,1.22.9.52.83,1.25,1.94.06,3.07-.78,4.23.3,2.73-.43,1.93.81,1.24,1,.91,2.49-1.45,1.37L215,82.54l-.29,2.33L213,86.38l1.59,3.35h0l-.89,1.41L213,94.35l-5.4,2.28h0l-3-3-2.39.71-1.7,2.32-1.17,3-3.07,1.15-2,2.19-1.53.66-.6,4.35-.58,1-3.32-.2-.59-.78-.61.16-2.54-.89h0l.86-2.7-.14-4.58L184,99.18l-2.63-.25-.57-2.18-1.54-1.14-1-1.44h0l.45-1.29,2.32-1,2.17-3.12-1.79-4.25-1.56-.86,1.39-3.24.28-2h0l1.93-.78.14,1.63.38.27,2.46-1,2.69-1.94-.66-1.71.51-.78,4.79-.64,1-.5Z" transform="translate(-0.1 -0.21)"/><path id="TR-79" class="cls-1" d="M214.55,132.2l1-2.39,1.9-.88,1.21-1.51.72-.2.89.2.58,2,3.45.86.51.53.41,1.78.69.3,1.81-.2.91.4.71,1.48h0l-1.3.68-.36.92-3.7-.92-1.28-.08-1,.49-.39-.54-.64.11-.47.89L219,135.3l-.12-.47.66-.81-.21-.4-.8-.1-.21-.5-1.25-.53Z" transform="translate(-0.1 -0.21)"/><path id="TR-71" class="cls-1" d="M149.65,68.73l-.73-.35.23-1.15L148.81,64l-2.63-2.25,1.48-2.48-.19-1.66.6-.19,1.15-3.14,3.11-1.1,1.12-1.06-.52-.77.4-2L153,48.7l.53-1.08-.26-.31,1-1,0-.67,1.15-.23h0l1.7.32,1,1,2.11.2h0l.69,1.32,1.84.64L162.35,50l.47,1.18-.26,1.17,1.27,2-.13.42h0l-1.59.62.78,1,.33,2.09h0l-.48.59-1.39,0-.91,2.2-4,3.73-1.51.57-3,2.31Z" transform="translate(-0.1 -0.21)"/><path id="TR-39" class="cls-1" d="M30.78.37l.83,0,.83,1,.58.06.53,1.33L35.06,4h.77l1,1.41.26-.85.77-.09L38,4l1,.1.51-.58,2.63.78-.32-1,.62-.43.09.29.07-.37,1,.86,1.25-.45.93.25L46.31,6l-1.13-.09L44.9,7.38,46.09,10l1.15,1.43-.32.31.23.67.87,1h0l-.77-.07-.17.62-3.92,2.32-1.65.19-3,1.08-1,.87-.78,3-1.33,1.38L34,23.35l-2.25-1.76-.51-1.4-.82-.61L27.13,20l-1.42-.28-1,1h0L24,20.18l.58-1.12-.53-2,1.05-1.82L25,14.54l1-1.32-.53-.51-.79.87-.46-.43,1.14-1.54-.18-1.3.72-1.58-.69-1.48.14-4.39h0L25.62,2l.84-.48,0-.64.85-.3,2.57.86,0-.57Z" transform="translate(-0.1 -0.21)"/><path id="TR-40" class="cls-1" d="M163.22,58.5h1.39l.78,1.77,3.45,1.78.78,1.51L172,64l.32.47-1.06,1.31,2,1,.74,1.31h0l-2.18,2.46.55,1.07,2.29.24-2.74,3.5,0,1.22.82.89-1.6,0-1.46,1.41-1.4,3.52-.64,0-1.25-1.22.12,1.19h0l-1.23.24-1.05-.39-2-2V79.11l-.73-1.41-1.15.16-.36-.51-1,.44-.52-.45h0l-.33-.46-1.89-.12-.11-.63-2-1.78-1.38-.55-1.31-2.32-1.2-.74.51-.52-1-1.49h0l2.28-.78,3-2.31,1.51-.57,4-3.73.91-2.2,1.39,0Z" transform="translate(-0.1 -0.21)"/><path id="TR-41" class="cls-1" d="M89.46,23.45l1.47.6h0l-.72.49-1.28,2.24.24.73-.28.63,1.38,3-.65,1.19-1.45.59.36,2.47L87,36,86,38.5l-2.8,1.07h0l-3.37-.88L75,40.22l-2.08-.41h0L73.3,39l-.06-2.74h0l1.15-1.15,1,1.36,4.74-1.09,2,.38.45-.7-.49-.48-2.54.51-1-.78-2.19-.28-.84.41L74,34.13l-2,.69-.68-.21-.16-1.14h0l3.27-4.08,1.46-.27,1.8.47,1.1-1.78,2,.43.76-.26,1.1-1.83,0-1.21h0l4.63-.08L88,24.5l.11-.68.72-.55Z" transform="translate(-0.1 -0.21)"/><path id="TR-42" class="cls-1" d="M120.51,74.87l.5.22,1.65,3.26.88.87,1.91.2,1.47-2,.49.58,1.17-.52,1.63,1.22,1.2.15.61-.24L133.1,77l1.88.88,1.58-1,.16-1.85L138,74.4l.35-2.06.57-.86,2.89-.81.32.32L142,72.81l.56.39,1.66-1.55,1.46-.47.32.71-1.37.74.39,2.31,1.05,1.32,2.72,1.7-.15,2.78.6,3.39,2.08,3.22h0l-2.47.8L148.22,90l-1.45,1.6L145.38,96l1,1.65.21,2,1.88,1.36.81,1.79,1.34,1.5,12.14-2.88h0l1.54,2.59,1.79,1,2.49,3.65.6,1.68-.12.92-1.9,2.32,1.42.66-.47,1.49,1.75.39,1.15,1.6h0l-.5,1,.72,1.28-3.53,1.9-3.13,1,.1,1.4L164,125l-3.68,1.3-3.67.51h0l-1.11-3-3.19-4.41-.32-4.81L147.72,116l-2.13-1.57-1.81.18-2,1.06-1.1,1.61-1.9,1.65-1,2.93-1.38,0-.64.85.47,2.56,1.88,1.06.38.68-.6,2.22-1.23,1.25-2,.88-4.25.76h0l-2.3-1.54-.4-2.05-.67-.81-3.48-1.6-2-2.78-1.07-3.21-1-1-.5-1.36-.8,0-1.61,1-1.31.19-4.16-1-1.52-1.49h0l.6-2.43-.52-2.68.49-.78,1.55-.55.12-.36,0-.9-.88-2.11.18-1.47,1.5-1.13.24-1.25,1.4-1,.14-1.91L114,98.47l-1.39-.5-2.41-2L109,94.41,108.59,93h0l.57-1.75,5.72-3.73-1-.94-.21-.82,1.58-2.94.23-2.57-.37-.69,2.78-.57-.26-.42-2.47-.43-.54-1.05h0l3.55-.48.83-1.24,1.18-.07Z" transform="translate(-0.1 -0.21)"/><path id="TR-43" class="cls-1" d="M64.35,63.51l3.92.1.47-.86,1.35-1,.36-1.18,2-1.81.71-2.9,1.7.6.82.73,2.38-.14h0l.79,2.63,1.62,1.39.72.36,2.83.11h0l1.12.28,2.08-.48.3.37-.59.72,1.33,1.24,2.13,1.14.42,2-.53.87.34,1.69-.42,1,1,.79.11,1.36,1.15.18h0l-.8,1.55-1.28.06-1.56,1,.23,3.33L87.9,80.47,86.57,81l-1.22,1.63-1,.27h0l-1.13-.41-.87-1.79L78,80.19l-2,.2-4,1.36-1.68,1.61-2-.7-2.29.26h0L64,81.3l-.72-1.8.57-.77,0-1.06-4-.74-1-.85L58,74.52h0l-.74-1.88L60.66,72l2.86-3.28-.42-3.08,1.34-1.42Z" transform="translate(-0.1 -0.21)"/><path id="TR-44" class="cls-1" d="M244,75.15l1.16.93,1.42-.8,1.22.76,1.5-.05,1.81,1.86h0l-1.53,1.67.1,1-.48.48,1.11,3.67-.4.33-1.72-.52-.51.44-.72-.09L246.84,86l-.92.48-1.07,1.48.2,2.19,1.42,1.32,4.46,1.42,2.62-.5,1.37,2,1.42,1,2.83-.61.84,1.2h0l-.25,1.7-.61.63.71.41h0l-2.38,1.65-.21.65-3.94,1.58-3.23-2.22-.95-.18-.33-.52-2.75-1.35-1.9.13-.66.25-.77,1.06L239.39,101l-.18.51.63.85.33,1.54-1.87,1.74-2.18.42-2-.44-1,.53-.49-1.16-1.47.33.2-.85L231,104h0l-.68-.43-.29-1.51,2.19-1.92.95-1.5,0-1.08-1.56-.22.29-2.14-1.73-.32-2-1.58-1.57.16L223.85,92l0-.9.93-1.46h0l1.11-1,.66-2.3,2.95-1.55-1.85-2.4,1.12-2-1.05-2,.17-.43,5.55.9.51-.73-.71-1.36.59-.67,2.68.58,4.5-.07,1.81-1.28Z" transform="translate(-0.1 -0.21)"/><path id="TR-45" class="cls-1" d="M33.63,69.31l1.16-.72L37,70.32l3-.48,1.65,1.67,2-1.34.62.63.62,1.72,2.1,1.62,2,2.91.86-.13,1.3-1.13,2,.37,3.32-1.81,1.63.17h0l.72,1.56,1,.85,4,.74,0,1.06-.57.77L64,81.3l2.16,1.62h0L65,85.47l-1.66,1-1.22.09-.49.63-.89,5.59-1.29,2.12,2,2.67h0l-1.14.94-.67,1.62-2.14,1.26h0l-2.31-1h0L54,99l.2-1.7-2.46-.83-1.37-1.23-1.73-.3-.51-.73-1.88-.86-1.88.45-.67-.56-.88.19.2,1.42-.52.73-.37-.62-1.25,0-1-1.87-1.29-.16-.73-.7-.76.12-.69-1.1-1.35.17-.52-1.11-.86-.46L31.63,90l-.9-.63L30.62,87l-1.86-2.52,1-1.48-.16-.61,2.45-1.29,1,.28,2.13-.9.73-.72.27-1.5-1.41-3.77L35,72.53l-1-1Z" transform="translate(-0.1 -0.21)"/><path id="TR-47" class="cls-1" d="M295.58,110.08l1.54,5.29,5.32-.47,2.95-1.44,2-1.75,2.81-.26,1-.87h0l.23,1.46,1.27,1.44-.81.76-.22.9-1.32.49-2.84.17-.39.73-.6,5,.23.5.9-.31.51,1.62-.17,1.27h0l-2.75.89h-4.53l-1,.4-1-.78-4.9-.88-1.42.59-1.32-.48-4.46,2.33-2.38.38-1,1.19-2.44,1.33h0l-.26-1.08-1-.75-.31-2.11-1-1.59-.08-.82-.74.08-.79-.8-.2-1.54L275.19,118l-.1-1.25.57-.77-.78-1.29h0l1.11,0,2.62-1.25,2.21,1.33.92.08,3.12-1.22.26-.89,4.11,1,.35-.65-.42-1.54.29-1.15,3.92,1.13,1.73-.45Z" transform="translate(-0.1 -0.21)"/><path id="TR-48" class="cls-1" d="M33.94,117.3l.31-1.77,1.21-.92,1.4-.22,2,.84,1.22-.07,1.38,1.23,2.33-.4,3.43.27,2.48-2,.32,1,4.25.17,2.55,1.83.62-.11h0l.34,1.27,1,.14.75,1-.06,1.3,1.53.92.83,1.68,1.19.41,1.91-.28.17,1.67,1.36,2,0,1.76.53,1.5,1.35.54,1.75-.27,1.06-.7h0l.43.52h1.08l-.55,1.22,1.26.38.24-.64.5.13,1.4-3.39,2.07-.87,1.61.59h0l.74.63.25,1-1.11,2v2.87l-.6,1.5-1.8,1.14-1,1.75-1.07.94-2.39.14-1.44.78.21,1.1-.41.18.06,1.59-.93.64h0l-.83-.83-1.15-.3-.48-.42.16-.43-.91-.25.61-.66-.11-1.11-.45-.31.45-.56v-1l-.65-.17-.1-.42-.71.24v.4l-.77-.13.64-.4-.08-1.38.68.12,0-.75.46.27-.25.35.52-.13.12-.52-.48-.7-.81-.14-.68-.81-.45.14-1.29-1.1-.61,1.36-.65.08.07.61-.34.21.31.61.21-.29.54.2-1.15,1.22-.43-.91.52-.26-.65-.51-.46.2.21-.45-.37-.43-1.18-.41-1,.3-.42-.74-.58.47.12-.61-.32-.16.5-.49L57,133l.32-.33-.85-.9-.7-.33-.26,1.07-.33-.35-.35.2,0-.71-.74.13-.1-1.53-1.45.75.15.36.75-.05L53,132.4l-1.7-.69v.49h-.75l-.17-.49.9-.21-.86-.61L49.78,132l1.33,1.79-1,0-.6,1-1.16.15-1.15,2.2-.59-.08-.94.78-.21-.36-.54.64-.39-1.26,1.86.07.64-.95-.27-.4-.54.13.34-.57-.56-.38-.32.5L44.55,135l1.7-1,.82-.16.08.5.53-.45-.83-.62.88-1.11-.93,0-.37.74-2.12.25-.4.41L40,133.06l-.79.88-.26,1.5-1.92-.52-1.86.74L33,134.89l0-.58,1.13-.09.19-.88,3.42-.34.63-1.12,1.19.6,2.25-.65,4.36.3.22-.94h-1l.37-.17-.45-.26,1.09-.49-.09-.56-.68-.21.55-.12-.41-.39,1.42-.37,1.23.39.05.47-.08-1,.85-.11.19-1.05.65.24-.06-.36,1.63-.63-.12-.52-4.29.41.27.44-.31.1-.18-.4-2.17-.09-.6.38-1.05-.3-2.55.93-1.41-.33-.91.59-1.22-.29-.17.46-.9-.44-.72.15-1.12-1.23-.21.44-.32-.29-.39.75.1-.69-1,.31-.53,1.42-.76-.19-.73-2.29,1.31-1.29h-.74l0-.42.4-.26.74.57.22-1,.41.69.39-.61.48.26,0,.61.82-.2.78,1.15,1.27-1.14.83-.19-.73-.4-.2-.94.73-.47.35.29-.25.51.28-.11-.29-.78.73-1.54-1.09,0-.66,1.2-.45-.25.5-.48-.28-.53-1,.69.78-1.71L35.1,119,34.52,120l-1.05-.5-.12-.8.95-.6Z" transform="translate(-0.1 -0.21)"/><path id="TR-49" class="cls-1" d="M322.25,66l1.63,1.68.72,1.89,1.6,0,.26,1.59,1.93,4.26L328,77.28l.1,3h0l-4.7-.4-4.66,1.41-.68.77-.38,1.36-1,.49.15,1.6L314.1,88l-.53,1.29-3.3-.77-3.66-.19L305.2,89l-.12.41h0l-1,1.32-1.46.26h0l-.12-1.39-.87.17-.94-.74-.49-2,.2-1.43-1.27.58-1.05-.8h0l-.27-2.87.36-2.6,1.24-1.48,2.13-.9.31-.72-.26-.91L300,74.94l-1.78-3.1.06-1.37.8-1h0l1.16.44L304,70l3.22,2.25.45,2.27,3.29-.09,3.52-.94,1.91-1.31,0-1,2.3-.55.46-2.19Z" transform="translate(-0.1 -0.21)"/><path id="TR-50" class="cls-1" d="M173.94,68.1l.27.77,1.49.67,2.5.38L180,71.35l.33,1.1-.33,1,.78,1.71,0,1.58.9,1.64h0l-.28,2-1.39,3.24,1.56.86,1.79,4.25-2.17,3.12-2.32,1-.45,1.29h0l-2.5-.12-1.61,1.19-.83,0-1.86-.85-.83-1.59h0l-.75-.72-.2-1.74-1.37-2.09-2.11-1.13-.17-1.21.7-1.31.1-1.81-.5-.45h0l-.12-1.19,1.25,1.22.64,0,1.4-3.52L171,77.52l1.6,0-.82-.89,0-1.22,2.74-3.5-2.29-.24-.55-1.07Z" transform="translate(-0.1 -0.21)"/><path id="TR-51" class="cls-1" d="M170.71,92.83l.83,1.59,1.86.85.83,0,1.61-1.19,2.5.12h0l1,1.44,1.54,1.14.57,2.18,2.63.25,1.12.81.14,4.58-.86,2.7h0l-2.11,1.26-1.53,2.33-2.35-.28-.73,3.29-.47.63.36.68-1.23,1h0l-3.83,1.62-1.56,0h0l-1.15-1.6-1.75-.39.47-1.49-1.42-.66,1.9-2.32.12-.92-.6-1.68-2.49-3.65-1.79-1-1.54-2.59h0l1.57-1.55,2-.51,1-.74,1.57-2.32.36-2.71Z" transform="translate(-0.1 -0.21)"/><path id="TR-52" class="cls-1" d="M222.41,24.87h1.81l.08.55,1.94.53L229,28l1.33-.66,1.41-2.24.4.53,1.63,0-.19,1.4.57.87,1.18.36.18.65,4.22.62h0L239.24,31l-1.42,2.07.28,1.11-1,.82.74,1.84,1.11.65-.44.83.68,1.11-.13,1.71h0l-.91.73-1.4.15-.28,1-1.73,1.62-.95-.63-.77.64-2-.38h0l.41-1-1.22-.72.88-1.35-.16-.42-2.25-.64-2.9,0-3.15-2.88-.79-.3-.14-.53-1.15-.48-1.89.62-1.06-.77-1.09.05-.39-.48,0-1.26-2.24-.74-.12-.67-.88-.55h0l.13-.65,2.27-1.25.55-.89,1.83-.1.6-.44.84-1-.27-1.13.8-.77,1.46.06.77-1.2h.57Z" transform="translate(-0.1 -0.21)"/><path id="TR-80" class="cls-1" d="M204.24,110.55l-.54,1.1.78,7,1.68,0,.39.36,2.56-.81,3.18,0,.17.45-.56,1.22.77,1.53-.2,1.21h0l-4.3,5.1h0l-1.43-.33-1.44.22-3.12-1.44-1.81.36h0l.58-4.24-1.09-4.92.22-2,.6-1.93,1-1.5Z" transform="translate(-0.1 -0.21)"/><path id="TR-53" class="cls-1" d="M300.66,19.93l.61,1.06.09,1.33L304,25.91l-1.26.82-2.21,2.52-.38,1.44L298.48,33h0l-2.19,1.36-3.57,3.37-5,2.34h0l-2,.53h0l-.69-2,1.25-2.24-1.49-2.29.46-2.06-1-1-.13-1.36-1.66-.58h0l1.25-1.22,2.22-.41.78.38,3.35-1.47,1.73-1.94,1.41-.54,1.11.14,2.35-1Z" transform="translate(-0.1 -0.21)"/><path id="TR-54" class="cls-1" d="M95.8,25.26l2.54,1.09,4.25.35h0l.74.64-1,1.33L101,29.76,99.79,30l-.67,1,.24.46,1.17-.08.67,1-.9.83-.22.92.16.52,1.79.9-.65,1.3h0L100.7,38l.86,1.63-1.08,1.05-2.64.56-3.13-.12.13,2.81-.37.85h0l-.91.06L92.74,44l-1.56.72-.91-.53-1.94.68-1.12-.22-1-.66-.78-1.36-.69.73-.49-.14L83,40.82h0l.23-1.25h0L86,38.49,87,36l1.49-.64-.35-2.47,1.45-.59.65-1.19-1.38-3,.28-.63-.24-.73,1.29-2.24.71-.5h0Z" transform="translate(-0.1 -0.21)"/><path id="TR-55" class="cls-1" d="M198.76,9.77l1.89,1.49.87,1.32.4,4.26,2,2.6,1.94,1.1.13.78.88.79,1.24.21,1.72-.78,2.08-2.91.46.53,3.66.7,2.43,1.43.59.69.19,1.81,2.59,1.09h0l-.77,1.21L219.6,26l-.8.76.28,1.13-.85,1-.59.45-1.84.09-.54.89L213,31.61l-.12.65h0l-.9-.7-1.18.05-1.6.65-.74-.14-1.27.76h0L205,32l.77-.89-.13-.51L203,29.64l-.46,1-.59.21-.76,2.31L198,31.82l-2.36.56-.7-.67-2-.08-.37-.49.16-.79-1.42-.71-.74-1.77-.63.47-.27-.58-.67.49-1.28-.67-2.52.42-.77-1-2.37-.29h0l-1.78-.21-.87-.62,1-1.73-1.28-2.74.06-1.14h0l3.25-1.78.42,1.63,1,.67.06.95,2.24.9.93-.31.57-.87-.26-1.73.82-.18,1.54.64-.34-3.17-2-1-.63-2,.9-1.84.83-.71h0l1.61.84,2-.07Z" transform="translate(-0.1 -0.21)"/><path id="TR-63" class="cls-1" d="M260.25,102.66l3.9,1.55,1.54,1.79,2.67.47,1.29,1.46,1.18-1.28,1.63-.4.81,2,.23,4.73,1.38,1.65h0l.78,1.29-.57.77.1,1.25,1.21,2.93.2,1.54.79.8.74-.08.08.82,1,1.59.31,2.11,1,.75.26,1.08h0l-1,.78-2.24.52-.63.68-4.07,1.7-11.72,2.1-3.62-1-5.48,0-3.61-3.26-3.17-1.4-2.75-.51-4,1.53-.2.67h0l.35-1.14-.81-1.07.05-.9-.76-.57.22-1.62-1.19.28-1-.66.3-1.71-.85-1.6.13-.48.77.13-.8-1,.4-1.28.5-.23-.24-.44,1.91-2.23,1.24-.16.51.34.4-.49h0l1.78,1,.4-1,.92.16.5-.8,3.2-.24,1-.51,3.13-2.73,3.85-.78-.66-.95,1.25-.24.58-.4.1-.66.79-.25,0-1.21-1.16,0,.57-.56h1l.26-1.43-.35-.32,1-.44.62-1.7.59-.53Z" transform="translate(-0.1 -0.21)"/><path id="TR-56" class="cls-1" d="M309,97.43h2l.58.91.8.28,2.07-.37.07.58.42.17.73,0,1.6-1,2,0,4.75,5.39,1.42.48.32.61.64-.59-.16-.44,1.05-.42.31-.54h0l1.39,1.75.86.45.91,2.3.79.61h0l.11,3.53-2.5-.91-2.23-.12L324.73,109l-.79.26-3.18,2.93-1.15.5-1.56,0-.81-.63-1.38.6-1.44-.58-1.59.15-1.63-1.63h0l-1-.68-1.08.22-2.35-.78-.59-1-4.42-3.37L302,104l2.4-2.31,3.06-1.26Z" transform="translate(-0.1 -0.21)"/><path id="TR-57" class="cls-1" d="M179.26.53l1.1.06.71.86L181,1.9l.68.39,2.12-.35.33.68-1.18-.26-1,1.4L181.84,5l.75,1.65L184,8v.84l1.37,1.41,3.07,1.27h0l-.83.71-.89,1.84.62,2,2,1,.35,3.17-1.55-.64-.82.18.27,1.73-.57.88-.93.3-2.24-.89-.07-1-1-.67-.43-1.62-3.24,1.77h0l-1.57,2.08-1.35,0-1.24,1-1.2-.06-1.11-.73-.57-1.31-1.55-.93-.95.48h0l-.48-1.26,1.37-2.78-.43-1.36L171.75,14l.67-2.6-1.13-.88L169,10.07l-.73-1.6L166,8.36,166.55,7l-.28-1.25L165.43,5V4.22h0l2.19.11,2.64-.79,1,.73,4.62,0,2.35-1.83L179.08,1,179,.47Z" transform="translate(-0.1 -0.21)"/><path id="TR-73" class="cls-1" d="M331.48,107.67l2.15.64,1.54,1.2,4.41.75,1.1-.24,1.33-1.47,1.21.07h0l-.6,2.42-2.77,3.1.9,1.75.11,3.55h0l-.42,0L340,120l-1.33-1-2.31-.69-1.78.49-1.27,1-2.37-.76-.17-.63-.66-.27-1.26,1.63-.75.07.15.54-1.52,1.69-.67,1.68-2.14.19-2.25.88L321,122.9l.4-1.2-1.12-1.18-1.51,0,.4-.77-.28-.15-3.39,3.29-4.65,1.3-2.9.32h0l.17-1.27-.51-1.62-.9.31-.23-.5.6-5,.39-.73,2.84-.17,1.32-.49.22-.9.81-.76L311.43,112l-.23-1.46h0l1.63,1.63,1.59-.15,1.44.58,1.38-.6.81.63,1.56,0,1.15-.5,3.18-2.93.79-.26,2.13,1.17,2.23.12,2.5.91Z" transform="translate(-0.1 -0.21)"/><path id="TR-58" class="cls-1" d="M239.05,41.16l2.12.9-.41,1.83.09,3,1.06,1.85,2,.38,1.51,1,.78-.4.44.46,1.19-.84.62,1.76,1.28.61,2.7.15h0l-.59,1.22-2,.22-1.49,1.31-2.2-.22-1.18,1,.06,1,1.93,1.61-2.12,1.56-.8,2.49.39,2.38-.87,1.8.61,1.63,1.35.8-.26.84-1.3.32,1.43,2.45L244,75.15h0l-1.16.23L241,76.66l-4.5.07-2.68-.58-.59.67.71,1.36-.51.73-5.55-.9-.17.43,1.05,2-1.12,2,1.85,2.4-2.95,1.55-.66,2.3-1.11,1h0l-.5-.4-2,.17-3.2-.6-4.41,1h0L213,86.38l1.7-1.51.29-2.33.92-1.73,1.45-1.37L216.46,77l-1.24-1-1.93-.81-2.73.43-4.23-.3-3.07.78L201.32,76l-.83-1.25-.9-.52L199.12,73l-3.34-1.44h0l1.65-2.32.37-3.14,1.49-.58,1.17.55.92-.16,2-2L203,61.27l-1.63-1.94.29-2.15-1.61-.64L200,55.07h0l1.29,1,.72.08.38-1.32.88-.45,6.12.14,2.11-.75.67-.93.35-2.66.76-.27.76-1.45.89-.45,4.39-.09.88.61,2.84-.22.87.5,1.17,0,.6.6.84-.06.17-1.08,2.52-1-.28-.6,1.28-1L231,44.3h0l2,.38.77-.64.95.63,1.73-1.62.28-1,1.4-.15Z" transform="translate(-0.1 -0.21)"/><path id="TR-59" class="cls-1" d="M24.67,20.72l1-1,1.42.28,3.25-.46.82.61.51,1.4L34,23.35l1.48-.54,1.33-1.38.78-3,1-.87,3-1.08,1.65-.19L47.08,14l.17-.62.77.07h0l.23.28h0L46.78,21l-1.11,1.89v1.14l-.82,1.63L44.79,27l.41.91h0l-.72,1.54-1.56,0-2.37-1.25-4.66,1-.83,1.59-.28,1.68-2.15,2-.89,1.79L29.43,38l-2.6.73-1,1.07-1.27.31h0l0-1.37,1.54-3.63-1.45-.49-2.77.13h0L20,32.36l.52-3.85-1-.89.4-.49,2-.3,1.91-1.89L25,23Z" transform="translate(-0.1 -0.21)"/><path id="TR-60" class="cls-1" d="M207.18,32.88l1.27-.77.74.15,1.6-.66,1.17,0,.9.7h0l.88.55.12.67,2.24.74,0,1.26.39.48,1.09-.05,1.06.77,1.89-.62,1.15.48.14.53.79.3,3.15,2.88,2.9,0,2.25.64.16.42-.88,1.35,1.22.72-.41,1h0l-.84,1.35-1.28,1,.28.6-2.52,1-.17,1.08-.84.06-.6-.6-1.17,0-.87-.5-2.84.22-.88-.61-4.39.09-.89.45-.76,1.45-.76.27-.35,2.66-.67.93-2.11.75-6.12-.14-.88.45L202,56.16l-.72-.08-1.29-1h0l-.72-.69-.37-3-3.55-.13-2.05.45-.7-.48-2.1-.27-.07-1.45-1.27-1.06L188.93,47h0l2.22-1.42,2.23-.51,1.15-.77.08-.8,1.18-.76.5-1.43,2.6-.14.77.41,0,.43,1.78.66.54-.76,2.53-1.16.41-1,1-.79-1.25-.2-.13-.59,2.62-.21.51-.93-.11-1.14L209,34.54l-1.57-.84Z" transform="translate(-0.1 -0.21)"/><path id="TR-61" class="cls-1" d="M265.44,26l1,.26L268.06,28l1.47.69,1.42-.36,2.09.66.84.78,3.22-.09,1.58,1.14,2.11-.39,1.67-1.25h0l1.66.58.13,1.36,1,1-.46,2.06,1.49,2.29L285,38.61l.69,2h0l-4.06.43h0L280,39.61l-1.14.28-1-.76.22-.91-1-.73-1.41.2v.67l1.32.6.26.51-1.5.67-.44-.88-2.11-.84.38-1.51-.27-.75-1.05.09L272,38.09l-1,1.1-2,.09-1.18-1.07-1.26.08-.24-.9-.74-.15L264.49,36l-2.79-.62-1.2-.67h0l0-8.09h0l1.93.66,2.68-1.49Z" transform="translate(-0.1 -0.21)"/><path id="TR-62" class="cls-1" d="M252.35,77.9l-.42-2.5.61-1.15-.56-.5.36-.5,1.47-.31,1-.72-.47-1.39.15-.77,2.2-1.77,3.9-1.85,3.49.53,2.8-.84,4.1.59.78-.54.76-2.5.84-.34,3.61.9.82.55,2.31-.86,2.76.53,1.43,1.42h0l-4.65,4-3.52-.24.55,2-1.22,1.06-.93,3.37h0l-.9,1.09.77,1.15-.62,2.32-.91.94-.33,1.4-.8-.33-1.64.45-2.79,0-.41,1.15-.43.14-1-.54-.78.38-.35-.81L263,83l-.89-1-5.74-1-2,1.05-1.87-.62-.26-.64.9-1.54-.14-.82Z" transform="translate(-0.1 -0.21)"/><path id="TR-64" class="cls-1" d="M66.13,82.92l2.29-.26,2,.7,1.68-1.61,4-1.36,2-.2,4.37.53.87,1.79,1.13.41h0l-.28,1.21L82.27,85.7l.47,1.87L82,88l-2.18,2.85h0L76.6,93l.17,2.72-.6.78-5.4-1.18L69.16,97.2l.15.64-.56.16-.25,1.16-.64-1.58-6.49,0h0l-2-2.67,1.29-2.12.89-5.59.49-.63,1.22-.09,1.66-1Z" transform="translate(-0.1 -0.21)"/><path id="TR-65" class="cls-1" d="M354.11,69.6l.77.88.09.9.44.19-.35.78.23,1.24,1.33.71.9,1.08.21.94-.6.55.36,1.27-.78.72.54,1-.17.38.55.43-.15.65.68,1,1,.29.27.77-1,2.3.4.91-.21.72,1,.78-.25,2.13.31,1.09-.43,1,.31.89-.31.4.34.52.76-.07.39.41,1.31-.67.28.65.93.42-.29.9L361.13,97l-.2,2.55-.78.33.33.72-.74.1-.39,1.45-1.25,1.89.19.52-.56,1.32.84.5,1-.22,1.36.34.11,1,.59.55.44-.22v.91h0l-.89.47-1.75-.13-.92.7-2.59-.24-.59-1.19-1.29-.64-2.4.6-2.69-.26-3.55,1-2.19-.48h0l-1.21-.07L340.68,110l-1.1.24-4.41-.75-1.54-1.2-2.15-.64h0l-.79-.61-.91-2.3-.86-.45-1.39-1.75h0l.87-4.72-.19-1.12-.77-.59v-.56l2.17-1.5.16-2.86,3-4.51L334.66,85l2.64-1.58,1-1.48-.09-.68-2.37-1.07L335.39,79l-1.46-1.19h0l1.47-2.6,1.89-1.53.08-3.71,2.18-.65,2.52.17,2.43,2.62,2,1,1.51.19,1.51-1.33,1.4-2.27,3.18-.5h0Z" transform="translate(-0.1 -0.21)"/><path id="TR-77" class="cls-1" d="M72.68,36.45l.56-.16h0L73.3,39l-.37.79h0l-2.25,0-2.3.82-4.12-.86L64,42.27h0l-3.69-1.5v-.46l4.08-2.73,5.44-.37,1.33-.38.68-.7Z" transform="translate(-0.1 -0.21)"/><path id="TR-66" class="cls-1" d="M188.93,47l.22,1.46,1.27,1.06.07,1.45,2.1.27.7.48,2.05-.45,3.55.13.37,3,.72.69h0l.09,1.47,1.61.64-.29,2.15L203,61.27l.36,2.56-2,2-.92.16-1.17-.55-1.49.58-.37,3.14-1.65,2.32h0l-1,1.42-1,.5-4.79.64-.51.78.66,1.71-2.69,1.94-2.46,1-.38-.27-.14-1.63-1.93.78h0l-.9-1.64,0-1.58L180,73.42l.33-1-.33-1.1-1.75-1.43-2.5-.38-1.49-.67-.27-.77h0l-.74-1.31-2-1,1.06-1.31L172,64l-2.35-.43-.78-1.51-3.45-1.78-.78-1.77h-1.39l-.33-2.09-.78-1,1.59-.62h0l.18.84,1.68-.5,2.31.28.53-.88,1.8-1.27.79.18.81.83,1.23.27,1.28-.56,2.43-.14,1.68-1.78.4.25.14,1.09,5-.37.41-.68-.94-1.65,1-.82-1-1.62.55-.2L185,49l1-1.22,1.65-.49h0Z" transform="translate(-0.1 -0.21)"/><path id="TR-67" class="cls-1" d="M124.81,13.3l1.12,1.82,1.32.2v1.34l.88,1v1.11l-.72,1.54h0l-1,.83-.79,2.7.79,2.23h0L119.2,28l-1.51-.72-3.56,0-2.19.84h0l-1,.32-1.17-.23-.78-2.73h0l1.93-2.29.26-1.65-.55-.45.12-.58,4.12-1.62,4.94-3.33,2.6-1,.85-.8Z" transform="translate(-0.1 -0.21)"/></svg>